<svg width="14" height="14" viewBox="0 0 14 14" fill="none" xmlns="http://www.w3.org/2000/svg">
<circle cx="7" cy="7" r="7" fill="#FFDC3F"/>
<path fill-rule="evenodd" clip-rule="evenodd" d="M10.3537 4.64652C10.4474 4.74028 10.5001 4.86743 10.5001 5.00002C10.5001 5.1326 10.4474 5.25975 10.3537 5.35352L6.3537 9.35352C6.25994 9.44725 6.13279 9.49991 6.0002 9.49991C5.86762 9.49991 5.74047 9.44725 5.6467 9.35352L3.6467 7.35352C3.55562 7.25921 3.50523 7.13291 3.50637 7.00181C3.50751 6.87072 3.56009 6.74531 3.65279 6.65261C3.7455 6.5599 3.8709 6.50732 4.002 6.50618C4.1331 6.50504 4.2594 6.55544 4.3537 6.64652L6.0002 8.29302L9.6467 4.64652C9.74047 4.55278 9.86762 4.50012 10.0002 4.50012C10.1328 4.50012 10.2599 4.55278 10.3537 4.64652Z" fill="#171923"/>
</svg>
