<svg width="14" height="14" viewBox="0 0 14 14" fill="none" xmlns="http://www.w3.org/2000/svg">
<circle cx="7" cy="7" r="7" fill="#F95511"/>
<path fill-rule="evenodd" clip-rule="evenodd" d="M10.3537 4.64652C10.4474 4.74028 10.5001 4.86743 10.5001 5.00002C10.5001 5.1326 10.4474 5.25975 10.3537 5.35352L6.3537 9.35352C6.25994 9.44725 6.13279 9.49991 6.0002 9.49991C5.86762 9.49991 5.74047 9.44725 5.6467 9.35352L3.6467 7.35352C3.55562 7.25921 3.50523 7.13291 3.50637 7.00181C3.50751 6.87072 3.56009 6.74531 3.65279 6.65261C3.7455 6.5599 3.8709 6.50732 4.002 6.50618C4.1331 6.50504 4.2594 6.55544 4.3537 6.64652L6.0002 8.29302L9.6467 4.64652C9.74047 4.55278 9.86762 4.50012 10.0002 4.50012C10.1328 4.50012 10.2599 4.55278 10.3537 4.64652Z" fill="#171923"/>
<circle cx="7" cy="7" r="7" fill="#F95511"/>
<path fill-rule="evenodd" clip-rule="evenodd" d="M10.3537 4.64652C10.4474 4.74028 10.5001 4.86743 10.5001 5.00002C10.5001 5.1326 10.4474 5.25975 10.3537 5.35352L6.3537 9.35352C6.25994 9.44725 6.13279 9.49991 6.0002 9.49991C5.86762 9.49991 5.74047 9.44725 5.6467 9.35352L3.6467 7.35352C3.55562 7.25921 3.50523 7.13291 3.50637 7.00181C3.50751 6.87072 3.56009 6.74531 3.65279 6.65261C3.7455 6.5599 3.8709 6.50732 4.002 6.50618C4.1331 6.50504 4.2594 6.55544 4.3537 6.64652L6.0002 8.29302L9.6467 4.64652C9.74047 4.55278 9.86762 4.50012 10.0002 4.50012C10.1328 4.50012 10.2599 4.55278 10.3537 4.64652Z" fill="#171923"/>
<circle cx="7" cy="7" r="7" fill="#171923"/>
<g opacity="0.7">
<path d="M8.75 6H8.5V4.75C8.5 4.35218 8.34196 3.97064 8.06066 3.68934C7.77936 3.40804 7.39782 3.25 7 3.25C6.60218 3.25 6.22064 3.40804 5.93934 3.68934C5.65804 3.97064 5.5 4.35218 5.5 4.75V6H5.25C4.98487 6.00029 4.73069 6.10574 4.54321 6.29321C4.35574 6.48069 4.25029 6.73487 4.25 7V9.75C4.25029 10.0151 4.35574 10.2693 4.54321 10.4568C4.73069 10.6443 4.98487 10.7497 5.25 10.75H8.75C9.01513 10.7497 9.26931 10.6443 9.45679 10.4568C9.64426 10.2693 9.74971 10.0151 9.75 9.75V7C9.74971 6.73487 9.64426 6.48069 9.45679 6.29321C9.26931 6.10574 9.01513 6.00029 8.75 6V6ZM8 6H6V4.75C6 4.48478 6.10536 4.23043 6.29289 4.04289C6.48043 3.85536 6.73478 3.75 7 3.75C7.26522 3.75 7.51957 3.85536 7.70711 4.04289C7.89464 4.23043 8 4.48478 8 4.75V6Z" fill="#F8F9FA"/>
</g>
</svg>
