<svg width="24" height="24" viewBox="0 0 24 24" fill="none" xmlns="http://www.w3.org/2000/svg">
<g id="BiMedal">
<path id="Vector" d="M12 22C15.859 22 19 18.859 19 15C19 11.141 15.859 8 12 8C8.14 8 5 11.141 5 15C5 18.859 8.14 22 12 22ZM12 10C14.757 10 17 12.243 17 15C17 17.757 14.757 20 12 20C9.243 20 7 17.757 7 15C7 12.243 9.243 10 12 10ZM11 2H7V7.518C8.19668 6.71722 9.56878 6.21675 11 6.059V2ZM17 2H13V6.059C14.4312 6.21675 15.8033 6.71722 17 7.518V2Z" fill="#FFDC3F"/>
<path id="Vector_2" d="M10.0191 15.811L9.55111 18.537L12.0001 17.25L14.4491 18.537L13.9811 15.811L15.9631 13.879L13.2251 13.481L12.0001 11L10.7751 13.481L8.03711 13.879L10.0191 15.811Z" fill="#FFDC3F"/>
</g>
</svg>
