<svg width="24" height="24" viewBox="0 0 24 24" fill="none" xmlns="http://www.w3.org/2000/svg">
<path d="M12 22C17.5228 22 22 17.5228 22 12C22 6.47715 17.5228 2 12 2C6.47715 2 2 6.47715 2 12C2 17.5228 6.47715 22 12 22Z" stroke="currentColor" stroke-width="2" stroke-linecap="round" stroke-linejoin="round"/>
<path d="M12.0725 6C10.4767 6 9.16113 7.29396 9.16113 8.91141C9.16113 10.5073 10.4551 11.8228 12.0725 11.8228C13.69 11.8228 14.984 10.5289 14.984 8.91141C14.984 7.29396 13.6684 6 12.0725 6ZM12.0725 9.88188C11.5334 9.88188 11.1021 9.45056 11.1021 8.91141C11.1021 8.37226 11.5334 7.94094 12.0725 7.94094C12.6117 7.94094 13.043 8.37226 13.043 8.91141C13.043 9.45056 12.6117 9.88188 12.0725 9.88188Z" fill="currentColor"/>
<path d="M15.6528 13.7854C14.9195 14.1952 14.1216 14.4755 13.3236 14.6049L15.5881 17.3869C15.8468 17.7104 15.9115 18.1633 15.6743 18.5084C15.3077 19.0691 14.5313 19.0907 14.1431 18.5946L12.0512 16.0283L9.98089 18.5946C9.7868 18.8319 9.528 18.9397 9.24765 18.9397C8.96729 18.9397 8.68693 18.8103 8.49283 18.5515C8.25561 18.228 8.27717 17.6889 8.53597 17.3654L10.7788 14.5618C9.98089 14.4108 9.18295 14.152 8.47127 13.7423C8.01838 13.4835 7.86742 12.9228 8.12621 12.4483C8.385 11.9954 8.96729 11.8445 9.42017 12.1033C11.0592 13.0306 13.108 13.0306 14.7685 12.1248C15.2214 11.866 15.8037 12.0386 16.0409 12.4915C16.2782 12.9659 16.1056 13.5266 15.6528 13.7854Z" fill="currentColor"/>
</svg>
