<svg width="226" height="75" viewBox="0 0 226 75" fill="none" xmlns="http://www.w3.org/2000/svg">
<rect width="226" height="75" fill="black" fill-opacity="0"/>
<rect width="106" height="75" fill="#BD1427" transform="translate(120)"/>
<path d="M128.551 28.2979H132.502V38.2949L132.445 40.9712L132.304 44.0156H132.389L141.947 28.2979H147.2V49H143.292V39.0596C143.292 37.7285 143.377 35.7555 143.547 33.1406H143.434L133.833 49H128.551V28.2979ZM169.389 49H165.014V40.0649H156.815V49H152.425V28.2979H156.815V36.4116H165.014V28.2979H169.389V49ZM186.466 42.7129H186.665C188.184 42.7129 189.374 42.3164 190.233 41.5234C191.101 40.721 191.536 39.626 191.536 38.2383C191.536 36.9544 191.134 35.9255 190.332 35.1514C189.53 34.3678 188.435 33.9761 187.047 33.9761H186.466V42.7129ZM182.516 49.2832V46.0972H182.204C180.448 46.0972 178.909 45.7904 177.588 45.1768C176.266 44.5537 175.223 43.6239 174.458 42.3872C173.703 41.1506 173.326 39.777 173.326 38.2666C173.326 36.8034 173.661 35.4865 174.331 34.3159C175.011 33.1359 175.988 32.2155 177.262 31.5547C178.537 30.8844 180.038 30.5493 181.765 30.5493H182.516V28.0005H186.466V30.5493H187.217C188.935 30.5493 190.431 30.8844 191.706 31.5547C192.98 32.2155 193.957 33.1359 194.637 34.3159C195.316 35.4865 195.656 36.8034 195.656 38.2666C195.656 39.777 195.274 41.1506 194.509 42.3872C193.754 43.6239 192.716 44.5537 191.394 45.1768C190.072 45.7904 188.534 46.0972 186.778 46.0972H186.466V49.2832H182.516ZM182.516 33.9761H181.935C180.547 33.9761 179.452 34.3631 178.65 35.1372C177.847 35.9113 177.446 36.945 177.446 38.2383C177.446 39.5977 177.871 40.6833 178.721 41.4951C179.57 42.307 180.769 42.7129 182.317 42.7129H182.516V33.9761ZM218.369 38.6206C218.369 42.0474 217.519 44.6812 215.82 46.522C214.121 48.3628 211.686 49.2832 208.514 49.2832C205.342 49.2832 202.906 48.3628 201.207 46.522C199.508 44.6812 198.658 42.0379 198.658 38.5923C198.658 35.1466 199.508 32.5176 201.207 30.7051C202.916 28.8831 205.361 27.9722 208.542 27.9722C211.723 27.9722 214.154 28.8879 215.834 30.7192C217.524 32.5506 218.369 35.1844 218.369 38.6206ZM203.26 38.6206C203.26 40.9334 203.699 42.6751 204.577 43.8457C205.455 45.0163 206.767 45.6016 208.514 45.6016C212.016 45.6016 213.767 43.2746 213.767 38.6206C213.767 33.9572 212.025 31.6255 208.542 31.6255C206.796 31.6255 205.479 32.2155 204.591 33.3955C203.704 34.5661 203.26 36.3078 203.26 38.6206Z" fill="white"/>
<rect width="115" height="75" fill="#046042"/>
<path d="M26.4893 49H21.9482V40.7236C20.4443 41.2314 19.1895 41.5781 18.1836 41.7637C17.1875 41.9492 16.2354 42.042 15.3271 42.042C13.2861 42.042 11.709 41.5537 10.5957 40.5771C9.49219 39.5908 8.94043 38.209 8.94043 36.4316V27.584H13.4668V35.1426C13.4668 36.1777 13.7061 36.959 14.1846 37.4863C14.6631 38.0039 15.4736 38.2627 16.6162 38.2627C17.417 38.2627 18.2129 38.1846 19.0039 38.0283C19.8047 37.8623 20.7861 37.5791 21.9482 37.1787V27.584H26.4893V49ZM44.2285 49H31.8945V27.584H44.2285V31.3047H36.4355V36.0068H43.6865V39.7275H36.4355V45.25H44.2285V49ZM65.1611 49H60.6201V40.7236C59.1162 41.2314 57.8613 41.5781 56.8555 41.7637C55.8594 41.9492 54.9072 42.042 53.999 42.042C51.958 42.042 50.3809 41.5537 49.2676 40.5771C48.1641 39.5908 47.6123 38.209 47.6123 36.4316V27.584H52.1387V35.1426C52.1387 36.1777 52.3779 36.959 52.8564 37.4863C53.335 38.0039 54.1455 38.2627 55.2881 38.2627C56.0889 38.2627 56.8848 38.1846 57.6758 38.0283C58.4766 37.8623 59.458 37.5791 60.6201 37.1787V27.584H65.1611V49ZM82.9004 49H70.5664V27.584H82.9004V31.3047H75.1074V36.0068H82.3584V39.7275H75.1074V45.25H82.9004V49ZM104.932 49H100.405V39.7568H91.9238V49H87.3828V27.584H91.9238V35.9775H100.405V27.584H104.932V49Z" fill="white"/>
</svg>
