<?xml version="1.0" encoding="utf-8"?>
<!-- Generator: Adobe Illustrator 26.0.1, SVG Export Plug-In . SVG Version: 6.00 Build 0)  -->
<svg version="1.1" id="Слой_1" xmlns="http://www.w3.org/2000/svg" xmlns:xlink="http://www.w3.org/1999/xlink" x="0px" y="0px"
	 viewBox="0 0 839.7 118.8" style="enable-background:new 0 0 839.7 118.8;" xml:space="preserve">
<style type="text/css">
	.st0{fill:#FFFFFF;}
</style>
<path class="st0" d="M0,0v24.8h64.3v23H24.8v23.1h39.5V94H0v23.1h99V0H0z M597.2,24.8V0h-99v117.1h99V94h-62.7V70.9h39.6V47.8h-39.6
	v-23H597.2z M364.6,0v117.1h36.3V24.8h39.6v92.3h34.6V0H364.6z M620.3,0v117.1H655V71h64.3V0H620.3z M686.3,47.8h-29.7v-23h29.7
	V47.8z M839.7,1.6h-99v23.2h33v94h34.7v-94h31.3V1.6z M198.1,1.7l-39.7,46.1V0h-34.7v117.1h34.7V70.2l37.2,46.9h25.5V94l-34.4-42.5
	l23-26.7h11.4V1.6L198.1,1.7z M244.2,0v117.1h97.3V94h-62.7V23.1h39.6v11.6h23.1V0H244.2z"/>
</svg>
