<svg width="111" height="40" viewBox="0 0 111 40" fill="none" xmlns="http://www.w3.org/2000/svg">
<path fill-rule="evenodd" clip-rule="evenodd" d="M110.222 0C109.63 1.24026 109.124 2.33321 108.589 3.41222C106.125 8.3673 103.683 13.3323 101.168 18.2605C100.55 19.4709 100.53 20.4843 101.155 21.7126C103.999 27.2968 106.761 32.9227 109.547 38.5348C109.758 38.9628 109.94 39.4087 110.207 40H0V0H110.222Z" fill="#AD475C"/>
<path d="M20.582 31.0155L15.5437 24.019H14.5606V31.0155H9V9H17.6942C20.0905 9 22.0157 9.59081 23.4698 10.7724C24.9444 11.9541 25.7125 13.7783 25.7739 16.2452C25.7739 20.1425 24.3505 22.5472 21.5036 23.4593L27.4329 31.0155H20.582ZM14.5606 19.2304H17.7863C18.8718 19.2304 19.6399 18.8157 20.0905 17.9865C20.541 17.1366 20.541 16.297 20.0905 15.4678C19.6399 14.6179 18.8718 14.1929 17.7863 14.1929H14.5606V19.2304Z" fill="white"/>
<path d="M44.8054 15.7166C44.7849 16.3178 44.5801 16.9708 44.191 17.6756C43.8223 18.3804 43.2796 18.9194 42.5627 19.2925C43.894 19.9766 44.7849 20.8888 45.2355 22.0289C45.6861 23.1691 45.8192 24.2678 45.6349 25.325C45.0409 29.1187 42.4603 31.0155 37.8931 31.0155H29.0146V9H37.7395C39.8695 9 41.5899 9.61154 42.9007 10.8346C44.2319 12.037 44.8668 13.6643 44.8054 15.7166ZM34.5444 17.6134H37.7395C38.5792 17.6134 39.1731 17.2921 39.5213 16.6494C39.89 15.9861 39.9002 15.3331 39.552 14.6904C39.2038 14.0271 38.5997 13.6954 37.7395 13.6954H34.5444V17.6134ZM34.5444 26.1335H37.7395C38.784 26.1335 39.5111 25.7604 39.9207 25.0141C40.3508 24.2471 40.3508 23.4904 39.9207 22.7441C39.4906 21.9978 38.7635 21.6247 37.7395 21.6247H34.5444V26.1335Z" fill="white"/>
<path d="M47.3847 28.0925C47.3847 27.2426 47.6817 26.517 48.2757 25.9158C48.8696 25.3147 49.5865 25.0141 50.4262 25.0141C51.2659 25.0141 51.9827 25.3147 52.5767 25.9158C53.1911 26.517 53.4983 27.2426 53.4983 28.0925C53.4983 28.9632 53.1911 29.7095 52.5767 30.3314C51.9827 30.9326 51.2659 31.2331 50.4262 31.2331C49.5865 31.2331 48.8696 30.9326 48.2757 30.3314C47.6817 29.7095 47.3847 28.9632 47.3847 28.0925Z" fill="white"/>
<path d="M67.729 31.0155L62.6906 24.019H61.7075V31.0155H56.147V9H64.8411C67.2374 9 69.1626 9.59081 70.6168 10.7724C72.0914 11.9541 72.8594 13.7783 72.9209 16.2452C72.9209 20.1425 71.4975 22.5472 68.6506 23.4593L74.5798 31.0155H67.729ZM61.7075 19.2304H64.9333C66.0188 19.2304 66.7868 18.8157 67.2374 17.9865C67.688 17.1366 67.688 16.297 67.2374 15.4678C66.7868 14.6179 66.0188 14.1929 64.9333 14.1929H61.7075V19.2304Z" fill="white"/>
<path d="M81.5992 9V23.6459C81.5992 24.3093 81.8143 24.8793 82.2444 25.3561C82.6745 25.8122 83.1865 26.092 83.7805 26.1957C84.3949 26.2994 85.0093 26.2994 85.6237 26.1957C86.2382 26.092 86.7604 25.8122 87.1905 25.3561C87.6206 24.8793 87.8357 24.3093 87.8357 23.6459V9H93.3963V23.6459C93.3963 24.7653 93.1915 25.7915 92.7818 26.7243C92.3927 27.6364 91.8602 28.3931 91.1843 28.9943C90.5085 29.5955 89.7302 30.1137 88.8495 30.549C87.9893 30.9636 87.0779 31.2124 86.1153 31.2953C85.1732 31.3782 84.2208 31.3782 83.2582 31.2953C82.2956 31.2124 81.3739 30.9636 80.4933 30.549C79.6331 30.1137 78.865 29.5955 78.1891 28.9943C77.5338 28.3931 77.0115 27.6364 76.6223 26.7243C76.2332 25.7915 76.0386 24.7653 76.0386 23.6459V9H81.5992Z" fill="white"/>
</svg>
