<?xml version="1.0" encoding="utf-8"?>
<!-- Generator: Adobe Illustrator 26.0.1, SVG Export Plug-In . SVG Version: 6.00 Build 0)  -->
<svg version="1.1" id="Слой_1" xmlns="http://www.w3.org/2000/svg" xmlns:xlink="http://www.w3.org/1999/xlink" x="0px" y="0px"
	 viewBox="0 0 60 16" style="enable-background:new 0 0 60 16;" xml:space="preserve">
<style type="text/css">
	.st0{fill-rule:evenodd;clip-rule:evenodd;fill:#92CFAE;}
	.st1{fill-rule:evenodd;clip-rule:evenodd;fill:#2A8288;}
	.st2{fill-rule:evenodd;clip-rule:evenodd;fill:#FFFFFF;}
</style>
<desc>Created with Sketch.</desc>
<g id="Page-1">
	<g id="Desk" transform="translate(-25.000000, -57.000000)">
		<g id="Group-2" transform="translate(25.000000, 57.000000)">
			<g id="Group">
				<polygon id="Fill-1" class="st0" points="0,0 0,14.9 14.9,0 				"/>
				<polygon id="Fill-2" class="st1" points="1.1,16 16,16 16,1.1 				"/>
			</g>
			<path id="Fill-3" class="st2" d="M24.4,7.7c1.7,0,2.7-0.9,2.7-2.4V5.1c0-1.7-1-2.4-2.7-2.4h-1.8v4.9H24.4z M19,0h5.4
				c3.8,0,6,1.7,6,5.1v0.1c0,3.4-2.3,5-5.9,5h-2V16H19V0z"/>
			<path id="Fill-5" class="st2" d="M37.5,13.2c1.7,0,2.6-0.8,2.6-2.2v-0.1c0-1.4-0.9-2.2-2.7-2.2h-2v4.5H37.5z M37.6,16H32V0h10
				v2.8h-6.6l0,3.4h2.3c3.6,0,5.7,1.6,5.7,4.8v0.1C43.4,14.2,41.5,16,37.6,16L37.6,16z"/>
			<polygon id="Fill-8" class="st2" points="46,0 49.7,0 49.7,6.9 55.4,0 59.4,0 52.9,7.6 59.7,16 55.4,16 49.7,8.8 49.7,16 46,16 
							"/>
		</g>
	</g>
</g>
</svg>
