<svg width="200" height="200" viewBox="0 0 200 200" fill="none" xmlns="http://www.w3.org/2000/svg">
<path d="M200 0H0V200H200V0Z" fill="#221F73"/>
<path d="M12.5 125.5H57.9L51.7 136.2H39.8V171.6H28.4V136.2H12.5V125.5Z" fill="white"/>
<path d="M120.7 136.1C119.4 136.1 118.5 136.9 118.5 138.2V158.7C118.5 160.1 119.4 160.8 120.7 160.8H144.2V171.5H120.7C112.5 171.5 107.1 166.5 107.1 158.7V138.3C107.1 130.5 112.4 125.4 120.7 125.4H147L140.8 136.1H120.7Z" fill="white"/>
<path d="M86.7 125.5H65.4L59.2 136.2H86.6C88 136.2 88.7 137 88.7 138.3V143.2H71C62.8 143.2 56.8 149.2 56.8 157.4C56.8 165.6 62.8 171.6 71 171.6H100.1V138.3C100.2 130.6 94.8 125.5 86.7 125.5ZM88.8 161.2H72.4C70.1 161.2 68.4 159.5 68.4 157.1C68.4 154.7 70.1 153 72.4 153H88.8V161.2V161.2Z" fill="white"/>
<path d="M162.8 136.1C161.5 136.1 160.6 136.9 160.6 138.2V158.7C160.6 160.1 161.5 160.8 162.8 160.8H186.3V171.5H162.8C154.6 171.5 149.2 166.5 149.2 158.7V138.3C149.2 130.5 154.5 125.4 162.8 125.4H189.1L182.9 136.1H162.8Z" fill="white"/>
</svg>
