<svg width="663" height="276" viewBox="0 0 663 276" fill="none" xmlns="http://www.w3.org/2000/svg">
<path d="M206.382 176.881V225.137H178.107V270H125.704V225.137H0.917001V176.881L88.758 6.09998H144.554L57.09 176.881H125.704V114.299H178.107V176.881H206.382ZM330.444 275.278C297.52 275.278 271.632 262.837 252.782 237.955C234.184 212.822 224.884 179.52 224.884 138.05C224.884 96.58 234.184 63.404 252.782 38.522C271.632 13.3887 297.52 0.821983 330.444 0.821983C363.62 0.821983 389.508 13.3887 408.106 38.522C426.705 63.404 436.004 96.58 436.004 138.05C436.004 179.52 426.705 212.822 408.106 237.955C389.508 262.837 363.62 275.278 330.444 275.278ZM290.482 202.517C299.53 217.094 312.851 224.383 330.444 224.383C348.038 224.383 361.358 216.969 370.406 202.14C379.706 187.311 384.355 165.948 384.355 138.05C384.355 109.901 379.706 88.4117 370.406 73.583C361.358 58.7543 348.038 51.34 330.444 51.34C312.851 51.34 299.53 58.7543 290.482 73.583C281.434 88.4117 276.91 109.901 276.91 138.05C276.91 166.199 281.434 187.688 290.482 202.517ZM662.537 176.881V225.137H634.262V270H581.859V225.137H457.072V176.881L544.913 6.09998H600.709L513.245 176.881H581.859V114.299H634.262V176.881H662.537Z" fill="#2D3748"/>
</svg>
