<svg width="187" height="64" viewBox="0 0 187 64" fill="none" xmlns="http://www.w3.org/2000/svg">
<path d="M18.671 42.9238C18.9853 51.8075 26.2208 59.5279 36.7831 63.6035C35.3278 63.6753 33.8231 63.7126 32.2864 63.7126C13.2603 63.7184 0 57.9597 0 52.7869C0 48.9698 7.22972 44.8281 18.671 42.9238Z" fill="#FFDC3F"/>
<path d="M56.8183 61.3266C55.724 61.7517 54.554 62.1461 53.3083 62.5099C52.9968 62.6018 52.6854 62.688 52.3623 62.777C52.0393 62.8661 51.7802 62.9379 51.4688 63.0097L51.1778 63.0901C50.5957 63.2318 49.9961 63.3696 49.3791 63.5037C47.8236 63.3605 46.2769 63.1362 44.7455 62.8316C31.4939 60.215 21.7874 52.0925 21.6797 42.4909C21.6797 42.4363 21.6797 42.3817 21.6797 42.3271C21.6797 41.8762 21.703 41.4282 21.7437 40.9887C25.2437 40.572 28.7661 40.3658 32.2914 40.3712C35.3788 40.37 38.4642 40.5263 41.5352 40.8394C41.6691 41.3592 41.8263 41.8762 41.9864 42.3875C44.3267 49.6224 48.9906 55.9086 55.2729 60.2955C55.7706 60.6545 56.2915 60.9991 56.8183 61.3266Z" fill="#F8F9FA"/>
<path d="M60.4187 63.2888C58.5057 63.5488 56.578 63.6898 54.6471 63.711C54.4172 63.711 54.1901 63.711 53.9602 63.711C52.4031 63.711 50.8751 63.6363 49.3791 63.4956C47.8236 63.3524 46.2769 63.1281 44.7455 62.8235C31.4939 60.2069 21.7874 52.0844 21.6797 42.4827C21.6797 42.4282 21.6797 42.3736 21.6797 42.319C21.6797 41.8681 21.703 41.42 21.7437 40.9806C21.7897 40.4606 21.8665 39.9437 21.9736 39.4325C23.5279 31.7954 31.2058 25.4192 41.6225 22.5527C40.0915 28.0131 39.9307 33.7592 41.1539 39.2946C41.2645 39.8145 41.3897 40.3286 41.5352 40.8399C41.6807 41.3511 41.8263 41.8767 41.9864 42.388C44.3267 49.6229 48.9906 55.9091 55.2729 60.296C55.7822 60.655 56.3032 60.9996 56.83 61.3271C57.3568 61.6545 57.9273 61.9934 58.4919 62.3036C59.1186 62.6521 59.7609 62.9805 60.4187 63.2888Z" fill="#FFDC3F"/>
<path d="M119.647 5.20648C120.348 5.1903 121.044 5.31458 121.695 5.57179C122.345 5.82901 122.936 6.2138 123.431 6.70288C123.93 7.17702 124.324 7.74789 124.588 8.37959C124.853 9.0113 124.982 9.69017 124.968 10.3735C124.982 11.0573 124.853 11.7367 124.589 12.3689C124.324 13.0011 123.93 13.5724 123.431 14.047C122.935 14.5356 122.344 14.92 121.694 15.1772C121.044 15.4344 120.348 15.5589 119.647 15.5434H116.906V20.6013H113.832V5.20648H119.647ZM119.647 12.7057C119.951 12.7139 120.253 12.6582 120.534 12.5423C120.814 12.4265 121.067 12.2531 121.274 12.0336C121.488 11.8132 121.656 11.5528 121.767 11.2678C121.878 10.9827 121.93 10.6787 121.92 10.3735C121.931 10.0664 121.88 9.76023 121.769 9.47311C121.658 9.18598 121.49 8.92374 121.274 8.70191C121.065 8.48558 120.812 8.315 120.532 8.20121C120.252 8.08742 119.95 8.03294 119.647 8.04131H116.906V12.7057H119.647Z" fill="#F8F9FA"/>
<path d="M135.544 20.6039L132.401 15.2587H130.072V20.6039H126.984V5.20901H133.225C133.905 5.20675 134.58 5.33695 135.209 5.59218C135.839 5.84741 136.411 6.22265 136.894 6.69643C137.377 7.17021 137.76 7.73324 138.021 8.35329C138.283 8.97335 138.419 9.63826 138.42 10.31C138.422 11.2558 138.134 12.18 137.593 12.961C137.055 13.7635 136.299 14.3997 135.41 14.7963L138.865 20.6039H135.544ZM130.061 8.04385V12.5991H133.225C133.508 12.6005 133.788 12.5411 134.046 12.4251C134.304 12.309 134.533 12.1391 134.718 11.927C135.131 11.4887 135.354 10.9085 135.34 10.31C135.354 9.7145 135.129 9.13783 134.715 8.70445C134.529 8.49573 134.299 8.32877 134.042 8.21483C133.785 8.10088 133.506 8.04258 133.225 8.04385H130.061Z" fill="#F8F9FA"/>
<path d="M153.615 18.5889C152.482 19.7157 151.034 20.4838 149.457 20.7952C147.879 21.1066 146.244 20.9471 144.759 20.3372C143.274 19.7272 142.007 18.6945 141.119 17.3707C140.231 16.047 139.763 14.4922 139.775 12.9049C139.754 11.8491 139.951 10.8001 140.355 9.82224C140.759 8.84435 141.361 7.95816 142.124 7.218C143.657 5.73258 145.72 4.90039 147.869 4.90039C150.018 4.90039 152.081 5.73258 153.615 7.218C154.382 7.9557 154.988 8.84111 155.394 9.81935C155.801 10.7976 156 11.8478 155.978 12.9049C156 13.9616 155.801 15.0115 155.395 15.9893C154.988 16.9671 154.382 17.852 153.615 18.5889V18.5889ZM144.275 16.521C145.242 17.4315 146.527 17.9396 147.863 17.9396C149.2 17.9396 150.485 17.4315 151.452 16.521C151.933 16.0488 152.31 15.4842 152.56 14.8622C152.811 14.2401 152.929 13.5739 152.907 12.9049C152.928 12.2338 152.81 11.5656 152.56 10.9412C152.31 10.3169 151.933 9.7497 151.452 9.27448C150.488 8.35865 149.202 7.84704 147.863 7.84704C146.525 7.84704 145.239 8.35865 144.275 9.27448C143.794 9.7496 143.417 10.3168 143.167 10.9411C142.916 11.5655 142.798 12.2338 142.819 12.9049C142.798 13.5739 142.916 14.2401 143.166 14.8622C143.417 15.4842 143.794 16.0488 144.275 16.521V16.521Z" fill="#F8F9FA"/>
<path d="M167.461 8.11275H161.221V11.7776H167.284V14.6785H161.221V20.6038H158.145V5.20898H167.458L167.461 8.11275Z" fill="#F8F9FA"/>
<path d="M169.695 5.20898H172.772V20.6038H169.695V5.20898Z" fill="#F8F9FA"/>
<path d="M186.004 5.20898V8.11275H181.79V20.6038H178.711V8.11275H174.52V5.20898H186.004Z" fill="#F8F9FA"/>
<path d="M126.953 36.8726C125.82 37.9994 124.372 38.7675 122.795 39.0788C121.218 39.3902 119.582 39.2308 118.097 38.6208C116.612 38.0109 115.345 36.9782 114.457 35.6544C113.57 34.3306 113.102 32.7759 113.113 31.1886C113.113 29.0686 113.967 27.0355 115.486 25.5365C117.005 24.0375 119.065 23.1953 121.213 23.1953C123.362 23.1953 125.422 24.0375 126.941 25.5365C128.46 27.0355 129.313 29.0686 129.313 31.1886C129.336 32.2451 129.138 33.2949 128.732 34.2727C128.326 35.2505 127.72 36.1355 126.953 36.8726ZM117.613 34.8075C118.323 35.5171 119.233 35.9998 120.224 36.193C121.215 36.3861 122.243 36.2808 123.173 35.8907C124.103 35.5006 124.892 34.8437 125.439 34.0052C125.986 33.1667 126.265 32.1854 126.24 31.1886C126.261 30.5179 126.143 29.85 125.893 29.2261C125.643 28.6022 125.265 28.0355 124.785 27.561C123.822 26.6432 122.535 26.1302 121.196 26.1302C119.857 26.1302 118.57 26.6432 117.607 27.561C117.126 28.0354 116.749 28.6021 116.499 29.226C116.248 29.8499 116.13 30.5179 116.152 31.1886C116.131 31.8584 116.25 32.5255 116.501 33.1481C116.752 33.7707 117.131 34.3355 117.613 34.8075V34.8075Z" fill="#F8F9FA"/>
<path d="M140.51 23.4922H143.586V38.887H141.258L134.564 29.4749V38.887H131.484V23.4922H133.813L140.507 32.8842L140.51 23.4922Z" fill="#F8F9FA"/>
<path d="M117.085 57.1683L112.719 41.7734H115.949L118.936 53.1875L122.19 41.7734H124.809L128.083 53.1875L131.07 41.7734H134.303L129.937 57.1683H126.445L123.502 47.0094L120.592 57.1683H117.085Z" fill="#F8F9FA"/>
<path d="M139.174 54.285H145.749V57.1859H136.098V41.791H145.635V44.6948H139.174V47.9662H145.08V50.824H139.174V54.285Z" fill="#F8F9FA"/>
<path d="M150.984 54.285H157.558V57.1859H147.91V41.791H157.457V44.6948H150.984V47.9662H156.889V50.824H150.984V54.285Z" fill="#F8F9FA"/>
<path d="M165.916 41.7754C166.918 41.7522 167.914 41.9382 168.838 42.3213C169.762 42.7044 170.593 43.276 171.277 43.9984C172.661 45.4953 173.428 47.4482 173.428 49.4742C173.428 51.5003 172.661 53.4532 171.277 54.95C170.593 55.6721 169.761 56.2432 168.837 56.6258C167.913 57.0085 166.918 57.194 165.916 57.1702H159.723V41.7754H165.916ZM165.916 54.2693C166.531 54.2913 167.143 54.1838 167.712 53.954C168.281 53.7242 168.794 53.3774 169.217 52.9366C170.064 52.0491 170.486 50.8974 170.486 49.4728C170.486 48.0482 170.064 46.8878 169.217 46.009C168.794 45.5686 168.281 45.2222 167.712 44.9929C167.143 44.7635 166.531 44.6566 165.916 44.6791H162.796V54.2837L165.916 54.2693Z" fill="#F8F9FA"/>
<path d="M75.6311 0.00140893C69.4604 0.0078059 63.4204 1.75661 58.2244 5.0413C53.0284 8.32599 48.8934 13.0094 46.3077 18.5384C46.0603 19.0669 45.8274 19.6011 45.6091 20.1468C45.3908 20.6925 45.1929 21.221 45.0067 21.7667C43.0567 27.5435 42.8205 33.7498 44.3256 39.6546C44.4595 40.1927 44.6099 40.7231 44.7767 41.2458C44.9397 41.78 45.1231 42.3028 45.3181 42.8284C47.8116 49.495 52.4818 55.1536 58.5929 58.9125C59.0994 59.2256 59.6233 59.5301 60.153 59.8144C60.6827 60.0987 61.2299 60.3888 61.78 60.633C63.0934 61.2547 64.4491 61.7854 65.8372 62.2213C66.7424 62.5085 67.665 62.7555 68.6022 62.9566C69.5394 63.1576 70.5319 63.3386 71.5127 63.4621C72.8765 63.6354 74.2502 63.7218 75.6253 63.7206C79.8908 63.7609 84.1221 62.9667 88.0748 61.3839C92.0274 59.8011 95.6231 57.461 98.6539 54.4989C101.685 51.5367 104.091 48.0113 105.733 44.1262C107.375 40.2411 108.221 36.0734 108.221 31.8639C108.221 27.6544 107.377 23.4865 105.735 19.6011C104.094 15.7158 101.688 12.1899 98.6581 9.2272C95.6277 6.26453 92.0325 3.92381 88.0802 2.34028C84.1278 0.756758 79.8966 -0.0381768 75.6311 0.00140893V0.00140893ZM84.6217 44.0376C89.4182 44.095 94.043 46.163 94.043 46.163C94.043 46.163 88.9351 47.5761 84.2142 46.9902C81.2056 46.5929 78.2459 45.8942 75.3808 44.905V44.905C76.3594 45.6868 77.2582 46.5613 78.0643 47.5158C78.8655 48.549 79.4709 49.7167 79.8513 50.9624C78.753 50.1964 77.797 49.249 77.0252 48.162C76.3661 47.1344 75.8151 46.0431 75.3808 44.905V44.905C75.5845 45.7867 75.6282 48.4664 75.6282 48.4664H75.081C75.0577 47.4526 75.3721 44.8935 75.3721 44.8906C74.9373 46.0281 74.3853 47.1186 73.7247 48.1448C72.9545 49.2321 71.9994 50.1795 70.9015 50.9451C71.282 49.6994 71.8874 48.5318 72.6886 47.4985C73.4947 46.544 74.3935 45.6696 75.3721 44.8877C72.506 45.8771 69.5453 46.5758 66.5357 46.9729C61.8149 47.5474 56.7069 46.1457 56.7069 46.1457C56.7069 46.1457 61.3317 44.0778 66.1283 44.0203C69.2306 44.0111 72.3264 44.2997 75.3721 44.882C71.2956 42.8677 67.4369 40.4503 63.8552 37.6671C58.2757 33.2554 54.4775 26.345 54.4775 26.345C54.4775 26.345 61.5762 29.1252 66.6493 34.1803C69.9057 37.4721 72.83 41.0687 75.3808 44.9193V44.9193C73.7894 39.0458 72.7863 33.0323 72.3859 26.9654C71.8445 17.4987 75.3808 7.83382 75.3808 7.83382C75.3808 7.83382 78.9142 17.4987 78.3786 26.951C77.9772 33.0181 76.9731 39.0316 75.3808 44.905V44.905C77.9324 41.0594 80.8566 37.4676 84.1123 34.1803C89.1766 29.1252 96.2725 26.368 96.2725 26.368C96.2725 26.368 92.4888 33.2784 86.8948 37.6901C83.314 40.4732 79.4562 42.8905 75.3808 44.905C78.4253 44.3209 81.5202 44.0304 84.6217 44.0376Z" fill="#FFDC3F"/>
</svg>
