<svg width="50" height="29" viewBox="0 0 50 29" fill="none" xmlns="http://www.w3.org/2000/svg">
<path d="M8.49718 19.5358C8.64024 23.5787 11.9331 27.0923 16.74 28.9471C16.0778 28.9798 15.393 28.9968 14.6936 28.9968C6.03479 28.9994 0 26.3786 0 24.0245C0 22.2873 3.29026 20.4024 8.49718 19.5358Z" fill="#017101"/>
<path d="M25.8608 27.9105C25.3628 28.104 24.8303 28.2835 24.2634 28.4491C24.1216 28.4909 23.9799 28.5301 23.8329 28.5706C23.6858 28.6112 23.568 28.6438 23.4262 28.6765L23.2938 28.7131C23.0288 28.7776 22.756 28.8403 22.4752 28.9013C21.7673 28.8362 21.0634 28.7341 20.3664 28.5955C14.3356 27.4047 9.91815 23.7081 9.86914 19.3384C9.86914 19.3135 9.86914 19.2887 9.86914 19.2639C9.86914 19.0586 9.87974 18.8547 9.89828 18.6547C11.4911 18.4651 13.0942 18.3712 14.6986 18.3737C16.1036 18.3732 17.5078 18.4443 18.9054 18.5868C18.9664 18.8234 19.0379 19.0586 19.1107 19.2913C20.1758 22.5839 22.2984 25.4448 25.1574 27.4413C25.384 27.6047 25.6211 27.7615 25.8608 27.9105Z" fill="#171923"/>
<path d="M27.4954 28.8033C26.6248 28.9216 25.7475 28.9858 24.8688 28.9954C24.7641 28.9954 24.6608 28.9954 24.5562 28.9954C23.8475 28.9954 23.1521 28.9614 22.4713 28.8974C21.7634 28.8322 21.0595 28.7301 20.3625 28.5915C14.3317 27.4007 9.91424 23.7041 9.86523 19.3344C9.86523 19.3096 9.86523 19.2847 9.86523 19.2599C9.86523 19.0547 9.87583 18.8508 9.89437 18.6508C9.91532 18.4141 9.95026 18.1789 9.99902 17.9462C10.7063 14.4706 14.2006 11.5687 18.9413 10.2642C18.2445 12.7492 18.1713 15.3643 18.728 17.8835C18.7783 18.1201 18.8353 18.3541 18.9015 18.5867C18.9678 18.8194 19.034 19.0586 19.1068 19.2913C20.1719 22.5839 22.2945 25.4448 25.1535 27.4412C25.3853 27.6046 25.6224 27.7615 25.8622 27.9105C26.1019 28.0595 26.3616 28.2137 26.6185 28.3549C26.9038 28.5135 27.196 28.663 27.4954 28.8033Z" fill="#017101"/>
<path d="M34.4208 0.000641207C31.6125 0.00355248 28.8637 0.799435 26.4989 2.2943C24.1342 3.78917 22.2524 5.92059 21.0756 8.43686C20.963 8.67737 20.8571 8.9205 20.7577 9.16886C20.6584 9.41721 20.5683 9.65772 20.4835 9.90608C19.5961 12.5351 19.4886 15.3596 20.1736 18.0469C20.2345 18.2918 20.3029 18.5331 20.3789 18.771C20.4531 19.0142 20.5365 19.2521 20.6253 19.4913C21.7601 22.5253 23.8855 25.1005 26.6667 26.8112C26.8972 26.9537 27.1356 27.0922 27.3766 27.2216C27.6177 27.351 27.8667 27.4831 28.1171 27.5942C28.7148 27.8771 29.3318 28.1187 29.9636 28.317C30.3755 28.4477 30.7954 28.5601 31.2219 28.6516C31.6484 28.7431 32.1001 28.8255 32.5465 28.8817C33.1672 28.9606 33.7923 28.9999 34.4181 28.9993C36.3594 29.0177 38.285 28.6563 40.0839 27.9359C41.8828 27.2156 43.5191 26.1506 44.8985 24.8025C46.2778 23.4545 47.3728 21.85 48.1201 20.0819C48.8675 18.3138 49.2523 16.4171 49.2525 14.5013C49.2527 12.5856 48.8682 10.6888 48.1212 8.92052C47.3742 7.15227 46.2795 5.54763 44.9004 4.19932C43.5213 2.851 41.8851 1.78573 40.0864 1.06507C38.2876 0.344402 36.362 -0.0173743 34.4208 0.000641207ZM38.5124 20.0416C40.6953 20.0677 42.8001 21.0088 42.8001 21.0088C42.8001 21.0088 40.4754 21.652 38.327 21.3853C36.9577 21.2045 35.6108 20.8865 34.3069 20.4363C34.7522 20.7922 35.1612 21.1901 35.5281 21.6245C35.8927 22.0948 36.1682 22.6261 36.3414 23.1931C35.8416 22.8444 35.4065 22.4133 35.0552 21.9186C34.7553 21.451 34.5045 20.9543 34.3069 20.4363C34.3996 20.8376 34.4194 22.0572 34.4194 22.0572H34.1704C34.1598 21.5957 34.3029 20.4311 34.3029 20.4298C34.105 20.9475 33.8538 21.4437 33.5532 21.9108C33.2027 22.4056 32.768 22.8368 32.2683 23.1852C32.4415 22.6183 32.717 22.0869 33.0816 21.6167C33.4485 21.1823 33.8575 20.7843 34.3029 20.4285C32.9985 20.8788 31.6511 21.1967 30.2815 21.3775C28.133 21.6389 25.8083 21.001 25.8083 21.001C25.8083 21.001 27.9131 20.0599 30.096 20.0337C31.5079 20.0295 32.9168 20.1609 34.3029 20.4259C32.4477 19.5092 30.6916 18.409 29.0615 17.1424C26.5223 15.1346 24.7937 11.9896 24.7937 11.9896C24.7937 11.9896 28.0244 13.2549 30.3331 15.5555C31.8151 17.0536 33.146 18.6904 34.3069 20.4429C33.5826 17.7698 33.1261 15.0331 32.9439 12.272C32.6975 7.96368 34.3069 3.56519 34.3069 3.56519C34.3069 3.56519 35.9149 7.96368 35.6712 12.2654C35.4885 15.0266 35.0315 17.7633 34.3069 20.4363C35.4681 18.6862 36.7989 17.0516 38.2806 15.5555C40.5854 13.2549 43.8147 12.0001 43.8147 12.0001C43.8147 12.0001 42.0927 15.1451 39.5469 17.1528C37.9173 18.4194 36.1616 19.5195 34.3069 20.4363C35.6924 20.1705 37.1009 20.0383 38.5124 20.0416Z" fill="#017101"/>
</svg>
