<svg width="20" height="20" viewBox="0 0 20 20" fill="none" xmlns="http://www.w3.org/2000/svg">
<path d="M10 0C15.523 0 20 4.477 20 10C20 15.523 15.523 20 10 20C4.477 20 0 15.523 0 10C0 4.477 4.477 0 10 0ZM14.442 6C14.061 6.007 13.476 6.207 10.663 7.362C8.68849 8.18631 6.71944 9.02366 4.756 9.874C4.276 10.063 4.026 10.247 4.003 10.427C3.959 10.773 4.463 10.88 5.097 11.084C5.614 11.25 6.31 11.444 6.672 11.452C7 11.459 7.366 11.325 7.77 11.052C10.53 9.212 11.953 8.283 12.043 8.263C12.106 8.249 12.193 8.231 12.253 8.283C12.312 8.335 12.306 8.433 12.299 8.46C12.249 8.671 9.658 10.998 9.509 11.151L9.437 11.223C8.887 11.766 8.332 12.121 9.29 12.744C10.156 13.307 10.66 13.666 11.55 14.244C12.12 14.612 12.567 15.049 13.155 14.996C13.426 14.971 13.705 14.72 13.848 13.97C14.183 12.2 14.843 8.362 14.995 6.78C15.0042 6.64878 14.9985 6.51694 14.978 6.387C14.9657 6.28209 14.9142 6.18569 14.834 6.117C14.713 6.019 14.525 5.999 14.442 6Z" fill="#40B3E0"/>
</svg>
