                    <svg
                      width="20"
                      height="20"
                      viewBox="0 0 20 20"
                      fill="none"
                      xmlns="http://www.w3.org/2000/svg"
                    >
                      <g clip-path="url(#clip0_857_19193)">
                        <path
                          d="M10.0007 0.833344C8.18766 0.833344 6.41538 1.37096 4.90793 2.37821C3.40048 3.38545 2.22556 4.81709 1.53176 6.49208C0.837956 8.16707 0.656426 10.0102 1.01012 11.7883C1.36382 13.5665 2.23686 15.1998 3.51884 16.4818C4.80082 17.7638 6.43417 18.6368 8.21233 18.9905C9.99049 19.3442 11.8336 19.1627 13.5086 18.4689C15.1836 17.7751 16.6152 16.6002 17.6225 15.0927C18.6297 13.5853 19.1673 11.813 19.1673 10C19.1673 7.56886 18.2016 5.23728 16.4825 3.5182C14.7634 1.79911 12.4318 0.833344 10.0007 0.833344Z"
                          fill="#FFDC3F"
                        />
                        <path
                          d="M10.0007 0.833344C8.18766 0.833344 6.41538 1.37096 4.90793 2.37821C3.40048 3.38545 2.22556 4.81709 1.53176 6.49208C0.837956 8.16707 0.656426 10.0102 1.01012 11.7883C1.36382 13.5665 2.23686 15.1998 3.51884 16.4818C4.80082 17.7638 6.43417 18.6368 8.21233 18.9905C9.99049 19.3442 11.8336 19.1627 13.5086 18.4689C15.1836 17.7751 16.6152 16.6002 17.6225 15.0927C18.6297 13.5853 19.1673 11.813 19.1673 10C19.1673 7.56886 18.2016 5.23728 16.4825 3.5182C14.7634 1.79911 12.4318 0.833344 10.0007 0.833344ZM10.0007 17.5C8.51729 17.5 7.06725 17.0601 5.83388 16.236C4.60051 15.4119 3.63922 14.2406 3.07156 12.8701C2.5039 11.4997 2.35538 9.99169 2.64477 8.53683C2.93415 7.08198 3.64846 5.7456 4.69735 4.69671C5.74625 3.64782 7.08262 2.93351 8.53748 2.64412C9.99234 2.35473 11.5003 2.50326 12.8708 3.07091C14.2412 3.63857 15.4126 4.59986 16.2367 5.83323C17.0608 7.0666 17.5007 8.51665 17.5007 10C17.5007 11.9891 16.7105 13.8968 15.304 15.3033C13.8974 16.7098 11.9898 17.5 10.0007 17.5Z"
                          fill="black"
                        />
                        <path
                          d="M15 9.64286V10.3846C15 11.7582 14.5549 12.8709 13.6648 13.7225C12.7747 14.5742 11.6249 15 10.2156 15C8.71349 15 7.46639 14.5192 6.47427 13.5577C5.49142 12.587 5 11.4057 5 10.0137C5 8.61264 5.48679 7.42674 6.46036 6.45604C7.44321 5.48535 8.65786 5 10.1043 5C11.013 5 11.8428 5.20604 12.5939 5.61813C13.3449 6.02106 13.9291 6.56136 14.3463 7.23901L12.7051 8.17308C12.4733 7.7793 12.121 7.45879 11.6481 7.21154C11.1845 6.96429 10.6653 6.84066 10.0904 6.84066C9.16319 6.84066 8.39824 7.14286 7.79555 7.74725C7.20213 8.34249 6.90542 9.09798 6.90542 10.0137C6.90542 10.9203 7.20677 11.6712 7.80946 12.2665C8.42142 12.8526 9.22809 13.1456 10.2295 13.1456C10.9713 13.1456 11.5832 12.9853 12.0654 12.6648C12.5568 12.3352 12.8906 11.8864 13.0668 11.3187H10.1182V9.64286H15Z"
                          fill="black"
                        />
                      </g>
                      <defs>
                        <clipPath id="clip0_857_19193">
                          <rect width="20" height="20" fill="white" />
                        </clipPath>
                      </defs>
                    </svg>