<svg width="24" height="24" viewBox="0 0 24 24" fill="none" xmlns="http://www.w3.org/2000/svg">
<circle cx="12" cy="12" r="12" fill="#1A4609"/>
<g clip-path="url(#clip0_980_18062)">
<path d="M18.356 4H4V14.3912C4.00183 15.8782 4.59334 17.3037 5.6448 18.3552C6.69625 19.4067 8.1218 19.9982 9.60878 20H20V12.8259V11.1741H15.5697V12.8259V13.378V15.5689H10.5762C10.0076 15.5682 9.46245 15.3419 9.06046 14.9398C8.65847 14.5376 8.43245 13.9924 8.43199 13.4238V8.43113H15.5689V9.51966H16.9793V7.01898H7.01898V13.4221C7.0199 14.3652 7.39497 15.2695 8.06187 15.9364C8.72877 16.6033 9.63303 16.9784 10.5762 16.9793H16.9793V12.8259H18.3542V18.356H9.60878C9.08809 18.3561 8.57248 18.2536 8.09141 18.0544C7.61033 17.8552 7.17322 17.5631 6.80503 17.195C6.43685 16.8268 6.14482 16.3897 5.94561 15.9086C5.7464 15.4275 5.64393 14.9119 5.64404 14.3912V5.64404H18.356V9.52225H20V4H18.356Z" fill="white"/>
<path d="M12.0808 8.91827C12.1091 9.11264 12.1656 9.30184 12.2486 9.47984C12.2817 9.54146 12.3009 9.60953 12.3049 9.67931C12.3089 9.7491 12.2977 9.81892 12.272 9.88393H12.2772C12.3216 9.84628 12.3521 9.79477 12.3637 9.7377C12.4085 9.89376 12.4085 10.0593 12.3637 10.2153C12.4132 10.1804 12.4509 10.1312 12.4719 10.0743C12.5584 10.3122 12.4632 10.6194 12.4632 10.6194C12.5098 10.5854 12.5477 10.5409 12.574 10.4896C12.6003 10.6561 12.5762 10.8267 12.5048 10.9794C12.5494 10.9551 12.5888 10.9221 12.6207 10.8825C12.6287 11.0671 12.6038 11.2517 12.5472 11.4276C12.596 11.4048 12.635 11.3652 12.6571 11.316C12.6709 11.5557 12.5152 11.8724 12.5152 11.8724C12.5727 11.8398 12.6252 11.799 12.6709 11.7512C12.6483 11.936 12.5828 12.1129 12.4797 12.2678C12.5434 12.2635 12.6048 12.2426 12.6579 12.2072C12.6372 12.5032 12.4053 12.7818 12.4053 12.7818C12.4608 12.7677 12.5119 12.74 12.5541 12.7013C12.5541 12.7013 12.1336 13.4091 12.0808 13.8642C12.0185 13.416 11.5789 12.7091 11.5789 12.7091C11.6329 12.7481 11.695 12.7744 11.7606 12.7861C11.7606 12.7861 11.5279 12.5032 11.508 12.2072C11.5595 12.242 11.6191 12.2628 11.681 12.2678C11.5771 12.1142 11.5105 11.9385 11.4863 11.7547C11.5339 11.8021 11.5881 11.8423 11.6473 11.8741C11.6473 11.8741 11.4907 11.5574 11.5045 11.3177C11.5265 11.3674 11.5655 11.4075 11.6144 11.4311C11.5577 11.2552 11.5331 11.0705 11.5417 10.8859C11.5736 10.9256 11.613 10.9585 11.6577 10.9828C11.5855 10.8291 11.5614 10.6573 11.5884 10.4896C11.615 10.5413 11.6536 10.5858 11.7009 10.6194C11.7009 10.6194 11.6049 10.3122 11.6931 10.0743C11.7139 10.131 11.7513 10.1802 11.8004 10.2153C11.7556 10.0593 11.7556 9.89376 11.8004 9.7377C11.8125 9.7946 11.8429 9.84598 11.887 9.88393H11.8921C11.868 9.81798 11.8577 9.74775 11.8618 9.67764C11.866 9.60752 11.8846 9.53901 11.9164 9.47638C12.0057 9.30232 12.0615 9.11299 12.0808 8.91827Z" fill="white"/>
<path d="M15.3667 10.5762C15.2568 10.7241 15.1693 10.8873 15.1071 11.0607C15.0884 11.1244 15.0559 11.1831 15.012 11.2328C14.968 11.2824 14.9136 11.3218 14.8527 11.348H14.8579C14.9123 11.3516 14.9664 11.3373 15.0119 11.3073C14.9386 11.4413 14.8292 11.5519 14.6961 11.6266C14.7522 11.636 14.8098 11.6281 14.8613 11.6041C14.7627 11.8213 14.4936 11.9615 14.4936 11.9615C14.5457 11.9697 14.599 11.9658 14.6493 11.9502C14.5562 12.0781 14.4269 12.1752 14.2781 12.2289C14.3237 12.2429 14.3718 12.2473 14.4192 12.2418C14.3022 12.3704 14.163 12.4769 14.0082 12.5559C14.0556 12.5737 14.1078 12.5737 14.1553 12.5559C14.003 12.7221 13.6906 12.8259 13.6906 12.8259C13.7505 12.8431 13.8126 12.851 13.8749 12.8493C13.7366 12.9558 13.5755 13.0287 13.4042 13.0621C13.4494 13.101 13.504 13.1276 13.5625 13.1391C13.3514 13.3226 13.0122 13.3537 13.0122 13.3537C13.0587 13.3815 13.1113 13.3973 13.1654 13.3996C13.1654 13.3996 12.4143 13.5891 12.082 13.8573C12.3416 13.5181 12.5147 12.7558 12.5147 12.7558C12.5248 12.818 12.5487 12.8772 12.5848 12.9289C12.5848 12.9289 12.615 12.5897 12.7985 12.3786C12.8102 12.4375 12.837 12.4924 12.8764 12.5378C12.9083 12.3668 12.9797 12.2056 13.0849 12.0671C13.0837 12.1296 13.0916 12.192 13.1083 12.2522C13.1083 12.2522 13.2147 11.9373 13.3826 11.7876C13.3654 11.8351 13.3654 11.8871 13.3826 11.9347C13.4631 11.7814 13.5703 11.6436 13.6992 11.528C13.6942 11.5757 13.6986 11.6239 13.7122 11.6699C13.7663 11.5209 13.8636 11.3913 13.9917 11.2978C13.9759 11.3481 13.9717 11.4014 13.9796 11.4536C13.9796 11.4536 14.1206 11.1853 14.337 11.0858C14.3132 11.1374 14.3056 11.1951 14.3153 11.2511C14.3899 11.1181 14.5002 11.0087 14.6338 10.9353C14.6038 10.9811 14.5898 11.0355 14.594 11.0902C14.594 11.0902 14.594 11.0902 14.594 11.0953C14.6215 11.0347 14.6612 10.9803 14.7106 10.9357C14.76 10.891 14.8181 10.857 14.8812 10.8358C15.0581 10.7808 15.2228 10.6927 15.3667 10.5762Z" fill="white"/>
<path d="M15.1616 13.8643C15.0416 13.8816 14.925 13.9169 14.8155 13.969C14.7767 13.9898 14.7338 14.0019 14.6899 14.0045C14.646 14.007 14.602 13.9999 14.5611 13.9837C14.585 14.0111 14.6172 14.0299 14.6528 14.0373C14.5556 14.0655 14.4523 14.0655 14.3551 14.0373C14.3765 14.068 14.4067 14.0915 14.4417 14.1048C14.3303 14.1348 14.2128 14.133 14.1025 14.0996C14.123 14.1277 14.1496 14.1508 14.1803 14.1671C14.0768 14.1834 13.9707 14.1683 13.8758 14.1238C13.8908 14.1519 13.9114 14.1767 13.9363 14.1965C13.8212 14.2015 13.706 14.1859 13.5963 14.1507C13.6106 14.1809 13.6351 14.2051 13.6655 14.219C13.5454 14.2145 13.4275 14.1851 13.3194 14.1325C13.3395 14.1687 13.3648 14.2016 13.3947 14.2303C13.28 14.2153 13.1704 14.1738 13.0745 14.1091C13.0771 14.1488 13.0902 14.187 13.1126 14.2199C12.9812 14.2006 12.8574 14.1462 12.7544 14.0624C12.7631 14.0972 12.7803 14.1293 12.8045 14.1559C12.8045 14.1559 12.3632 13.8963 12.082 13.8625C12.3615 13.8236 12.8019 13.5493 12.8019 13.5493C12.7779 13.5831 12.7616 13.6218 12.7544 13.6626C12.8574 13.5789 12.9812 13.5245 13.1126 13.5052C13.0902 13.538 13.0771 13.5763 13.0745 13.6159C13.1704 13.5513 13.28 13.5098 13.3947 13.4948C13.3648 13.5234 13.3395 13.5564 13.3194 13.5926C13.4275 13.54 13.5454 13.5105 13.6655 13.506C13.6351 13.5199 13.6106 13.5442 13.5963 13.5744C13.706 13.5391 13.8212 13.5236 13.9363 13.5285C13.9114 13.5484 13.8908 13.5731 13.8758 13.6012C13.9707 13.5568 14.0768 13.5417 14.1803 13.5579C14.1496 13.5742 14.123 13.5973 14.1025 13.6254C14.2128 13.592 14.3303 13.5902 14.4417 13.6202C14.4067 13.6335 14.3765 13.6571 14.3551 13.6877C14.4523 13.6595 14.5556 13.6595 14.6528 13.6877C14.6172 13.6952 14.585 13.714 14.5611 13.7414C14.6023 13.7264 14.646 13.72 14.6898 13.7226C14.7335 13.7251 14.7763 13.7365 14.8155 13.7561C14.923 13.8137 15.0404 13.8504 15.1616 13.8643Z" fill="white"/>
<path d="M13.1617 14.9415C13.113 14.9053 13.0594 14.8761 13.0025 14.855C12.9813 14.8486 12.9618 14.8374 12.9455 14.8225C12.9292 14.8075 12.9164 14.789 12.9082 14.7685C12.9073 14.7865 12.9122 14.8044 12.922 14.8195C12.8777 14.7956 12.8411 14.7596 12.8164 14.7157C12.8135 14.7342 12.8159 14.7531 12.8234 14.7702C12.7738 14.7416 12.7334 14.6996 12.7065 14.6491C12.7024 14.6658 12.7024 14.6834 12.7065 14.7001C12.6644 14.6696 12.6325 14.6271 12.6148 14.5781C12.6116 14.5935 12.6116 14.6094 12.6148 14.6248C12.5725 14.5862 12.5376 14.5402 12.5119 14.489C12.506 14.5046 12.506 14.5218 12.5119 14.5375C12.4728 14.4932 12.4433 14.4414 12.4253 14.3852C12.4197 14.4049 12.4171 14.4253 12.4175 14.4457C12.3823 14.4004 12.3583 14.3473 12.3475 14.2908C12.3346 14.3057 12.3257 14.3236 12.3215 14.3428C12.2825 14.2898 12.2583 14.2273 12.2514 14.1619C12.2422 14.1771 12.2368 14.1943 12.2358 14.2121C12.2027 14.0886 12.1501 13.9712 12.0801 13.8643C12.1927 13.9305 12.3151 13.9787 12.4426 14.007C12.4223 14.0103 12.4031 14.0183 12.3864 14.0304C12.4519 14.0369 12.5145 14.0611 12.5672 14.1005C12.5479 14.1042 12.5299 14.1132 12.5153 14.1264C12.5716 14.1372 12.6246 14.1609 12.6702 14.1957C12.6497 14.1953 12.6293 14.1979 12.6096 14.2034C12.666 14.2217 12.7181 14.2511 12.7628 14.29C12.7471 14.2845 12.73 14.2845 12.7143 14.29C12.7651 14.3163 12.8108 14.3515 12.8493 14.3938C12.8339 14.3906 12.818 14.3906 12.8026 14.3938C12.8515 14.4115 12.894 14.4434 12.9246 14.4855C12.9078 14.4816 12.8903 14.4816 12.8735 14.4855C12.924 14.5128 12.9659 14.5536 12.9947 14.6032C12.9777 14.595 12.9586 14.5926 12.9402 14.5963C12.9842 14.6204 13.0202 14.6568 13.044 14.701C13.0288 14.6915 13.0109 14.6869 12.993 14.688C13.0132 14.6968 13.0314 14.7097 13.0463 14.7259C13.0612 14.7422 13.0725 14.7614 13.0795 14.7823C13.0972 14.8398 13.1251 14.8938 13.1617 14.9415Z" fill="white"/>
<path d="M11 14.9415C11.0369 14.8933 11.0661 14.8396 11.0865 14.7823C11.0931 14.7611 11.1042 14.7415 11.1192 14.7251C11.1341 14.7086 11.1525 14.6957 11.1731 14.6871C11.1551 14.6861 11.1373 14.6906 11.122 14.7001C11.1462 14.6562 11.1822 14.62 11.2258 14.5954C11.2077 14.5919 11.1889 14.5944 11.1722 14.6023C11.2004 14.5526 11.2421 14.5118 11.2925 14.4847C11.2757 14.4808 11.2582 14.4808 11.2414 14.4847C11.2705 14.4454 11.3101 14.4151 11.3556 14.3973C11.3405 14.394 11.3249 14.394 11.3098 14.3973C11.3481 14.3547 11.3938 14.3195 11.4448 14.2934C11.4291 14.2879 11.412 14.2879 11.3963 14.2934C11.4409 14.2544 11.493 14.225 11.5495 14.2069C11.5295 14.2013 11.5088 14.1987 11.488 14.1991C11.5339 14.1644 11.5872 14.1407 11.6438 14.1299C11.6288 14.1167 11.6106 14.1078 11.591 14.1039C11.6438 14.0646 11.7063 14.0403 11.7718 14.0339C11.7567 14.0245 11.7394 14.0192 11.7216 14.0183C11.8492 13.9869 11.9708 13.9349 12.0816 13.8643C12.0158 13.9771 11.9676 14.0994 11.9388 14.2268C11.9356 14.2066 11.9279 14.1874 11.9163 14.1706C11.9094 14.2361 11.8849 14.2986 11.8454 14.3514C11.8418 14.3322 11.8331 14.3143 11.8203 14.2995C11.809 14.3558 11.7851 14.4088 11.7502 14.4544C11.7506 14.4339 11.748 14.4135 11.7424 14.3938C11.7244 14.45 11.695 14.5019 11.6559 14.5461C11.6617 14.5305 11.6617 14.5133 11.6559 14.4976C11.6298 14.5486 11.5949 14.5946 11.5529 14.6335C11.5557 14.618 11.5557 14.6022 11.5529 14.5868C11.535 14.6358 11.5028 14.6783 11.4603 14.7088C11.4642 14.692 11.4642 14.6745 11.4603 14.6577C11.433 14.7082 11.3923 14.7501 11.3427 14.7789C11.3508 14.7619 11.3533 14.7428 11.3496 14.7244C11.325 14.768 11.2888 14.804 11.2449 14.8282C11.2549 14.8132 11.2595 14.7951 11.2579 14.7771C11.2489 14.7973 11.236 14.8153 11.2197 14.8302C11.2035 14.8451 11.1844 14.8565 11.1635 14.8637C11.1047 14.8793 11.0492 14.9057 11 14.9415Z" fill="white"/>
<path d="M9 13.8642C9.1214 13.8471 9.23953 13.8118 9.35044 13.7595C9.38906 13.7387 9.43177 13.7266 9.47557 13.7241C9.51938 13.7215 9.5632 13.7286 9.60397 13.7448C9.58234 13.7068 9.51744 13.6912 9.51744 13.6912C9.61467 13.6631 9.71787 13.6631 9.8151 13.6912C9.79351 13.6607 9.76341 13.6372 9.72857 13.6237C9.84019 13.5937 9.95797 13.5955 10.0686 13.6289C10.0479 13.6007 10.021 13.5776 9.98989 13.5614C10.0937 13.5452 10.2001 13.5603 10.2953 13.6047C10.28 13.5768 10.2594 13.5521 10.2348 13.532C10.3499 13.5271 10.465 13.5427 10.5748 13.5778C10.5603 13.5475 10.5355 13.5232 10.5047 13.5095C10.6249 13.514 10.7427 13.5434 10.8508 13.596C10.8306 13.5597 10.8049 13.5268 10.7747 13.4982C10.8897 13.5131 10.9996 13.5546 11.0957 13.6194C11.0927 13.5798 11.0796 13.5417 11.0576 13.5086C11.189 13.5282 11.3127 13.5825 11.4159 13.6661C11.4067 13.6314 11.3895 13.5994 11.3657 13.5726C11.3657 13.5726 11.8061 13.8322 12.0873 13.866C11.8079 13.9049 11.3674 14.1792 11.3674 14.1792C11.3919 14.1456 11.4085 14.1068 11.4159 14.0659C11.3127 14.1494 11.189 14.2038 11.0576 14.2233C11.0796 14.1903 11.0927 14.1522 11.0957 14.1126C10.9996 14.1774 10.8897 14.2188 10.7747 14.2337C10.8049 14.2052 10.8306 14.1722 10.8508 14.1359C10.7427 14.1885 10.6249 14.218 10.5047 14.2225C10.5355 14.2087 10.5603 14.1845 10.5748 14.1541C10.465 14.1893 10.3499 14.2048 10.2348 14.2C10.2594 14.1799 10.28 14.1552 10.2953 14.1273C10.2001 14.1717 10.0937 14.1867 9.98989 14.1706C10.021 14.1544 10.0479 14.1313 10.0686 14.1031C9.95797 14.1364 9.84019 14.1382 9.72857 14.1083C9.76341 14.0947 9.79351 14.0713 9.8151 14.0408C9.71787 14.0689 9.61467 14.0689 9.51744 14.0408C9.51744 14.0408 9.58666 14.0252 9.60397 13.9871C9.56294 14.0021 9.51928 14.0085 9.47568 14.006C9.43208 14.0034 9.38946 13.992 9.35044 13.9724C9.24139 13.9148 9.12254 13.8781 9 13.8642Z" fill="white"/>
<path d="M8.79492 10.5762C8.90476 10.7241 8.99223 10.8873 9.05451 11.0607C9.07389 11.1248 9.10721 11.1838 9.15209 11.2335C9.19698 11.2831 9.2523 11.3223 9.31409 11.348H9.3089C9.25423 11.3515 9.19989 11.3373 9.15402 11.3073C9.22728 11.4413 9.33672 11.5519 9.46984 11.6266C9.41403 11.6359 9.35672 11.628 9.30544 11.6041C9.40235 11.8205 9.67146 11.9606 9.67146 11.9606C9.61907 11.9687 9.56554 11.9648 9.51484 11.9494C9.6075 12.077 9.73616 12.174 9.88432 12.228C9.83843 12.2421 9.7901 12.2465 9.74241 12.241C9.85957 12.3694 9.99877 12.4757 10.1534 12.5551C10.106 12.5727 10.0538 12.5727 10.0063 12.5551C10.156 12.7229 10.471 12.8294 10.471 12.8294C10.4111 12.8465 10.3489 12.8544 10.2867 12.8527C10.4248 12.9594 10.586 13.0323 10.7574 13.0656C10.7119 13.1046 10.657 13.1312 10.5982 13.1426C10.8093 13.3261 11.1485 13.3572 11.1485 13.3572C11.1023 13.3849 11.05 13.4007 10.9962 13.4031C10.9962 13.4031 11.7473 13.5926 12.0787 13.8608C11.8191 13.5216 11.646 12.7593 11.646 12.7593C11.6359 12.8215 11.612 12.8806 11.576 12.9323C11.576 12.9323 11.5448 12.5932 11.3622 12.382C11.3505 12.441 11.3237 12.4958 11.2843 12.5412C11.251 12.3698 11.1785 12.2084 11.0724 12.0697C11.0735 12.1322 11.0654 12.1947 11.0481 12.2548C11.0481 12.2548 10.9443 11.9373 10.7756 11.7876C10.7933 11.835 10.7933 11.8872 10.7756 11.9347C10.6961 11.7816 10.59 11.6439 10.4623 11.528C10.4679 11.5756 10.4638 11.6239 10.4502 11.6699C10.3961 11.5209 10.2988 11.3913 10.1707 11.2978C10.1861 11.3482 10.19 11.4015 10.182 11.4536C10.182 11.4536 10.0418 11.1853 9.82548 11.0858C9.84928 11.1374 9.85682 11.1951 9.84711 11.2511C9.77239 11.118 9.66175 11.0085 9.52782 10.9353C9.55775 10.9811 9.57202 11.0355 9.56849 11.0902C9.56849 11.0902 9.56849 11.0902 9.56849 11.0953C9.54087 11.0343 9.50082 10.9797 9.45091 10.935C9.401 10.8903 9.34232 10.8565 9.27862 10.8358C9.10248 10.7805 8.93837 10.6924 8.79492 10.5762Z" fill="white"/>
</g>
<defs>
<clipPath id="clip0_980_18062">
<rect width="16" height="16" fill="white" transform="translate(4 4)"/>
</clipPath>
</defs>
</svg>
