<svg width="24" height="24" viewBox="0 0 24 24" fill="none" xmlns="http://www.w3.org/2000/svg">
<circle cx="12" cy="12" r="12" fill="#FF060A"/>
<path d="M19.9998 9.82015C19.2498 9.12766 18.2123 8.07017 17.3673 7.32018L17.3173 7.28518C17.2341 7.21838 17.1403 7.16599 17.0398 7.13018C15.0024 6.75019 5.51999 4.97771 5.335 5.00021C5.28316 5.00747 5.23361 5.02627 5.19 5.05521L5.1425 5.09271C5.08401 5.15211 5.03959 5.22387 5.0125 5.30271L5 5.33521V5.51271V5.54021C6.06749 8.51267 10.2824 18.25 11.1124 20.535C11.1624 20.69 11.2574 20.985 11.4349 21H11.4749C11.5699 21 11.9749 20.465 11.9749 20.465C11.9749 20.465 19.2148 11.6851 19.9473 10.7501C20.0421 10.635 20.1258 10.5111 20.1973 10.3801C20.2155 10.2777 20.2069 10.1723 20.1723 10.0741C20.1377 9.97599 20.0783 9.88849 19.9998 9.82015ZM13.8324 10.8426L16.9223 8.28017L18.7348 9.95015L13.8324 10.8426ZM12.6324 10.6751L7.31247 6.31519L15.9199 7.90267L12.6324 10.6751ZM13.1124 11.8176L18.5573 10.9401L12.3324 18.44L13.1124 11.8176ZM6.58998 6.75019L12.1874 11.5001L11.3774 18.445L6.58998 6.75019Z" fill="white"/>
</svg>
