<svg width="204" height="1239" viewBox="0 0 204 1239" fill="none" xmlns="http://www.w3.org/2000/svg">
<path d="M48.1395 1238.67C57.4077 1208.98 96.0171 1082.2 123.078 943.375C163.72 734.865 160.052 594.256 112.422 536.664C63.157 477.09 51.0637 367.309 76.4894 210.294C92.3494 112.309 118.717 25.7726 126.944 0L132.148 0C124.615 23.5423 97.5535 111.417 81.3961 211.137C64.0987 318.043 56.0695 460.734 116.239 533.492C143.002 565.857 156.384 621.367 156.384 699.478C156.384 765.198 146.868 846.976 127.886 944.317C101.221 1081.16 63.3057 1206.31 53.2445 1238.62H48.0404L48.1395 1238.67Z" fill="#1C1005"/>
<path d="M152.816 652.843C153.312 649.622 152.519 646.846 150.338 644.418C149.049 642.98 146.968 642.385 145.084 642.98L140.426 644.319L144.539 658.295L149.149 656.957C151.032 656.412 152.469 654.826 152.767 652.893L152.816 652.843Z" fill="url(#paint0_linear_206_1586)"/>
<path d="M129.571 671.626C140.425 668.454 147.215 659.037 144.737 650.611C142.259 642.185 131.454 637.923 120.6 641.095C109.746 644.267 93.8364 660.474 95.2242 665.133C96.9093 670.882 118.717 674.798 129.571 671.626Z" fill="url(#paint1_linear_206_1586)" style="mix-blend-mode:hard-light"/>
<path d="M140.772 862.04C141.813 858.968 141.466 856.043 139.682 853.317C138.641 851.682 136.708 850.79 134.726 851.038L129.918 851.632L131.702 866.055L136.51 865.46C138.443 865.212 140.128 863.924 140.723 862.04H140.772Z" fill="url(#paint2_linear_206_1586)"/>
<path d="M114.801 876.81C126.002 875.423 134.23 867.245 133.189 858.522C132.148 849.799 122.186 843.851 110.935 845.239C99.7343 846.627 81.3961 860.009 81.9909 864.816C82.7343 870.764 103.6 878.198 114.801 876.81Z" fill="url(#paint3_linear_206_1586)" style="mix-blend-mode:hard-light"/>
<path d="M99.486 1059.35C100.527 1056.28 100.13 1053.35 98.3956 1050.63C97.3548 1048.99 95.4219 1048.1 93.4393 1048.35L88.6318 1048.94L90.416 1063.37L95.2236 1062.77C97.1566 1062.52 98.8417 1061.24 99.486 1059.35Z" fill="url(#paint4_linear_206_1586)" style="mix-blend-mode:hard-light"/>
<g style="mix-blend-mode:screen">
<path d="M73.5153 1074.12C84.7165 1072.73 92.9439 1064.56 91.9031 1055.83C90.8127 1047.11 80.8506 1041.16 69.6494 1042.55C58.4483 1043.94 40.1101 1057.32 40.7049 1062.13C41.4483 1068.08 62.3142 1075.51 73.5153 1074.12Z" fill="url(#paint5_linear_206_1586)" style="mix-blend-mode:hard-light"/>
</g>
<path d="M58.7954 1210.76C59.8362 1207.69 59.4893 1204.77 57.705 1202.04C56.6642 1200.41 54.7312 1199.51 52.7487 1199.76L47.9412 1200.36L49.7254 1214.78L54.533 1214.18C56.4659 1213.94 58.1511 1212.65 58.7458 1210.76H58.7954Z" fill="url(#paint6_linear_206_1586)"/>
<path d="M32.8246 1225.54C44.0257 1224.15 52.2531 1215.97 51.2123 1207.25C50.1715 1198.52 40.2094 1192.58 28.9587 1193.96C17.7575 1195.35 -0.580637 1208.73 0.0141152 1213.54C0.757555 1219.49 21.6234 1226.92 32.8246 1225.54Z" fill="url(#paint7_linear_206_1586)" style="mix-blend-mode:hard-light"/>
<path d="M75.0508 455.181C76.0916 452.108 75.7446 449.184 73.9604 446.458C72.9196 444.822 70.9866 443.93 69.0041 444.178L64.1965 444.773L65.9808 459.196L70.7884 458.601C72.7213 458.353 74.4064 457.064 75.0012 455.181H75.0508Z" fill="url(#paint8_linear_206_1586)"/>
<path d="M49.0799 469.952C60.2811 468.564 68.5085 460.386 67.4676 451.663C66.4268 442.94 56.4647 436.992 45.214 438.38C34.0129 439.768 15.6747 453.15 16.2694 457.957C17.0129 463.905 37.8787 471.339 49.0799 469.952Z" fill="url(#paint9_linear_206_1586)" style="mix-blend-mode:hard-light"/>
<path d="M69.9457 248.902C71.8291 246.275 72.3743 243.401 71.5317 240.229C71.0361 238.345 69.4501 236.908 67.5172 236.561L62.7592 235.669L60.0828 249.993L64.8408 250.885C66.7737 251.232 68.7562 250.488 69.8962 248.902H69.9457Z" fill="url(#paint10_linear_206_1586)"/>
<path d="M40.7047 255.195C51.8068 257.277 62.1158 251.924 63.7514 243.3C65.3374 234.676 57.6552 226.003 46.5531 223.921C35.4511 221.84 13.9409 229.076 13.0488 233.884C11.9584 239.781 29.6523 253.163 40.7543 255.195H40.7047Z" fill="url(#paint11_linear_206_1586)" style="mix-blend-mode:hard-light"/>
<path d="M104.194 74.9899C106.821 73.1065 108.259 70.5293 108.457 67.3077C108.556 65.3748 107.515 63.4914 105.78 62.5497L101.568 60.2202L94.5297 72.9579L98.7425 75.2873C100.477 76.229 102.608 76.1298 104.194 74.9899Z" fill="url(#paint12_linear_206_1586)"/>
<path d="M74.5058 71.7187C84.4183 77.1706 95.8673 75.3863 100.13 67.7041C104.392 60.0219 99.8323 49.3659 89.9197 43.8645C80.0072 38.4126 57.3075 38.4621 54.9781 42.7245C52.0539 47.9782 64.6428 66.2668 74.5058 71.7187Z" fill="url(#paint13_linear_206_1586)" style="mix-blend-mode:hard-light"/>
<path d="M92.5489 144.774C89.823 146.559 88.2865 149.037 87.9396 152.258C87.7413 154.191 88.683 156.124 90.3681 157.116L94.4818 159.643L102.065 147.253L97.9512 144.725C96.2661 143.684 94.1349 143.684 92.4993 144.725L92.5489 144.774Z" fill="url(#paint14_linear_206_1586)"/>
<path d="M122.089 149.384C112.474 143.486 100.926 144.775 96.3169 152.259C91.7075 159.743 95.8212 170.597 105.436 176.495C115.052 182.393 137.751 183.334 140.279 179.221C143.401 174.116 131.705 155.282 122.04 149.384H122.089Z" fill="url(#paint15_linear_206_1586)" style="mix-blend-mode:hard-light"/>
<path d="M65.8331 342.033C63.4541 344.213 62.3142 346.939 62.5124 350.161C62.6116 352.094 63.9002 353.828 65.6844 354.572L70.1451 356.406L75.6465 342.925L71.1859 341.091C69.3521 340.347 67.2704 340.694 65.8331 341.983V342.033Z" fill="url(#paint16_linear_206_1586)"/>
<path d="M95.6707 341.784C85.213 337.521 74.0118 340.644 70.6911 348.772C67.3704 356.9 73.1693 366.961 83.627 371.224C94.0847 375.486 116.636 372.76 118.47 368.3C120.749 362.749 106.128 346.096 95.6707 341.784Z" fill="url(#paint17_linear_206_1586)" style="mix-blend-mode:hard-light"/>
<path d="M112.276 532.501C112.276 535.772 113.564 538.399 116.092 540.431C117.628 541.67 119.71 541.868 121.494 541.025L125.856 538.944L119.561 525.81L115.2 527.891C113.416 528.734 112.276 530.518 112.276 532.501Z" fill="url(#paint18_linear_206_1586)"/>
<path d="M132.201 510.247C121.991 515.104 116.836 525.512 120.603 533.442C124.419 541.372 135.72 543.85 145.93 538.944C156.14 534.087 169.224 515.55 167.142 511.139C164.565 505.737 142.411 505.34 132.201 510.247Z" fill="url(#paint19_linear_206_1586)" style="mix-blend-mode:hard-light"/>
<path d="M150.982 751.522C148.603 753.702 147.513 756.428 147.711 759.699C147.81 761.682 149.099 763.367 150.933 764.11L155.393 765.895L160.796 752.414L156.335 750.629C154.501 749.886 152.42 750.233 150.982 751.571V751.522Z" fill="url(#paint20_linear_206_1586)"/>
<path d="M180.82 751.125C170.313 746.912 159.161 750.134 155.89 758.262C152.619 766.39 158.467 776.452 168.975 780.615C179.482 784.828 201.983 781.953 203.768 777.443C205.998 771.842 191.278 755.288 180.82 751.076V751.125Z" fill="url(#paint21_linear_206_1586)" style="mix-blend-mode:hard-light"/>
<path d="M126.103 949.771C123.377 951.555 121.84 954.033 121.493 957.255C121.295 959.188 122.237 961.071 123.922 962.112L128.036 964.64L135.668 952.249L131.555 949.722C129.869 948.681 127.738 948.681 126.103 949.722V949.771Z" fill="url(#paint22_linear_206_1586)"/>
<path d="M155.643 954.381C146.028 948.483 134.48 949.771 129.871 957.255C125.261 964.739 129.375 975.593 138.99 981.541C148.605 987.439 171.305 988.381 173.833 984.267C176.955 979.162 165.258 960.328 155.594 954.43L155.643 954.381Z" fill="url(#paint23_linear_206_1586)" style="mix-blend-mode:hard-light"/>
<path d="M80.008 1132.56C77.2821 1134.34 75.7456 1136.82 75.3987 1140.04C75.2004 1141.97 76.1421 1143.91 77.8273 1144.9L81.941 1147.43L89.5736 1135.04L85.4599 1132.51C83.7748 1131.47 81.6436 1131.47 80.008 1132.51V1132.56Z" fill="url(#paint24_linear_206_1586)"/>
<path d="M109.498 1137.17C99.8825 1131.27 88.3344 1132.56 83.7251 1140.04C79.1157 1147.53 83.2294 1158.38 92.8446 1164.28C102.46 1170.18 125.159 1171.12 127.687 1167C130.81 1161.9 119.113 1143.06 109.448 1137.17H109.498Z" fill="url(#paint25_linear_206_1586)" style="mix-blend-mode:hard-light"/>
<defs>
<linearGradient id="paint0_linear_206_1586" x1="145.358" y1="642.845" x2="149.457" y2="656.828" gradientUnits="userSpaceOnUse">
<stop offset="0.03" stop-color="#030303"/>
<stop offset="0.21"/>
<stop offset="0.41" stop-color="#121212"/>
<stop offset="0.6" stop-color="#292929"/>
<stop offset="0.86"/>
<stop offset="0.99" stop-color="#0F0F0F"/>
</linearGradient>
<linearGradient id="paint1_linear_206_1586" x1="130.432" y1="672.944" x2="113.955" y2="635.246" gradientUnits="userSpaceOnUse">
<stop stop-color="#2DFF2D"/>
<stop offset="0.32" stop-color="#017101"/>
<stop offset="0.3201" stop-color="#017101"/>
<stop offset="0.609375" stop-color="#3FC43F"/>
<stop offset="0.75" stop-color="#017101" stop-opacity="0.86"/>
<stop offset="0.91" stop-color="#017101"/>
<stop offset="1" stop-color="#017101"/>
</linearGradient>
<linearGradient id="paint2_linear_206_1586" x1="135.247" y1="850.914" x2="137.018" y2="865.377" gradientUnits="userSpaceOnUse">
<stop offset="0.03" stop-color="#030303"/>
<stop offset="0.21"/>
<stop offset="0.41" stop-color="#121212"/>
<stop offset="0.6" stop-color="#292929"/>
<stop offset="0.86"/>
<stop offset="0.99" stop-color="#0F0F0F"/>
</linearGradient>
<linearGradient id="paint3_linear_206_1586" x1="118.11" y1="877.161" x2="102.54" y2="839.809" gradientUnits="userSpaceOnUse">
<stop stop-color="#2DFF2D"/>
<stop offset="0.32" stop-color="#017101"/>
<stop offset="0.3201" stop-color="#017101"/>
<stop offset="0.609375" stop-color="#3FC43F"/>
<stop offset="0.75" stop-color="#017101" stop-opacity="0.86"/>
<stop offset="0.91" stop-color="#017101"/>
<stop offset="1" stop-color="#017101"/>
</linearGradient>
<linearGradient id="paint4_linear_206_1586" x1="96.6783" y1="1063.45" x2="86.4241" y2="1051.83" gradientUnits="userSpaceOnUse">
<stop stop-color="#2DFF2D"/>
<stop offset="0.32" stop-color="#017101"/>
<stop offset="0.3201" stop-color="#017101"/>
<stop offset="0.609375" stop-color="#3FC43F"/>
<stop offset="0.75" stop-color="#017101" stop-opacity="0.86"/>
<stop offset="0.91" stop-color="#017101"/>
<stop offset="1" stop-color="#017101"/>
</linearGradient>
<linearGradient id="paint5_linear_206_1586" x1="76.8237" y1="1074.47" x2="61.2537" y2="1037.12" gradientUnits="userSpaceOnUse">
<stop stop-color="#2DFF2D"/>
<stop offset="0.32" stop-color="#017101"/>
<stop offset="0.3201" stop-color="#017101"/>
<stop offset="0.609375" stop-color="#3FC43F"/>
<stop offset="0.75" stop-color="#017101" stop-opacity="0.86"/>
<stop offset="0.91" stop-color="#017101"/>
<stop offset="1" stop-color="#017101"/>
</linearGradient>
<linearGradient id="paint6_linear_206_1586" x1="53.2542" y1="1199.6" x2="55.025" y2="1214.06" gradientUnits="userSpaceOnUse">
<stop offset="0.03" stop-color="#030303"/>
<stop offset="0.21"/>
<stop offset="0.41" stop-color="#121212"/>
<stop offset="0.6" stop-color="#292929"/>
<stop offset="0.86"/>
<stop offset="0.99" stop-color="#0F0F0F"/>
</linearGradient>
<linearGradient id="paint7_linear_206_1586" x1="36.133" y1="1225.89" x2="20.563" y2="1188.53" gradientUnits="userSpaceOnUse">
<stop stop-color="#2DFF2D"/>
<stop offset="0.32" stop-color="#017101"/>
<stop offset="0.3201" stop-color="#017101"/>
<stop offset="0.609375" stop-color="#3FC43F"/>
<stop offset="0.75" stop-color="#017101" stop-opacity="0.86"/>
<stop offset="0.91" stop-color="#017101"/>
<stop offset="1" stop-color="#017101"/>
</linearGradient>
<linearGradient id="paint8_linear_206_1586" x1="69.5075" y1="444.072" x2="71.2722" y2="458.486" gradientUnits="userSpaceOnUse">
<stop offset="0.03" stop-color="#030303"/>
<stop offset="0.21"/>
<stop offset="0.41" stop-color="#121212"/>
<stop offset="0.6" stop-color="#292929"/>
<stop offset="0.86"/>
<stop offset="0.99" stop-color="#0F0F0F"/>
</linearGradient>
<linearGradient id="paint9_linear_206_1586" x1="52.3883" y1="470.302" x2="36.8182" y2="432.951" gradientUnits="userSpaceOnUse">
<stop stop-color="#2DFF2D"/>
<stop offset="0.32" stop-color="#017101"/>
<stop offset="0.3201" stop-color="#017101"/>
<stop offset="0.609375" stop-color="#3FC43F"/>
<stop offset="0.75" stop-color="#017101" stop-opacity="0.86"/>
<stop offset="0.91" stop-color="#017101"/>
<stop offset="1" stop-color="#017101"/>
</linearGradient>
<linearGradient id="paint10_linear_206_1586" x1="67.9552" y1="236.831" x2="65.3013" y2="251.109" gradientUnits="userSpaceOnUse">
<stop offset="0.03" stop-color="#030303"/>
<stop offset="0.21"/>
<stop offset="0.41" stop-color="#121212"/>
<stop offset="0.6" stop-color="#292929"/>
<stop offset="0.86"/>
<stop offset="0.99" stop-color="#0F0F0F"/>
</linearGradient>
<linearGradient id="paint11_linear_206_1586" x1="48.892" y1="255.827" x2="33.1242" y2="218.428" gradientUnits="userSpaceOnUse">
<stop stop-color="#2DFF2D"/>
<stop offset="0.32" stop-color="#017101"/>
<stop offset="0.3201" stop-color="#017101"/>
<stop offset="0.609375" stop-color="#3FC43F"/>
<stop offset="0.75" stop-color="#017101" stop-opacity="0.86"/>
<stop offset="0.91" stop-color="#017101"/>
<stop offset="1" stop-color="#017101"/>
</linearGradient>
<linearGradient id="paint12_linear_206_1586" x1="106.211" y1="62.7775" x2="99.1599" y2="75.5294" gradientUnits="userSpaceOnUse">
<stop offset="0.03" stop-color="#030303"/>
<stop offset="0.21"/>
<stop offset="0.41" stop-color="#121212"/>
<stop offset="0.6" stop-color="#292929"/>
<stop offset="0.86"/>
<stop offset="0.99" stop-color="#0F0F0F"/>
</linearGradient>
<linearGradient id="paint13_linear_206_1586" x1="87.7776" y1="75.0751" x2="68.4325" y2="36.3855" gradientUnits="userSpaceOnUse">
<stop stop-color="#2DFF2D"/>
<stop offset="0.32" stop-color="#017101"/>
<stop offset="0.3201" stop-color="#017101"/>
<stop offset="0.609375" stop-color="#3FC43F"/>
<stop offset="0.75" stop-color="#017101" stop-opacity="0.86"/>
<stop offset="0.91" stop-color="#017101"/>
<stop offset="1" stop-color="#017101"/>
</linearGradient>
<linearGradient id="paint14_linear_206_1586" x1="89.7963" y1="157.063" x2="97.3904" y2="144.685" gradientUnits="userSpaceOnUse">
<stop offset="0.03" stop-color="#030303"/>
<stop offset="0.21"/>
<stop offset="0.41" stop-color="#121212"/>
<stop offset="0.6" stop-color="#292929"/>
<stop offset="0.86"/>
<stop offset="0.99" stop-color="#0F0F0F"/>
</linearGradient>
<linearGradient id="paint15_linear_206_1586" x1="127.084" y1="181.943" x2="106.814" y2="143.006" gradientUnits="userSpaceOnUse">
<stop stop-color="#2DFF2D"/>
<stop offset="0.32" stop-color="#017101"/>
<stop offset="0.3201" stop-color="#017101"/>
<stop offset="0.609375" stop-color="#3FC43F"/>
<stop offset="0.75" stop-color="#017101" stop-opacity="0.86"/>
<stop offset="0.91" stop-color="#017101"/>
<stop offset="1" stop-color="#017101"/>
</linearGradient>
<linearGradient id="paint16_linear_206_1586" x1="65.2893" y1="354.278" x2="70.7833" y2="340.836" gradientUnits="userSpaceOnUse">
<stop offset="0.03" stop-color="#030303"/>
<stop offset="0.21"/>
<stop offset="0.41" stop-color="#121212"/>
<stop offset="0.6" stop-color="#292929"/>
<stop offset="0.86"/>
<stop offset="0.99" stop-color="#0F0F0F"/>
</linearGradient>
<linearGradient id="paint17_linear_206_1586" x1="104.234" y1="373.547" x2="86.8391" y2="335.558" gradientUnits="userSpaceOnUse">
<stop stop-color="#2DFF2D"/>
<stop offset="0.32" stop-color="#017101"/>
<stop offset="0.3201" stop-color="#017101"/>
<stop offset="0.609375" stop-color="#3FC43F"/>
<stop offset="0.75" stop-color="#017101" stop-opacity="0.86"/>
<stop offset="0.91" stop-color="#017101"/>
<stop offset="1" stop-color="#017101"/>
</linearGradient>
<linearGradient id="paint18_linear_206_1586" x1="121.316" y1="541.436" x2="115.024" y2="528.292" gradientUnits="userSpaceOnUse">
<stop offset="0.03" stop-color="#030303"/>
<stop offset="0.21"/>
<stop offset="0.41" stop-color="#121212"/>
<stop offset="0.6" stop-color="#292929"/>
<stop offset="0.86"/>
<stop offset="0.99" stop-color="#0F0F0F"/>
</linearGradient>
<linearGradient id="paint19_linear_206_1586" x1="153.173" y1="541.662" x2="134.536" y2="503.108" gradientUnits="userSpaceOnUse">
<stop stop-color="#2DFF2D"/>
<stop offset="0.32" stop-color="#017101"/>
<stop offset="0.3201" stop-color="#017101"/>
<stop offset="0.609375" stop-color="#3FC43F"/>
<stop offset="0.75" stop-color="#017101" stop-opacity="0.86"/>
<stop offset="0.91" stop-color="#017101"/>
<stop offset="1" stop-color="#017101"/>
</linearGradient>
<linearGradient id="paint20_linear_206_1586" x1="150.461" y1="764.192" x2="155.884" y2="750.668" gradientUnits="userSpaceOnUse">
<stop offset="0.03" stop-color="#030303"/>
<stop offset="0.21"/>
<stop offset="0.41" stop-color="#121212"/>
<stop offset="0.6" stop-color="#292929"/>
<stop offset="0.86"/>
<stop offset="0.99" stop-color="#0F0F0F"/>
</linearGradient>
<linearGradient id="paint21_linear_206_1586" x1="189.503" y1="782.858" x2="172.194" y2="744.916" gradientUnits="userSpaceOnUse">
<stop stop-color="#2DFF2D"/>
<stop offset="0.32" stop-color="#017101"/>
<stop offset="0.3201" stop-color="#017101"/>
<stop offset="0.609375" stop-color="#3FC43F"/>
<stop offset="0.75" stop-color="#017101" stop-opacity="0.86"/>
<stop offset="0.91" stop-color="#017101"/>
<stop offset="1" stop-color="#017101"/>
</linearGradient>
<linearGradient id="paint22_linear_206_1586" x1="123.339" y1="962.105" x2="130.959" y2="949.684" gradientUnits="userSpaceOnUse">
<stop offset="0.03" stop-color="#030303"/>
<stop offset="0.21"/>
<stop offset="0.41" stop-color="#121212"/>
<stop offset="0.6" stop-color="#292929"/>
<stop offset="0.86"/>
<stop offset="0.99" stop-color="#0F0F0F"/>
</linearGradient>
<linearGradient id="paint23_linear_206_1586" x1="160.638" y1="986.989" x2="140.324" y2="948.022" gradientUnits="userSpaceOnUse">
<stop stop-color="#2DFF2D"/>
<stop offset="0.32" stop-color="#017101"/>
<stop offset="0.3201" stop-color="#017101"/>
<stop offset="0.609375" stop-color="#3FC43F"/>
<stop offset="0.75" stop-color="#017101" stop-opacity="0.86"/>
<stop offset="0.91" stop-color="#017101"/>
<stop offset="1" stop-color="#017101"/>
</linearGradient>
<linearGradient id="paint24_linear_206_1586" x1="77.2178" y1="1144.94" x2="84.8379" y2="1132.52" gradientUnits="userSpaceOnUse">
<stop offset="0.03" stop-color="#030303"/>
<stop offset="0.21"/>
<stop offset="0.41" stop-color="#121212"/>
<stop offset="0.6" stop-color="#292929"/>
<stop offset="0.86"/>
<stop offset="0.99" stop-color="#0F0F0F"/>
</linearGradient>
<linearGradient id="paint25_linear_206_1586" x1="114.493" y1="1169.73" x2="94.2222" y2="1130.79" gradientUnits="userSpaceOnUse">
<stop stop-color="#2DFF2D"/>
<stop offset="0.32" stop-color="#017101"/>
<stop offset="0.3201" stop-color="#017101"/>
<stop offset="0.609375" stop-color="#3FC43F"/>
<stop offset="0.75" stop-color="#017101" stop-opacity="0.86"/>
<stop offset="0.91" stop-color="#017101"/>
<stop offset="1" stop-color="#017101"/>
</linearGradient>
</defs>
</svg>
