<svg width="1369" height="371" viewBox="0 0 1369 371" fill="none" xmlns="http://www.w3.org/2000/svg">
<path d="M1290.67 131.276C1260.98 140.544 1134.2 179.153 995.375 206.215C786.865 246.856 646.256 243.188 588.664 195.559C529.09 146.293 419.309 134.2 262.294 159.626C164.309 175.486 77.7726 201.853 52 210.08V215.285C75.5423 207.751 163.417 180.69 263.137 164.532C370.043 147.235 512.734 139.206 585.492 199.375C617.857 226.139 673.367 239.521 751.478 239.521C817.198 239.521 898.976 230.005 996.317 211.022C1133.16 184.357 1258.31 146.442 1290.62 136.381V131.177L1290.67 131.276Z" fill="#011401"/>
<g opacity="0.38" filter="url(#filter0_f_45_1009)">
<path d="M759.012 215.631C751.23 242.147 723.426 257.313 696.959 249.532C670.443 241.75 655.277 213.946 663.009 187.479C670.79 160.963 698.595 145.797 725.061 153.579C751.577 161.36 766.744 189.164 758.962 215.631H759.012Z" fill="#FFDD00" style="mix-blend-mode:color-dodge"/>
</g>
<path d="M704.844 235.953C701.622 236.448 698.846 235.655 696.418 233.475C694.981 232.186 694.386 230.104 694.98 228.221L696.319 223.562L710.295 227.676L708.957 232.285C708.412 234.168 706.826 235.606 704.893 235.903L704.844 235.953Z" fill="url(#paint0_linear_45_1009)"/>
<path d="M723.626 212.707C720.454 223.562 711.037 230.352 702.611 227.873C694.186 225.395 689.923 214.591 693.095 203.736C696.267 192.882 712.474 176.973 717.133 178.36C722.882 180.046 726.798 201.853 723.626 212.707Z" fill="url(#paint1_radial_45_1009)" style="mix-blend-mode:color-dodge"/>
<g opacity="0.38" filter="url(#filter1_f_45_1009)">
<path d="M964.199 195.063C960.828 222.471 935.898 241.999 908.49 238.629C881.082 235.259 861.554 210.329 864.925 182.92C868.295 155.512 893.225 135.985 920.633 139.355C948.041 142.725 967.569 167.655 964.199 195.063Z" fill="#FFDD00" style="mix-blend-mode:color-dodge"/>
</g>
<path d="M914.04 223.909C910.967 224.95 908.043 224.603 905.317 222.819C903.682 221.778 902.789 219.845 903.037 217.862L903.632 213.055L918.055 214.839L917.46 219.647C917.212 221.579 915.924 223.265 914.04 223.859V223.909Z" fill="url(#paint2_linear_45_1009)"/>
<path d="M928.81 197.938C927.423 209.139 919.245 217.366 910.522 216.326C901.799 215.285 895.851 205.323 897.239 194.072C898.627 182.871 912.009 164.533 916.816 165.127C922.764 165.871 930.198 186.737 928.81 197.938Z" fill="url(#paint3_radial_45_1009)" style="mix-blend-mode:color-dodge"/>
<g opacity="0.38" filter="url(#filter2_f_45_1009)">
<path d="M1161.51 153.777C1158.14 181.185 1133.21 200.713 1105.8 197.343C1078.39 193.972 1058.87 169.042 1062.24 141.634C1065.61 114.226 1090.54 94.6984 1117.95 98.0687C1145.35 101.439 1164.88 126.369 1161.51 153.777Z" fill="#FFDD00" style="mix-blend-mode:color-dodge"/>
</g>
<path d="M1111.35 182.622C1108.28 183.663 1105.36 183.267 1102.63 181.532C1100.99 180.491 1100.1 178.558 1100.35 176.576L1100.94 171.768L1115.37 173.552L1114.77 178.36C1114.52 180.293 1113.24 181.978 1111.35 182.622Z" fill="url(#paint4_linear_45_1009)"/>
<path d="M1126.12 156.652C1124.73 167.853 1116.56 176.08 1107.83 175.039C1099.11 173.949 1093.16 163.987 1094.55 152.786C1095.94 141.585 1109.32 123.247 1114.13 123.841C1120.08 124.585 1127.51 145.451 1126.12 156.652Z" fill="url(#paint5_radial_45_1009)" style="mix-blend-mode:color-dodge"/>
<g opacity="0.38" filter="url(#filter3_f_45_1009)">
<path d="M1312.51 112.777C1309.14 140.185 1284.21 159.713 1256.8 156.343C1229.39 152.972 1209.87 128.042 1213.24 100.634C1216.61 73.2261 1241.54 53.6984 1268.94 57.0687C1296.35 60.4389 1315.88 85.369 1312.51 112.777Z" fill="#FFDD00" style="mix-blend-mode:color-dodge"/>
</g>
<path d="M1262.77 141.932C1259.69 142.973 1256.77 142.626 1254.04 140.841C1252.41 139.801 1251.51 137.868 1251.76 135.885L1252.36 131.078L1266.78 132.862L1266.18 137.669C1265.94 139.602 1264.65 141.288 1262.77 141.882V141.932Z" fill="url(#paint6_linear_45_1009)"/>
<path d="M1277.54 115.961C1276.15 127.162 1267.97 135.389 1259.25 134.349C1250.52 133.308 1244.58 123.346 1245.96 112.095C1247.35 100.894 1260.73 82.5556 1265.54 83.1503C1271.49 83.8938 1278.92 104.76 1277.54 115.961Z" fill="url(#paint7_radial_45_1009)" style="mix-blend-mode:color-dodge"/>
<g opacity="0.38" filter="url(#filter4_f_45_1009)">
<path d="M557.34 129.342C553.97 156.75 529.04 176.278 501.632 172.908C474.223 169.537 454.696 144.607 458.066 117.199C461.436 89.791 486.366 70.2634 513.774 73.6336C541.183 77.0039 560.71 101.934 557.34 129.342Z" fill="#FFDD00" style="mix-blend-mode:color-dodge"/>
</g>
<path d="M507.181 158.187C504.108 159.228 501.184 158.881 498.458 157.097C496.822 156.056 495.93 154.123 496.178 152.141L496.773 147.333L511.196 149.117L510.601 153.925C510.353 155.858 509.064 157.543 507.181 158.138V158.187Z" fill="url(#paint8_linear_45_1009)"/>
<path d="M521.951 132.216C520.564 143.417 512.386 151.645 503.663 150.604C494.94 149.563 488.992 139.601 490.38 128.35C491.768 117.149 505.15 98.811 509.957 99.4057C515.905 100.149 523.339 121.015 521.951 132.216Z" fill="url(#paint9_radial_45_1009)" style="mix-blend-mode:color-dodge"/>
<g opacity="0.38" filter="url(#filter5_f_45_1009)">
<path d="M340.056 110.459C345.112 137.62 327.17 163.739 300.01 168.795C272.849 173.85 246.73 155.908 241.675 128.748C236.619 101.588 254.561 75.4682 281.721 70.4128C308.881 65.3574 335.001 83.2991 340.056 110.459Z" fill="#FFDD00" style="mix-blend-mode:color-dodge"/>
</g>
<g opacity="0.8">
<path d="M300.902 153.082C298.275 154.966 295.401 155.511 292.229 154.668C290.345 154.173 288.908 152.587 288.561 150.654L287.669 145.896L301.993 143.219L302.885 147.977C303.232 149.91 302.488 151.893 300.902 153.033V153.082Z" fill="url(#paint10_linear_45_1009)"/>
<path d="M307.195 123.841C309.277 134.943 303.924 145.252 295.3 146.888C286.676 148.474 278.003 140.792 275.921 129.69C273.84 118.588 281.076 97.0774 285.884 96.1853C291.781 95.0949 305.163 112.789 307.195 123.891V123.841Z" fill="url(#paint11_radial_45_1009)" style="mix-blend-mode:color-dodge"/>
</g>
<g opacity="0.38" filter="url(#filter6_f_45_1009)">
<path d="M150.68 134.546C164.062 158.732 155.289 189.164 131.102 202.546C106.916 215.928 76.4843 207.155 63.1024 182.969C49.7205 158.782 58.4931 128.351 82.6797 114.969C106.866 101.587 137.298 110.359 150.68 134.546Z" fill="#FFDD00" style="mix-blend-mode:color-dodge"/>
</g>
<path d="M126.99 187.33C125.107 189.957 122.53 191.394 119.308 191.593C117.375 191.692 115.492 190.651 114.55 188.916L112.221 184.703L124.958 177.666L127.288 181.878C128.229 183.613 128.13 185.744 126.99 187.33Z" fill="url(#paint12_linear_45_1009)"/>
<path d="M123.719 157.642C129.171 167.554 127.387 179.003 119.705 183.266C112.022 187.528 101.366 182.968 95.8649 173.056C90.413 163.143 90.4626 140.444 94.725 138.114C99.9787 135.19 118.267 147.779 123.719 157.642Z" fill="url(#paint13_radial_45_1009)" style="mix-blend-mode:color-dodge"/>
<g opacity="0.38" filter="url(#filter7_f_45_1009)">
<path d="M175.51 229.509C161.087 205.967 168.422 175.189 191.965 160.716C215.507 146.294 246.335 153.629 260.758 177.171C275.23 200.714 267.845 231.542 244.303 245.964C220.761 260.437 189.933 253.052 175.51 229.509Z" fill="#FFDD00" style="mix-blend-mode:color-dodge"/>
</g>
<path d="M196.774 175.685C198.559 172.959 201.037 171.423 204.258 171.076C206.191 170.878 208.124 171.819 209.116 173.504L211.643 177.618L199.253 185.201L196.725 181.088C195.684 179.402 195.684 177.271 196.725 175.636L196.774 175.685Z" fill="#030303"/>
<path d="M201.384 205.226C195.486 195.61 196.775 184.062 204.259 179.453C211.743 174.844 222.597 178.957 228.495 188.572C234.393 198.188 235.334 220.887 231.221 223.415C226.116 226.537 207.282 214.841 201.384 205.176V205.226Z" fill="url(#paint14_radial_45_1009)" style="mix-blend-mode:color-dodge"/>
<g opacity="0.38" filter="url(#filter8_f_45_1009)">
<path d="M364.342 198.582C353.885 173.008 366.127 143.815 391.701 133.358C417.275 122.9 446.468 135.142 456.925 160.716C467.383 186.29 455.141 215.483 429.567 225.941C403.993 236.398 374.8 224.156 364.342 198.582Z" fill="#FFDD00" style="mix-blend-mode:color-dodge"/>
</g>
<path d="M394.033 148.97C396.214 146.591 398.94 145.451 402.161 145.649C404.094 145.748 405.829 147.037 406.572 148.821L408.406 153.282L394.925 158.783L393.091 154.322C392.348 152.489 392.695 150.407 393.983 148.97H394.033Z" fill="url(#paint15_linear_45_1009)"/>
<path d="M393.784 178.807C389.522 168.349 392.644 157.148 400.773 153.827C408.901 150.507 418.962 156.306 423.224 166.763C427.487 177.221 424.761 199.772 420.3 201.606C414.749 203.886 398.096 189.265 393.784 178.807Z" fill="url(#paint16_radial_45_1009)" style="mix-blend-mode:color-dodge"/>
<g opacity="0.38" filter="url(#filter9_f_45_1009)">
<path d="M527.801 206.81C539.746 181.88 569.583 171.373 594.513 183.268C619.443 195.213 629.95 225.049 618.055 249.979C606.11 274.909 576.274 285.417 551.344 273.522C526.414 261.577 515.906 231.74 527.801 206.81Z" fill="#FFDD00" style="mix-blend-mode:color-dodge"/>
</g>
<path d="M584.501 195.412C587.772 195.412 590.399 196.701 592.431 199.228C593.67 200.765 593.868 202.847 593.025 204.631L590.944 208.992L577.81 202.698L579.891 198.336C580.734 196.552 582.518 195.412 584.501 195.412Z" fill="url(#paint17_linear_45_1009)"/>
<path d="M562.247 215.337C567.104 205.128 577.513 199.973 585.443 203.74C593.373 207.556 595.851 218.856 590.944 229.066C586.087 239.276 567.55 252.361 563.139 250.279C557.737 247.702 557.34 225.547 562.247 215.337Z" fill="url(#paint18_radial_45_1009)" style="mix-blend-mode:color-dodge"/>
<g opacity="0.38" filter="url(#filter10_f_45_1009)">
<path d="M773.535 283.532C763.226 257.908 775.715 228.765 801.339 218.505C826.963 208.196 856.106 220.686 866.366 246.31C876.625 271.934 864.185 301.077 838.561 311.336C812.937 321.645 783.794 309.155 773.535 283.532Z" fill="#FFDD00" style="mix-blend-mode:color-dodge"/>
</g>
<path d="M803.522 234.119C805.703 231.74 808.428 230.649 811.7 230.848C813.682 230.947 815.367 232.235 816.111 234.069L817.895 238.53L804.414 243.932L802.63 239.471C801.886 237.638 802.233 235.556 803.571 234.119H803.522Z" fill="url(#paint19_linear_45_1009)"/>
<path d="M803.125 263.956C798.912 253.449 802.134 242.297 810.262 239.026C818.39 235.755 828.452 241.604 832.615 252.111C836.828 262.618 833.953 285.12 829.443 286.904C823.842 289.134 807.288 274.414 803.076 263.956H803.125Z" fill="url(#paint20_radial_45_1009)" style="mix-blend-mode:color-dodge"/>
<g opacity="0.38" filter="url(#filter11_f_45_1009)">
<path d="M980.506 263.064C966.083 239.521 973.419 208.693 996.961 194.271C1020.5 179.798 1051.33 187.183 1065.75 210.726C1080.18 234.268 1072.84 265.096 1049.3 279.518C1025.76 293.991 994.929 286.606 980.506 263.064Z" fill="#FFDD00" style="mix-blend-mode:color-dodge"/>
</g>
<path d="M1001.77 209.239C1003.56 206.513 1006.03 204.977 1009.25 204.63C1011.19 204.431 1013.07 205.373 1014.11 207.058L1016.64 211.172L1004.25 218.805L1001.72 214.691C1000.68 213.006 1000.68 210.875 1001.72 209.239H1001.77Z" fill="url(#paint21_linear_45_1009)"/>
<path d="M1006.38 238.779C1000.48 229.164 1001.77 217.616 1009.25 213.007C1016.74 208.397 1027.59 212.511 1033.54 222.126C1039.44 231.741 1040.38 254.441 1036.27 256.969C1031.16 260.091 1012.33 248.394 1006.43 238.73L1006.38 238.779Z" fill="url(#paint22_radial_45_1009)" style="mix-blend-mode:color-dodge"/>
<g opacity="0.38" filter="url(#filter12_f_45_1009)">
<path d="M1163.29 216.921C1148.87 193.378 1156.21 162.55 1179.75 148.128C1203.29 133.655 1234.12 141.04 1248.54 164.582C1262.96 188.125 1255.63 218.953 1232.09 233.375C1208.54 247.798 1177.72 240.463 1163.29 216.921Z" fill="#FFDD00" style="mix-blend-mode:color-dodge"/>
</g>
<path d="M1184.56 163.145C1186.34 160.419 1188.82 158.882 1192.04 158.535C1193.97 158.337 1195.91 159.279 1196.9 160.964L1199.43 165.078L1187.04 172.71L1184.51 168.597C1183.47 166.911 1183.47 164.78 1184.51 163.145H1184.56Z" fill="url(#paint23_linear_45_1009)"/>
<path d="M1189.17 192.634C1183.27 183.019 1184.56 171.471 1192.04 166.862C1199.52 162.252 1210.38 166.366 1216.28 175.981C1222.17 185.596 1223.12 208.296 1219 210.824C1213.9 213.946 1195.06 202.249 1189.17 192.585V192.634Z" fill="url(#paint24_radial_45_1009)" style="mix-blend-mode:color-dodge"/>
<defs>
<filter id="filter0_f_45_1009" x="604.991" y="95.5391" width="212.01" height="212.032" filterUnits="userSpaceOnUse" color-interpolation-filters="sRGB">
<feFlood flood-opacity="0" result="BackgroundImageFix"/>
<feBlend mode="normal" in="SourceGraphic" in2="BackgroundImageFix" result="shape"/>
<feGaussianBlur stdDeviation="28" result="effect1_foregroundBlur_45_1009"/>
</filter>
<filter id="filter1_f_45_1009" x="808.546" y="82.9766" width="212.031" height="212.03" filterUnits="userSpaceOnUse" color-interpolation-filters="sRGB">
<feFlood flood-opacity="0" result="BackgroundImageFix"/>
<feBlend mode="normal" in="SourceGraphic" in2="BackgroundImageFix" result="shape"/>
<feGaussianBlur stdDeviation="28" result="effect1_foregroundBlur_45_1009"/>
</filter>
<filter id="filter2_f_45_1009" x="1005.86" y="41.6904" width="212.031" height="212.03" filterUnits="userSpaceOnUse" color-interpolation-filters="sRGB">
<feFlood flood-opacity="0" result="BackgroundImageFix"/>
<feBlend mode="normal" in="SourceGraphic" in2="BackgroundImageFix" result="shape"/>
<feGaussianBlur stdDeviation="28" result="effect1_foregroundBlur_45_1009"/>
</filter>
<filter id="filter3_f_45_1009" x="1156.86" y="0.69043" width="212.031" height="212.03" filterUnits="userSpaceOnUse" color-interpolation-filters="sRGB">
<feFlood flood-opacity="0" result="BackgroundImageFix"/>
<feBlend mode="normal" in="SourceGraphic" in2="BackgroundImageFix" result="shape"/>
<feGaussianBlur stdDeviation="28" result="effect1_foregroundBlur_45_1009"/>
</filter>
<filter id="filter4_f_45_1009" x="401.688" y="17.2554" width="212.031" height="212.03" filterUnits="userSpaceOnUse" color-interpolation-filters="sRGB">
<feFlood flood-opacity="0" result="BackgroundImageFix"/>
<feBlend mode="normal" in="SourceGraphic" in2="BackgroundImageFix" result="shape"/>
<feGaussianBlur stdDeviation="28" result="effect1_foregroundBlur_45_1009"/>
</filter>
<filter id="filter5_f_45_1009" x="184.822" y="13.5601" width="212.087" height="212.087" filterUnits="userSpaceOnUse" color-interpolation-filters="sRGB">
<feFlood flood-opacity="0" result="BackgroundImageFix"/>
<feBlend mode="normal" in="SourceGraphic" in2="BackgroundImageFix" result="shape"/>
<feGaussianBlur stdDeviation="28" result="effect1_foregroundBlur_45_1009"/>
</filter>
<filter id="filter6_f_45_1009" x="0.840332" y="52.7065" width="212.102" height="212.102" filterUnits="userSpaceOnUse" color-interpolation-filters="sRGB">
<feFlood flood-opacity="0" result="BackgroundImageFix"/>
<feBlend mode="normal" in="SourceGraphic" in2="BackgroundImageFix" result="shape"/>
<feGaussianBlur stdDeviation="28" result="effect1_foregroundBlur_45_1009"/>
</filter>
<filter id="filter7_f_45_1009" x="112.124" y="97.3301" width="212.042" height="212.042" filterUnits="userSpaceOnUse" color-interpolation-filters="sRGB">
<feFlood flood-opacity="0" result="BackgroundImageFix"/>
<feBlend mode="normal" in="SourceGraphic" in2="BackgroundImageFix" result="shape"/>
<feGaussianBlur stdDeviation="28" result="effect1_foregroundBlur_45_1009"/>
</filter>
<filter id="filter8_f_45_1009" x="304.605" y="73.6206" width="212.057" height="212.057" filterUnits="userSpaceOnUse" color-interpolation-filters="sRGB">
<feFlood flood-opacity="0" result="BackgroundImageFix"/>
<feBlend mode="normal" in="SourceGraphic" in2="BackgroundImageFix" result="shape"/>
<feGaussianBlur stdDeviation="28" result="effect1_foregroundBlur_45_1009"/>
</filter>
<filter id="filter9_f_45_1009" x="466.903" y="122.37" width="212.05" height="212.05" filterUnits="userSpaceOnUse" color-interpolation-filters="sRGB">
<feFlood flood-opacity="0" result="BackgroundImageFix"/>
<feBlend mode="normal" in="SourceGraphic" in2="BackgroundImageFix" result="shape"/>
<feGaussianBlur stdDeviation="28" result="effect1_foregroundBlur_45_1009"/>
</filter>
<filter id="filter10_f_45_1009" x="713.918" y="158.889" width="212.044" height="212.064" filterUnits="userSpaceOnUse" color-interpolation-filters="sRGB">
<feFlood flood-opacity="0" result="BackgroundImageFix"/>
<feBlend mode="normal" in="SourceGraphic" in2="BackgroundImageFix" result="shape"/>
<feGaussianBlur stdDeviation="28" result="effect1_foregroundBlur_45_1009"/>
</filter>
<filter id="filter11_f_45_1009" x="917.12" y="130.862" width="212.021" height="212.064" filterUnits="userSpaceOnUse" color-interpolation-filters="sRGB">
<feFlood flood-opacity="0" result="BackgroundImageFix"/>
<feBlend mode="normal" in="SourceGraphic" in2="BackgroundImageFix" result="shape"/>
<feGaussianBlur stdDeviation="28" result="effect1_foregroundBlur_45_1009"/>
</filter>
<filter id="filter12_f_45_1009" x="1099.91" y="84.7192" width="212.021" height="212.042" filterUnits="userSpaceOnUse" color-interpolation-filters="sRGB">
<feFlood flood-opacity="0" result="BackgroundImageFix"/>
<feBlend mode="normal" in="SourceGraphic" in2="BackgroundImageFix" result="shape"/>
<feGaussianBlur stdDeviation="28" result="effect1_foregroundBlur_45_1009"/>
</filter>
<linearGradient id="paint0_linear_45_1009" x1="694.846" y1="228.494" x2="708.829" y2="232.594" gradientUnits="userSpaceOnUse">
<stop offset="0.03" stop-color="#030303"/>
<stop offset="0.21"/>
<stop offset="0.41" stop-color="#121212"/>
<stop offset="0.6" stop-color="#292929"/>
<stop offset="0.86"/>
<stop offset="0.99" stop-color="#0F0F0F"/>
</linearGradient>
<radialGradient id="paint1_radial_45_1009" cx="0" cy="0" r="1" gradientUnits="userSpaceOnUse" gradientTransform="translate(716.966 191.907) rotate(131.677) scale(37.903 46.6826)">
<stop stop-color="#FFDD00"/>
<stop offset="0.526042" stop-color="#E3C500"/>
<stop offset="1" stop-color="#262100"/>
</radialGradient>
<linearGradient id="paint2_linear_45_1009" x1="902.914" y1="218.384" x2="917.377" y2="220.155" gradientUnits="userSpaceOnUse">
<stop offset="0.03" stop-color="#030303"/>
<stop offset="0.21"/>
<stop offset="0.41" stop-color="#121212"/>
<stop offset="0.6" stop-color="#292929"/>
<stop offset="0.86"/>
<stop offset="0.99" stop-color="#0F0F0F"/>
</linearGradient>
<radialGradient id="paint3_radial_45_1009" cx="0" cy="0" r="1" gradientUnits="userSpaceOnUse" gradientTransform="translate(921.37 179.069) rotate(130.333) scale(38.022 46.5217)">
<stop stop-color="#FFDD00"/>
<stop offset="0.526042" stop-color="#E3C500"/>
<stop offset="1" stop-color="#262100"/>
</radialGradient>
<linearGradient id="paint4_linear_45_1009" x1="1100.21" y1="177.076" x2="1114.68" y2="178.847" gradientUnits="userSpaceOnUse">
<stop offset="0.03" stop-color="#030303"/>
<stop offset="0.21"/>
<stop offset="0.41" stop-color="#121212"/>
<stop offset="0.6" stop-color="#292929"/>
<stop offset="0.86"/>
<stop offset="0.99" stop-color="#0F0F0F"/>
</linearGradient>
<radialGradient id="paint5_radial_45_1009" cx="0" cy="0" r="1" gradientUnits="userSpaceOnUse" gradientTransform="translate(1118.68 137.783) rotate(130.333) scale(38.022 46.5217)">
<stop stop-color="#FFDD00"/>
<stop offset="0.526042" stop-color="#E3C500"/>
<stop offset="1" stop-color="#262100"/>
</radialGradient>
<linearGradient id="paint6_linear_45_1009" x1="1251.6" y1="136.391" x2="1266.06" y2="138.161" gradientUnits="userSpaceOnUse">
<stop offset="0.03" stop-color="#030303"/>
<stop offset="0.21"/>
<stop offset="0.41" stop-color="#121212"/>
<stop offset="0.6" stop-color="#292929"/>
<stop offset="0.86"/>
<stop offset="0.99" stop-color="#0F0F0F"/>
</linearGradient>
<radialGradient id="paint7_radial_45_1009" cx="0" cy="0" r="1" gradientUnits="userSpaceOnUse" gradientTransform="translate(1270.1 97.0924) rotate(130.333) scale(38.022 46.5217)">
<stop stop-color="#FFDD00"/>
<stop offset="0.526042" stop-color="#E3C500"/>
<stop offset="1" stop-color="#262100"/>
</radialGradient>
<linearGradient id="paint8_linear_45_1009" x1="496.072" y1="152.644" x2="510.486" y2="154.409" gradientUnits="userSpaceOnUse">
<stop offset="0.03" stop-color="#030303"/>
<stop offset="0.21"/>
<stop offset="0.41" stop-color="#121212"/>
<stop offset="0.6" stop-color="#292929"/>
<stop offset="0.86"/>
<stop offset="0.99" stop-color="#0F0F0F"/>
</linearGradient>
<radialGradient id="paint9_radial_45_1009" cx="0" cy="0" r="1" gradientUnits="userSpaceOnUse" gradientTransform="translate(514.511 113.348) rotate(130.333) scale(38.022 46.5218)">
<stop stop-color="#FFDD00"/>
<stop offset="0.526042" stop-color="#E3C500"/>
<stop offset="1" stop-color="#262100"/>
</radialGradient>
<linearGradient id="paint10_linear_45_1009" x1="300.895" y1="145.737" x2="288.114" y2="151.396" gradientUnits="userSpaceOnUse">
<stop offset="0.03" stop-color="#030303"/>
<stop offset="0.21"/>
<stop offset="0.41" stop-color="#121212"/>
<stop offset="0.6" stop-color="#292929"/>
<stop offset="0.86"/>
<stop offset="0.99" stop-color="#0F0F0F"/>
</linearGradient>
<radialGradient id="paint11_radial_45_1009" cx="0" cy="0" r="1" gradientUnits="userSpaceOnUse" gradientTransform="translate(300 110) rotate(130.654) scale(37.9491 46.5153)">
<stop stop-color="#FFDD00"/>
<stop offset="0.526042" stop-color="#E3C500"/>
<stop offset="1" stop-color="#262100"/>
</radialGradient>
<linearGradient id="paint12_linear_45_1009" x1="114.778" y1="189.347" x2="127.53" y2="182.296" gradientUnits="userSpaceOnUse">
<stop offset="0.03" stop-color="#030303"/>
<stop offset="0.21"/>
<stop offset="0.41" stop-color="#121212"/>
<stop offset="0.6" stop-color="#292929"/>
<stop offset="0.86"/>
<stop offset="0.99" stop-color="#0F0F0F"/>
</linearGradient>
<radialGradient id="paint13_radial_45_1009" cx="0" cy="0" r="1" gradientUnits="userSpaceOnUse" gradientTransform="translate(118.482 150.519) rotate(135.523) scale(38.0448 47.1665)">
<stop stop-color="#FFDD00"/>
<stop offset="0.526042" stop-color="#E3C500"/>
<stop offset="1" stop-color="#262100"/>
</radialGradient>
<radialGradient id="paint14_radial_45_1009" cx="0" cy="0" r="1" gradientUnits="userSpaceOnUse" gradientTransform="translate(225.149 190.176) rotate(136.678) scale(38.183 47.2644)">
<stop stop-color="#FFDD00"/>
<stop offset="0.526042" stop-color="#E3C500"/>
<stop offset="1" stop-color="#262100"/>
</radialGradient>
<linearGradient id="paint15_linear_45_1009" x1="406.278" y1="148.426" x2="392.836" y2="153.92" gradientUnits="userSpaceOnUse">
<stop offset="0.03" stop-color="#030303"/>
<stop offset="0.21"/>
<stop offset="0.41" stop-color="#121212"/>
<stop offset="0.6" stop-color="#292929"/>
<stop offset="0.86"/>
<stop offset="0.99" stop-color="#0F0F0F"/>
</linearGradient>
<radialGradient id="paint16_radial_45_1009" cx="0" cy="0" r="1" gradientUnits="userSpaceOnUse" gradientTransform="translate(417.381 166.209) rotate(133.004) scale(37.8181 46.7795)">
<stop stop-color="#FFDD00"/>
<stop offset="0.526042" stop-color="#E3C500"/>
<stop offset="1" stop-color="#262100"/>
</radialGradient>
<linearGradient id="paint17_linear_45_1009" x1="593.436" y1="204.452" x2="580.292" y2="198.161" gradientUnits="userSpaceOnUse">
<stop offset="0.03" stop-color="#030303"/>
<stop offset="0.21"/>
<stop offset="0.41" stop-color="#121212"/>
<stop offset="0.6" stop-color="#292929"/>
<stop offset="0.86"/>
<stop offset="0.99" stop-color="#0F0F0F"/>
</linearGradient>
<radialGradient id="paint18_radial_45_1009" cx="0" cy="0" r="1" gradientUnits="userSpaceOnUse" gradientTransform="translate(585.21 215.564) rotate(134.556) scale(38.052 47.1776)">
<stop stop-color="#FFDD00"/>
<stop offset="0.526042" stop-color="#E3C500"/>
<stop offset="1" stop-color="#262100"/>
</radialGradient>
<linearGradient id="paint19_linear_45_1009" x1="816.193" y1="233.598" x2="802.668" y2="239.021" gradientUnits="userSpaceOnUse">
<stop offset="0.03" stop-color="#030303"/>
<stop offset="0.21"/>
<stop offset="0.41" stop-color="#121212"/>
<stop offset="0.6" stop-color="#292929"/>
<stop offset="0.86"/>
<stop offset="0.99" stop-color="#0F0F0F"/>
</linearGradient>
<radialGradient id="paint20_radial_45_1009" cx="0" cy="0" r="1" gradientUnits="userSpaceOnUse" gradientTransform="translate(826.713 251.452) rotate(132.897) scale(37.799 46.7434)">
<stop stop-color="#FFDD00"/>
<stop offset="0.526042" stop-color="#E3C500"/>
<stop offset="1" stop-color="#262100"/>
</radialGradient>
<linearGradient id="paint21_linear_45_1009" x1="1014.1" y1="206.475" x2="1001.68" y2="214.095" gradientUnits="userSpaceOnUse">
<stop offset="0.03" stop-color="#030303"/>
<stop offset="0.21"/>
<stop offset="0.41" stop-color="#121212"/>
<stop offset="0.6" stop-color="#292929"/>
<stop offset="0.86"/>
<stop offset="0.99" stop-color="#0F0F0F"/>
</linearGradient>
<radialGradient id="paint22_radial_45_1009" cx="0" cy="0" r="1" gradientUnits="userSpaceOnUse" gradientTransform="translate(1030.18 223.73) rotate(136.718) scale(38.2108 47.295)">
<stop stop-color="#FFDD00"/>
<stop offset="0.526042" stop-color="#E3C500"/>
<stop offset="1" stop-color="#262100"/>
</radialGradient>
<linearGradient id="paint23_linear_45_1009" x1="1196.94" y1="160.354" x2="1184.52" y2="167.975" gradientUnits="userSpaceOnUse">
<stop offset="0.03" stop-color="#030303"/>
<stop offset="0.21"/>
<stop offset="0.41" stop-color="#121212"/>
<stop offset="0.6" stop-color="#292929"/>
<stop offset="0.86"/>
<stop offset="0.99" stop-color="#0F0F0F"/>
</linearGradient>
<radialGradient id="paint24_radial_45_1009" cx="0" cy="0" r="1" gradientUnits="userSpaceOnUse" gradientTransform="translate(1212.93 177.585) rotate(136.678) scale(38.183 47.2644)">
<stop stop-color="#FFDD00"/>
<stop offset="0.526042" stop-color="#E3C500"/>
<stop offset="1" stop-color="#262100"/>
</radialGradient>
</defs>
</svg>
