<svg width="371" height="1367" viewBox="0 0 371 1367" fill="none" xmlns="http://www.w3.org/2000/svg">
<path d="M130.73 78.5327C139.987 108.185 178.549 234.813 205.578 373.47C246.17 581.727 242.507 722.166 194.935 779.689C145.729 839.191 133.651 948.839 159.045 1105.66C174.886 1203.53 201.222 1289.96 209.439 1315.7H214.637C207.113 1292.19 180.084 1204.42 163.946 1104.82C146.67 998.045 138.65 855.527 198.747 782.857C225.478 750.532 238.844 695.088 238.844 617.072C238.844 551.432 229.339 469.752 210.38 372.529C183.747 235.852 145.878 110.858 135.829 78.5822H130.631L130.73 78.5327Z" fill="#011401"/>
<g opacity="0.38" filter="url(#filter0_f_46_1814)">
<path d="M214.983 609.547C241.467 617.319 256.615 645.09 248.843 671.525C241.071 698.008 213.3 713.156 186.866 705.434C160.382 697.662 145.234 669.891 153.006 643.457C160.778 616.973 188.549 601.825 214.983 609.597V609.547Z" fill="#FFDD00" style="mix-blend-mode:color-dodge"/>
</g>
<path d="M235.28 663.65C235.775 666.868 234.983 669.64 232.805 672.065C231.518 673.501 229.439 674.095 227.558 673.501L222.904 672.164L227.013 658.205L231.617 659.541C233.498 660.086 234.933 661.67 235.23 663.6L235.28 663.65Z" fill="url(#paint0_linear_46_1814)"/>
<path d="M212.063 644.89C222.904 648.058 229.686 657.464 227.211 665.879C224.736 674.295 213.944 678.552 203.103 675.384C192.262 672.216 176.372 656.028 177.758 651.375C179.441 645.633 201.222 641.722 212.063 644.89Z" fill="url(#paint1_radial_46_1814)" style="mix-blend-mode:color-dodge"/>
<g opacity="0.38" filter="url(#filter1_f_46_1814)">
<path d="M194.44 404.609C221.815 407.975 241.319 432.874 237.953 460.249C234.587 487.624 209.687 507.129 182.312 503.762C154.937 500.396 135.433 475.496 138.799 448.121C142.165 420.746 167.065 401.242 194.44 404.609Z" fill="#FFDD00" style="mix-blend-mode:color-dodge"/>
</g>
<path d="M223.251 454.706C224.29 457.776 223.944 460.696 222.162 463.419C221.122 465.052 219.192 465.943 217.211 465.696L212.41 465.102L214.192 450.697L218.994 451.291C220.924 451.538 222.607 452.825 223.201 454.706H223.251Z" fill="url(#paint2_linear_46_1814)"/>
<path d="M197.311 439.954C208.499 441.34 216.716 449.508 215.677 458.22C214.637 466.933 204.687 472.873 193.45 471.487C182.262 470.101 163.946 456.735 164.54 451.934C165.283 445.993 186.124 438.568 197.311 439.954Z" fill="url(#paint3_radial_46_1814)" style="mix-blend-mode:color-dodge"/>
<g opacity="0.38" filter="url(#filter2_f_46_1814)">
<path d="M153.204 207.535C180.579 210.902 200.083 235.801 196.717 263.176C193.351 290.551 168.451 310.056 141.076 306.689C113.701 303.323 94.1972 278.423 97.5633 251.048C100.93 223.673 125.829 204.169 153.204 207.535Z" fill="#FFDD00" style="mix-blend-mode:color-dodge"/>
</g>
<path d="M182.014 257.633C183.054 260.702 182.658 263.623 180.925 266.346C179.886 267.979 177.955 268.87 175.975 268.623L171.173 268.029L172.955 253.624L177.757 254.218C179.688 254.465 181.371 255.752 182.014 257.633Z" fill="url(#paint4_linear_46_1814)"/>
<path d="M156.075 242.881C167.263 244.267 175.48 252.435 174.441 261.148C173.352 269.86 163.402 275.8 152.214 274.414C141.027 273.028 122.711 259.663 123.305 254.861C124.047 248.92 144.888 241.495 156.075 242.881Z" fill="url(#paint5_radial_46_1814)" style="mix-blend-mode:color-dodge"/>
<g opacity="0.38" filter="url(#filter3_f_46_1814)">
<path d="M112.254 56.7184C139.629 60.0846 159.133 84.9843 155.767 112.359C152.4 139.734 127.5 159.238 100.126 155.872C72.7505 152.506 53.2465 127.606 56.6127 100.231C59.9788 72.8561 84.8787 53.3522 112.254 56.7184Z" fill="#FFDD00" style="mix-blend-mode:color-dodge"/>
</g>
<path d="M141.373 106.404C142.413 109.473 142.066 112.393 140.284 115.116C139.245 116.75 137.314 117.641 135.334 117.393L130.532 116.799L132.314 102.394L137.116 102.988C139.047 103.236 140.73 104.523 141.324 106.404H141.373Z" fill="url(#paint6_linear_46_1814)"/>
<path d="M115.434 91.6515C126.621 93.0375 134.839 101.205 133.799 109.918C132.76 118.63 122.81 124.571 111.573 123.185C100.385 121.798 82.069 108.433 82.663 103.631C83.4056 97.6907 104.246 90.2654 115.434 91.6515Z" fill="url(#paint7_radial_46_1814)" style="mix-blend-mode:color-dodge"/>
<g opacity="0.38" filter="url(#filter4_f_46_1814)">
<path d="M128.799 810.975C156.174 814.341 175.678 839.241 172.311 866.616C168.945 893.991 144.045 913.495 116.67 910.129C89.2955 906.763 69.7914 881.863 73.1576 854.488C76.5238 827.113 101.424 807.609 128.799 810.975Z" fill="#FFDD00" style="mix-blend-mode:color-dodge"/>
</g>
<path d="M157.609 861.073C158.649 864.143 158.302 867.063 156.52 869.786C155.481 871.42 153.55 872.311 151.57 872.063L146.768 871.469L148.55 857.064L153.352 857.658C155.283 857.905 156.966 859.192 157.56 861.073H157.609Z" fill="url(#paint8_linear_46_1814)"/>
<path d="M131.67 846.321C142.857 847.707 151.075 855.875 150.035 864.587C148.996 873.3 139.046 879.24 127.808 877.854C116.621 876.468 98.3048 863.102 98.8989 858.3C99.6414 852.36 120.482 844.935 131.67 846.321Z" fill="url(#paint9_radial_46_1814)" style="mix-blend-mode:color-dodge"/>
<g opacity="0.38" filter="url(#filter5_f_46_1814)">
<path d="M109.939 1028C137.066 1022.95 163.154 1040.87 168.203 1067.99C173.253 1095.12 155.333 1121.21 128.205 1126.26C101.078 1131.31 74.9899 1113.39 69.9406 1086.26C64.8913 1059.13 82.8113 1033.04 109.939 1028Z" fill="#FFDD00" style="mix-blend-mode:color-dodge"/>
</g>
<g opacity="0.8">
<path d="M152.51 1067.1C154.391 1069.73 154.935 1072.6 154.094 1075.77C153.599 1077.65 152.015 1079.08 150.084 1079.43L145.332 1080.32L142.659 1066.01L147.411 1065.12C149.342 1064.78 151.322 1065.52 152.46 1067.1H152.51Z" fill="url(#paint10_linear_46_1814)"/>
<path d="M123.304 1060.82C134.393 1058.74 144.689 1064.08 146.323 1072.7C147.907 1081.31 140.234 1089.97 129.146 1092.05C118.057 1094.13 96.5729 1086.9 95.6818 1082.1C94.5928 1076.21 112.265 1062.85 123.354 1060.82H123.304Z" fill="url(#paint11_radial_46_1814)" style="mix-blend-mode:color-dodge"/>
</g>
<g opacity="0.38" filter="url(#filter6_f_46_1814)">
<path d="M133.996 1217.14C158.153 1203.78 188.548 1212.54 201.914 1236.7C215.279 1260.85 206.517 1291.25 182.36 1304.61C158.203 1317.98 127.808 1309.22 114.442 1285.06C101.077 1260.9 109.839 1230.51 133.996 1217.14Z" fill="#FFDD00" style="mix-blend-mode:color-dodge"/>
</g>
<path d="M186.717 1240.8C189.341 1242.69 190.776 1245.26 190.974 1248.48C191.073 1250.41 190.034 1252.29 188.301 1253.23L184.093 1255.56L177.064 1242.83L181.272 1240.51C183.004 1239.57 185.133 1239.67 186.717 1240.8Z" fill="url(#paint12_linear_46_1814)"/>
<path d="M157.064 1244.07C166.965 1238.63 178.4 1240.41 182.657 1248.08C186.915 1255.75 182.36 1266.4 172.46 1271.89C162.559 1277.34 139.887 1277.29 137.56 1273.03C134.64 1267.78 147.213 1249.52 157.064 1244.07Z" fill="url(#paint13_radial_46_1814)" style="mix-blend-mode:color-dodge"/>
<g opacity="0.38" filter="url(#filter7_f_46_1814)">
<path d="M228.845 1192.34C205.331 1206.75 174.59 1199.42 160.135 1175.91C145.73 1152.39 153.056 1121.6 176.57 1107.2C200.084 1092.74 230.875 1100.12 245.28 1123.63C259.735 1147.15 252.359 1177.94 228.845 1192.34Z" fill="#FFDD00" style="mix-blend-mode:color-dodge"/>
</g>
<path d="M175.086 1171.1C172.363 1169.32 170.829 1166.85 170.482 1163.63C170.284 1161.7 171.225 1159.77 172.908 1158.78L177.017 1156.25L184.59 1168.63L180.482 1171.15C178.799 1172.19 176.67 1172.19 175.036 1171.15L175.086 1171.1Z" fill="#030303"/>
<path d="M204.591 1166.5C194.987 1172.39 183.453 1171.1 178.849 1163.63C174.245 1156.15 178.354 1145.31 187.958 1139.42C197.561 1133.53 220.233 1132.59 222.758 1136.7C225.877 1141.8 214.194 1160.61 204.541 1166.5H204.591Z" fill="url(#paint14_radial_46_1814)" style="mix-blend-mode:color-dodge"/>
<g opacity="0.38" filter="url(#filter8_f_46_1814)">
<path d="M197.955 1003.74C172.411 1014.18 143.254 1001.96 132.809 976.414C122.364 950.87 134.591 921.713 160.135 911.268C185.678 900.823 214.835 913.05 225.28 938.594C235.725 964.137 223.498 993.294 197.955 1003.74Z" fill="#FFDD00" style="mix-blend-mode:color-dodge"/>
</g>
<path d="M148.402 974.085C146.026 971.907 144.888 969.184 145.086 965.966C145.185 964.036 146.472 962.303 148.254 961.561L152.709 959.729L158.204 973.194L153.748 975.025C151.917 975.768 149.838 975.421 148.402 974.134V974.085Z" fill="url(#paint15_linear_46_1814)"/>
<path d="M178.203 974.333C167.758 978.591 156.571 975.472 153.254 967.353C149.937 959.235 155.729 949.186 166.174 944.929C176.619 940.672 199.143 943.394 200.975 947.849C203.252 953.394 188.648 970.027 178.203 974.333Z" fill="url(#paint16_radial_46_1814)" style="mix-blend-mode:color-dodge"/>
<g opacity="0.38" filter="url(#filter9_f_46_1814)">
<path d="M206.173 840.478C181.274 828.548 170.779 798.747 182.66 773.847C194.59 748.948 224.39 738.453 249.29 750.334C274.19 762.264 284.685 792.064 272.804 816.964C260.874 841.864 231.073 852.359 206.173 840.478Z" fill="#FFDD00" style="mix-blend-mode:color-dodge"/>
</g>
<path d="M194.789 783.847C194.789 780.58 196.076 777.957 198.601 775.927C200.135 774.689 202.214 774.491 203.997 775.333L208.353 777.412L202.066 790.53L197.71 788.451C195.928 787.61 194.789 785.827 194.789 783.847Z" fill="url(#paint17_linear_46_1814)"/>
<path d="M214.69 806.074C204.492 801.223 199.344 790.827 203.106 782.907C206.918 774.986 218.205 772.511 228.402 777.412C238.6 782.263 251.669 800.777 249.589 805.183C247.015 810.579 224.888 810.975 214.69 806.074Z" fill="url(#paint18_radial_46_1814)" style="mix-blend-mode:color-dodge"/>
<g opacity="0.38" filter="url(#filter10_f_46_1814)">
<path d="M282.802 595.042C257.209 605.339 228.101 592.864 217.854 567.271C207.557 541.678 220.032 512.571 245.625 502.323C271.218 492.076 300.325 504.502 310.573 530.095C320.869 555.687 308.394 584.795 282.802 595.042Z" fill="#FFDD00" style="mix-blend-mode:color-dodge"/>
</g>
<path d="M233.448 565.091C231.072 562.913 229.983 560.19 230.181 556.923C230.28 554.943 231.567 553.26 233.399 552.518L237.854 550.735L243.25 564.2L238.795 565.982C236.963 566.725 234.884 566.378 233.448 565.042V565.091Z" fill="url(#paint19_linear_46_1814)"/>
<path d="M263.25 565.487C252.755 569.695 241.617 566.478 238.35 558.359C235.083 550.241 240.924 540.192 251.419 536.033C261.913 531.826 284.387 534.697 286.169 539.202C288.397 544.795 273.695 561.329 263.25 565.537V565.487Z" fill="url(#paint20_radial_46_1814)" style="mix-blend-mode:color-dodge"/>
<g opacity="0.38" filter="url(#filter11_f_46_1814)">
<path d="M262.358 388.321C238.844 402.726 208.054 395.4 193.648 371.886C179.194 348.372 186.57 317.582 210.083 303.176C233.597 288.771 264.388 296.098 278.793 319.611C293.248 343.125 285.872 373.916 262.358 388.321Z" fill="#FFDD00" style="mix-blend-mode:color-dodge"/>
</g>
<path d="M208.599 367.082C205.876 365.3 204.341 362.825 203.995 359.607C203.797 357.676 204.737 355.795 206.42 354.756L210.529 352.231L218.153 364.607L214.044 367.131C212.361 368.171 210.232 368.171 208.599 367.131V367.082Z" fill="url(#paint21_linear_46_1814)"/>
<path d="M238.103 362.478C228.5 368.369 216.966 367.082 212.362 359.607C207.758 352.132 211.867 341.291 221.47 335.35C231.074 329.46 253.746 328.519 256.271 332.628C259.389 337.727 247.707 356.538 238.054 362.428L238.103 362.478Z" fill="url(#paint22_radial_46_1814)" style="mix-blend-mode:color-dodge"/>
<g opacity="0.38" filter="url(#filter12_f_46_1814)">
<path d="M216.271 205.755C192.757 220.161 161.966 212.834 147.561 189.32C133.106 165.807 140.482 135.016 163.996 120.611C187.51 106.206 218.3 113.532 232.706 137.046C247.111 160.559 239.785 191.35 216.271 205.755Z" fill="#FFDD00" style="mix-blend-mode:color-dodge"/>
</g>
<path d="M162.56 184.517C159.837 182.735 158.303 180.26 157.956 177.042C157.758 175.111 158.699 173.181 160.382 172.191L164.491 169.666L172.114 182.042L168.005 184.566C166.322 185.606 164.194 185.606 162.56 184.566V184.517Z" fill="url(#paint23_linear_46_1814)"/>
<path d="M192.014 179.913C182.41 185.804 170.876 184.517 166.272 177.042C161.669 169.567 165.777 158.726 175.381 152.835C184.984 146.944 207.657 146.004 210.181 150.112C213.3 155.211 201.617 174.022 191.964 179.913H192.014Z" fill="url(#paint24_radial_46_1814)" style="mix-blend-mode:color-dodge"/>
<defs>
<filter id="filter0_f_46_1814" x="94.9688" y="551.56" width="211.911" height="211.889" filterUnits="userSpaceOnUse" color-interpolation-filters="sRGB">
<feFlood flood-opacity="0" result="BackgroundImageFix"/>
<feBlend mode="normal" in="SourceGraphic" in2="BackgroundImageFix" result="shape"/>
<feGaussianBlur stdDeviation="28" result="effect1_foregroundBlur_46_1814"/>
</filter>
<filter id="filter1_f_46_1814" x="82.4214" y="348.231" width="211.91" height="211.909" filterUnits="userSpaceOnUse" color-interpolation-filters="sRGB">
<feFlood flood-opacity="0" result="BackgroundImageFix"/>
<feBlend mode="normal" in="SourceGraphic" in2="BackgroundImageFix" result="shape"/>
<feGaussianBlur stdDeviation="28" result="effect1_foregroundBlur_46_1814"/>
</filter>
<filter id="filter2_f_46_1814" x="41.1855" y="151.158" width="211.91" height="211.909" filterUnits="userSpaceOnUse" color-interpolation-filters="sRGB">
<feFlood flood-opacity="0" result="BackgroundImageFix"/>
<feBlend mode="normal" in="SourceGraphic" in2="BackgroundImageFix" result="shape"/>
<feGaussianBlur stdDeviation="28" result="effect1_foregroundBlur_46_1814"/>
</filter>
<filter id="filter3_f_46_1814" x="0.234863" y="0.340576" width="211.91" height="211.909" filterUnits="userSpaceOnUse" color-interpolation-filters="sRGB">
<feFlood flood-opacity="0" result="BackgroundImageFix"/>
<feBlend mode="normal" in="SourceGraphic" in2="BackgroundImageFix" result="shape"/>
<feGaussianBlur stdDeviation="28" result="effect1_foregroundBlur_46_1814"/>
</filter>
<filter id="filter4_f_46_1814" x="16.7798" y="754.597" width="211.91" height="211.909" filterUnits="userSpaceOnUse" color-interpolation-filters="sRGB">
<feFlood flood-opacity="0" result="BackgroundImageFix"/>
<feBlend mode="normal" in="SourceGraphic" in2="BackgroundImageFix" result="shape"/>
<feGaussianBlur stdDeviation="28" result="effect1_foregroundBlur_46_1814"/>
</filter>
<filter id="filter5_f_46_1814" x="13.0889" y="971.144" width="211.966" height="211.966" filterUnits="userSpaceOnUse" color-interpolation-filters="sRGB">
<feFlood flood-opacity="0" result="BackgroundImageFix"/>
<feBlend mode="normal" in="SourceGraphic" in2="BackgroundImageFix" result="shape"/>
<feGaussianBlur stdDeviation="28" result="effect1_foregroundBlur_46_1814"/>
</filter>
<filter id="filter6_f_46_1814" x="52.188" y="1154.89" width="211.98" height="211.98" filterUnits="userSpaceOnUse" color-interpolation-filters="sRGB">
<feFlood flood-opacity="0" result="BackgroundImageFix"/>
<feBlend mode="normal" in="SourceGraphic" in2="BackgroundImageFix" result="shape"/>
<feGaussianBlur stdDeviation="28" result="effect1_foregroundBlur_46_1814"/>
</filter>
<filter id="filter7_f_46_1814" x="96.7578" y="1043.8" width="211.921" height="211.922" filterUnits="userSpaceOnUse" color-interpolation-filters="sRGB">
<feFlood flood-opacity="0" result="BackgroundImageFix"/>
<feBlend mode="normal" in="SourceGraphic" in2="BackgroundImageFix" result="shape"/>
<feGaussianBlur stdDeviation="28" result="effect1_foregroundBlur_46_1814"/>
</filter>
<filter id="filter8_f_46_1814" x="73.0767" y="851.536" width="211.936" height="211.936" filterUnits="userSpaceOnUse" color-interpolation-filters="sRGB">
<feFlood flood-opacity="0" result="BackgroundImageFix"/>
<feBlend mode="normal" in="SourceGraphic" in2="BackgroundImageFix" result="shape"/>
<feGaussianBlur stdDeviation="28" result="effect1_foregroundBlur_46_1814"/>
</filter>
<filter id="filter9_f_46_1814" x="121.768" y="689.442" width="211.929" height="211.928" filterUnits="userSpaceOnUse" color-interpolation-filters="sRGB">
<feFlood flood-opacity="0" result="BackgroundImageFix"/>
<feBlend mode="normal" in="SourceGraphic" in2="BackgroundImageFix" result="shape"/>
<feGaussianBlur stdDeviation="28" result="effect1_foregroundBlur_46_1814"/>
</filter>
<filter id="filter10_f_46_1814" x="158.242" y="442.732" width="211.943" height="211.923" filterUnits="userSpaceOnUse" color-interpolation-filters="sRGB">
<feFlood flood-opacity="0" result="BackgroundImageFix"/>
<feBlend mode="normal" in="SourceGraphic" in2="BackgroundImageFix" result="shape"/>
<feGaussianBlur stdDeviation="28" result="effect1_foregroundBlur_46_1814"/>
</filter>
<filter id="filter11_f_46_1814" x="130.249" y="239.799" width="211.943" height="211.9" filterUnits="userSpaceOnUse" color-interpolation-filters="sRGB">
<feFlood flood-opacity="0" result="BackgroundImageFix"/>
<feBlend mode="normal" in="SourceGraphic" in2="BackgroundImageFix" result="shape"/>
<feGaussianBlur stdDeviation="28" result="effect1_foregroundBlur_46_1814"/>
</filter>
<filter id="filter12_f_46_1814" x="84.1616" y="57.2334" width="211.921" height="211.899" filterUnits="userSpaceOnUse" color-interpolation-filters="sRGB">
<feFlood flood-opacity="0" result="BackgroundImageFix"/>
<feBlend mode="normal" in="SourceGraphic" in2="BackgroundImageFix" result="shape"/>
<feGaussianBlur stdDeviation="28" result="effect1_foregroundBlur_46_1814"/>
</filter>
<linearGradient id="paint0_linear_46_1814" x1="227.831" y1="673.636" x2="231.925" y2="659.67" gradientUnits="userSpaceOnUse">
<stop offset="0.03" stop-color="#030303"/>
<stop offset="0.21"/>
<stop offset="0.41" stop-color="#121212"/>
<stop offset="0.6" stop-color="#292929"/>
<stop offset="0.86"/>
<stop offset="0.99" stop-color="#0F0F0F"/>
</linearGradient>
<radialGradient id="paint1_radial_46_1814" cx="0" cy="0" r="1" gradientUnits="userSpaceOnUse" gradientTransform="translate(191.288 651.543) rotate(41.6765) scale(37.8571 46.6261)">
<stop stop-color="#FFDD00"/>
<stop offset="0.526042" stop-color="#E3C500"/>
<stop offset="1" stop-color="#262100"/>
</radialGradient>
<linearGradient id="paint2_linear_46_1814" x1="217.732" y1="465.82" x2="219.501" y2="451.374" gradientUnits="userSpaceOnUse">
<stop offset="0.03" stop-color="#030303"/>
<stop offset="0.21"/>
<stop offset="0.41" stop-color="#121212"/>
<stop offset="0.6" stop-color="#292929"/>
<stop offset="0.86"/>
<stop offset="0.99" stop-color="#0F0F0F"/>
</linearGradient>
<radialGradient id="paint3_radial_46_1814" cx="0" cy="0" r="1" gradientUnits="userSpaceOnUse" gradientTransform="translate(178.466 447.385) rotate(40.3327) scale(37.976 46.4654)">
<stop stop-color="#FFDD00"/>
<stop offset="0.526042" stop-color="#E3C500"/>
<stop offset="1" stop-color="#262100"/>
</radialGradient>
<linearGradient id="paint4_linear_46_1814" x1="176.475" y1="268.757" x2="178.244" y2="254.311" gradientUnits="userSpaceOnUse">
<stop offset="0.03" stop-color="#030303"/>
<stop offset="0.21"/>
<stop offset="0.41" stop-color="#121212"/>
<stop offset="0.6" stop-color="#292929"/>
<stop offset="0.86"/>
<stop offset="0.99" stop-color="#0F0F0F"/>
</linearGradient>
<radialGradient id="paint5_radial_46_1814" cx="0" cy="0" r="1" gradientUnits="userSpaceOnUse" gradientTransform="translate(137.23 250.312) rotate(40.3327) scale(37.976 46.4654)">
<stop stop-color="#FFDD00"/>
<stop offset="0.526042" stop-color="#E3C500"/>
<stop offset="1" stop-color="#262100"/>
</radialGradient>
<linearGradient id="paint6_linear_46_1814" x1="135.839" y1="117.557" x2="137.607" y2="103.112" gradientUnits="userSpaceOnUse">
<stop offset="0.03" stop-color="#030303"/>
<stop offset="0.21"/>
<stop offset="0.41" stop-color="#121212"/>
<stop offset="0.6" stop-color="#292929"/>
<stop offset="0.86"/>
<stop offset="0.99" stop-color="#0F0F0F"/>
</linearGradient>
<radialGradient id="paint7_radial_46_1814" cx="0" cy="0" r="1" gradientUnits="userSpaceOnUse" gradientTransform="translate(96.5882 99.0825) rotate(40.3326) scale(37.9759 46.4653)">
<stop stop-color="#FFDD00"/>
<stop offset="0.526042" stop-color="#E3C500"/>
<stop offset="1" stop-color="#262100"/>
</radialGradient>
<linearGradient id="paint8_linear_46_1814" x1="152.073" y1="872.169" x2="153.835" y2="857.773" gradientUnits="userSpaceOnUse">
<stop offset="0.03" stop-color="#030303"/>
<stop offset="0.21"/>
<stop offset="0.41" stop-color="#121212"/>
<stop offset="0.6" stop-color="#292929"/>
<stop offset="0.86"/>
<stop offset="0.99" stop-color="#0F0F0F"/>
</linearGradient>
<radialGradient id="paint9_radial_46_1814" cx="0" cy="0" r="1" gradientUnits="userSpaceOnUse" gradientTransform="translate(112.824 853.752) rotate(40.3328) scale(37.976 46.4655)">
<stop stop-color="#FFDD00"/>
<stop offset="0.526042" stop-color="#E3C500"/>
<stop offset="1" stop-color="#262100"/>
</radialGradient>
<linearGradient id="paint10_linear_46_1814" x1="145.173" y1="1067.11" x2="150.825" y2="1079.88" gradientUnits="userSpaceOnUse">
<stop offset="0.03" stop-color="#030303"/>
<stop offset="0.21"/>
<stop offset="0.41" stop-color="#121212"/>
<stop offset="0.6" stop-color="#292929"/>
<stop offset="0.86"/>
<stop offset="0.99" stop-color="#0F0F0F"/>
</linearGradient>
<radialGradient id="paint11_radial_46_1814" cx="0" cy="0" r="1" gradientUnits="userSpaceOnUse" gradientTransform="translate(109.48 1068) rotate(40.6542) scale(37.9032 46.459)">
<stop stop-color="#FFDD00"/>
<stop offset="0.526042" stop-color="#E3C500"/>
<stop offset="1" stop-color="#262100"/>
</radialGradient>
<linearGradient id="paint12_linear_46_1814" x1="188.731" y1="1253" x2="181.689" y2="1240.27" gradientUnits="userSpaceOnUse">
<stop offset="0.03" stop-color="#030303"/>
<stop offset="0.21"/>
<stop offset="0.41" stop-color="#121212"/>
<stop offset="0.6" stop-color="#292929"/>
<stop offset="0.86"/>
<stop offset="0.99" stop-color="#0F0F0F"/>
</linearGradient>
<radialGradient id="paint13_radial_46_1814" cx="0" cy="0" r="1" gradientUnits="userSpaceOnUse" gradientTransform="translate(149.95 1249.3) rotate(45.5228) scale(37.9988 47.1094)">
<stop stop-color="#FFDD00"/>
<stop offset="0.526042" stop-color="#E3C500"/>
<stop offset="1" stop-color="#262100"/>
</radialGradient>
<radialGradient id="paint14_radial_46_1814" cx="0" cy="0" r="1" gradientUnits="userSpaceOnUse" gradientTransform="translate(189.559 1142.76) rotate(46.6783) scale(38.1368 47.2072)">
<stop stop-color="#FFDD00"/>
<stop offset="0.526042" stop-color="#E3C500"/>
<stop offset="1" stop-color="#262100"/>
</radialGradient>
<linearGradient id="paint15_linear_46_1814" x1="147.859" y1="961.854" x2="153.346" y2="975.28" gradientUnits="userSpaceOnUse">
<stop offset="0.03" stop-color="#030303"/>
<stop offset="0.21"/>
<stop offset="0.41" stop-color="#121212"/>
<stop offset="0.6" stop-color="#292929"/>
<stop offset="0.86"/>
<stop offset="0.99" stop-color="#0F0F0F"/>
</linearGradient>
<radialGradient id="paint16_radial_46_1814" cx="0" cy="0" r="1" gradientUnits="userSpaceOnUse" gradientTransform="translate(165.62 950.765) rotate(43.0037) scale(37.7724 46.7229)">
<stop stop-color="#FFDD00"/>
<stop offset="0.526042" stop-color="#E3C500"/>
<stop offset="1" stop-color="#262100"/>
</radialGradient>
<linearGradient id="paint17_linear_46_1814" x1="203.818" y1="774.923" x2="197.534" y2="788.05" gradientUnits="userSpaceOnUse">
<stop offset="0.03" stop-color="#030303"/>
<stop offset="0.21"/>
<stop offset="0.41" stop-color="#121212"/>
<stop offset="0.6" stop-color="#292929"/>
<stop offset="0.86"/>
<stop offset="0.99" stop-color="#0F0F0F"/>
</linearGradient>
<radialGradient id="paint18_radial_46_1814" cx="0" cy="0" r="1" gradientUnits="userSpaceOnUse" gradientTransform="translate(214.916 783.139) rotate(44.5563) scale(38.0059 47.1205)">
<stop stop-color="#FFDD00"/>
<stop offset="0.526042" stop-color="#E3C500"/>
<stop offset="1" stop-color="#262100"/>
</radialGradient>
<linearGradient id="paint19_linear_46_1814" x1="232.928" y1="552.436" x2="238.344" y2="565.944" gradientUnits="userSpaceOnUse">
<stop offset="0.03" stop-color="#030303"/>
<stop offset="0.21"/>
<stop offset="0.41" stop-color="#121212"/>
<stop offset="0.6" stop-color="#292929"/>
<stop offset="0.86"/>
<stop offset="0.99" stop-color="#0F0F0F"/>
</linearGradient>
<radialGradient id="paint20_radial_46_1814" cx="0" cy="0" r="1" gradientUnits="userSpaceOnUse" gradientTransform="translate(250.761 541.928) rotate(42.8973) scale(37.7533 46.6868)">
<stop stop-color="#FFDD00"/>
<stop offset="0.526042" stop-color="#E3C500"/>
<stop offset="1" stop-color="#262100"/>
</radialGradient>
<linearGradient id="paint21_linear_46_1814" x1="205.838" y1="354.763" x2="213.449" y2="367.168" gradientUnits="userSpaceOnUse">
<stop offset="0.03" stop-color="#030303"/>
<stop offset="0.21"/>
<stop offset="0.41" stop-color="#121212"/>
<stop offset="0.6" stop-color="#292929"/>
<stop offset="0.86"/>
<stop offset="0.99" stop-color="#0F0F0F"/>
</linearGradient>
<radialGradient id="paint22_radial_46_1814" cx="0" cy="0" r="1" gradientUnits="userSpaceOnUse" gradientTransform="translate(223.072 338.704) rotate(46.7177) scale(38.1645 47.2378)">
<stop stop-color="#FFDD00"/>
<stop offset="0.526042" stop-color="#E3C500"/>
<stop offset="1" stop-color="#262100"/>
</radialGradient>
<linearGradient id="paint23_linear_46_1814" x1="159.773" y1="172.148" x2="167.384" y2="184.553" gradientUnits="userSpaceOnUse">
<stop offset="0.03" stop-color="#030303"/>
<stop offset="0.21"/>
<stop offset="0.41" stop-color="#121212"/>
<stop offset="0.6" stop-color="#292929"/>
<stop offset="0.86"/>
<stop offset="0.99" stop-color="#0F0F0F"/>
</linearGradient>
<radialGradient id="paint24_radial_46_1814" cx="0" cy="0" r="1" gradientUnits="userSpaceOnUse" gradientTransform="translate(176.983 156.177) rotate(46.6783) scale(38.1368 47.2072)">
<stop stop-color="#FFDD00"/>
<stop offset="0.526042" stop-color="#E3C500"/>
<stop offset="1" stop-color="#262100"/>
</radialGradient>
</defs>
</svg>
