<svg width="370" height="1367" viewBox="0 0 370 1367" fill="none" xmlns="http://www.w3.org/2000/svg">
<path d="M130.495 78.192C139.752 107.844 178.315 234.472 205.343 373.129C245.935 581.387 242.272 721.826 194.7 779.348C145.494 838.85 133.416 948.499 158.811 1105.32C174.652 1203.19 200.987 1289.62 209.204 1315.36H214.402C206.878 1291.85 179.849 1204.08 163.711 1104.48C146.435 997.704 138.416 855.186 198.512 782.516C225.243 750.191 238.609 694.748 238.609 616.732C238.609 551.091 229.105 469.412 210.145 372.188C183.513 235.511 145.643 110.517 135.594 78.2415H130.396L130.495 78.192Z" fill="#011401"/>
<g opacity="0.38" filter="url(#filter0_f_46_1814)">
<path d="M214.748 609.207C241.232 616.979 256.38 644.75 248.608 671.184C240.836 697.668 213.065 712.816 186.631 705.093C160.147 697.321 144.999 669.55 152.771 643.116C160.543 616.632 188.314 601.484 214.748 609.256V609.207Z" fill="#FFDD00" style="mix-blend-mode:color-dodge"/>
</g>
<path d="M235.045 663.309C235.54 666.527 234.748 669.299 232.57 671.725C231.283 673.16 229.204 673.754 227.323 673.16L222.67 671.824L226.778 657.864L231.382 659.2C233.263 659.745 234.699 661.329 234.996 663.26L235.045 663.309Z" fill="url(#paint0_linear_46_1814)"/>
<path d="M211.828 644.55C222.669 647.718 229.451 657.123 226.976 665.539C224.501 673.954 213.709 678.211 202.868 675.043C192.027 671.875 176.137 655.688 177.523 651.035C179.206 645.292 200.987 641.381 211.828 644.55Z" fill="url(#paint1_radial_46_1814)" style="mix-blend-mode:color-dodge"/>
<g opacity="0.38" filter="url(#filter1_f_46_1814)">
<path d="M194.205 404.268C221.58 407.634 241.084 432.534 237.718 459.909C234.352 487.284 209.452 506.788 182.077 503.422C154.702 500.055 135.198 475.155 138.564 447.78C141.93 420.405 166.83 400.902 194.205 404.268Z" fill="#FFDD00" style="mix-blend-mode:color-dodge"/>
</g>
<path d="M223.016 454.366C224.055 457.435 223.709 460.355 221.927 463.078C220.887 464.712 218.957 465.603 216.977 465.355L212.175 464.761L213.957 450.356L218.759 450.95C220.689 451.197 222.372 452.484 222.966 454.366H223.016Z" fill="url(#paint2_linear_46_1814)"/>
<path d="M197.076 439.613C208.264 440.999 216.481 449.167 215.442 457.88C214.402 466.592 204.452 472.533 193.215 471.146C182.027 469.76 163.711 456.395 164.306 451.593C165.048 445.653 185.889 438.227 197.076 439.613Z" fill="url(#paint3_radial_46_1814)" style="mix-blend-mode:color-dodge"/>
<g opacity="0.38" filter="url(#filter2_f_46_1814)">
<path d="M152.969 207.195C180.344 210.561 199.848 235.461 196.482 262.836C193.116 290.211 168.216 309.715 140.841 306.349C113.466 302.983 93.9621 278.083 97.3282 250.708C100.694 223.333 125.594 203.829 152.969 207.195Z" fill="#FFDD00" style="mix-blend-mode:color-dodge"/>
</g>
<path d="M181.779 257.293C182.819 260.362 182.423 263.283 180.69 266.005C179.651 267.639 177.72 268.53 175.74 268.282L170.938 267.688L172.72 253.283L177.522 253.877C179.453 254.124 181.136 255.412 181.779 257.293Z" fill="url(#paint4_linear_46_1814)"/>
<path d="M155.84 242.54C167.028 243.927 175.245 252.095 174.206 260.807C173.117 269.519 163.167 275.46 151.979 274.074C140.791 272.688 122.475 259.322 123.069 254.52C123.812 248.58 144.653 241.154 155.84 242.54Z" fill="url(#paint5_radial_46_1814)" style="mix-blend-mode:color-dodge"/>
<g opacity="0.38" filter="url(#filter3_f_46_1814)">
<path d="M112.019 56.3776C139.394 59.7437 158.898 84.6435 155.532 112.018C152.165 139.393 127.266 158.898 99.8907 155.531C72.5157 152.165 53.0116 127.265 56.3778 99.8903C59.744 72.5153 84.6438 53.0114 112.019 56.3776Z" fill="#FFDD00" style="mix-blend-mode:color-dodge"/>
</g>
<path d="M141.138 106.063C142.178 109.132 141.831 112.053 140.049 114.775C139.01 116.409 137.079 117.3 135.099 117.052L130.297 116.458L132.079 102.053L136.881 102.647C138.812 102.895 140.495 104.182 141.089 106.063H141.138Z" fill="url(#paint6_linear_46_1814)"/>
<path d="M115.199 91.3106C126.386 92.6967 134.604 100.865 133.564 109.577C132.525 118.29 122.575 124.23 111.338 122.844C100.15 121.458 81.8339 108.092 82.428 103.29C83.1705 97.3499 104.011 89.9246 115.199 91.3106Z" fill="url(#paint7_radial_46_1814)" style="mix-blend-mode:color-dodge"/>
<g opacity="0.38" filter="url(#filter4_f_46_1814)">
<path d="M128.564 810.634C155.939 814.001 175.443 838.9 172.076 866.275C168.71 893.65 143.81 913.154 116.435 909.788C89.0604 906.422 69.5564 881.522 72.9226 854.147C76.2887 826.772 101.189 807.268 128.564 810.634Z" fill="#FFDD00" style="mix-blend-mode:color-dodge"/>
</g>
<path d="M157.374 860.732C158.413 863.801 158.067 866.722 156.285 869.445C155.245 871.078 153.315 871.969 151.335 871.722L146.533 871.128L148.315 856.723L153.117 857.317C155.047 857.564 156.73 858.851 157.324 860.732H157.374Z" fill="url(#paint8_linear_46_1814)"/>
<path d="M131.434 845.98C142.622 847.366 150.839 855.534 149.8 864.246C148.76 872.959 138.81 878.899 127.573 877.513C116.386 876.127 98.0696 862.761 98.6637 857.96C99.4062 852.019 120.247 844.594 131.434 845.98Z" fill="url(#paint9_radial_46_1814)" style="mix-blend-mode:color-dodge"/>
<g opacity="0.38" filter="url(#filter5_f_46_1814)">
<path d="M109.704 1027.65C136.831 1022.61 162.919 1040.53 167.969 1067.65C173.018 1094.78 155.098 1120.87 127.97 1125.92C100.843 1130.97 74.7551 1113.05 69.7058 1085.92C64.6565 1058.79 82.5765 1032.7 109.704 1027.65Z" fill="#FFDD00" style="mix-blend-mode:color-dodge"/>
</g>
<g opacity="0.8">
<path d="M152.275 1066.76C154.156 1069.39 154.701 1072.26 153.859 1075.42C153.364 1077.31 151.78 1078.74 149.849 1079.09L145.097 1079.98L142.424 1065.67L147.176 1064.78C149.107 1064.44 151.087 1065.18 152.226 1066.76H152.275Z" fill="url(#paint10_linear_46_1814)"/>
<path d="M123.069 1060.48C134.158 1058.4 144.455 1063.74 146.088 1072.36C147.672 1080.97 139.999 1089.63 128.911 1091.71C117.822 1093.79 96.338 1086.56 95.4469 1081.76C94.3579 1075.87 112.03 1062.51 123.119 1060.48H123.069Z" fill="url(#paint11_radial_46_1814)" style="mix-blend-mode:color-dodge"/>
</g>
<g opacity="0.38" filter="url(#filter6_f_46_1814)">
<path d="M133.761 1216.8C157.919 1203.44 188.313 1212.2 201.679 1236.36C215.045 1260.51 206.283 1290.91 182.125 1304.27C157.968 1317.64 127.573 1308.88 114.208 1284.72C100.842 1260.56 109.604 1230.17 133.761 1216.8Z" fill="#FFDD00" style="mix-blend-mode:color-dodge"/>
</g>
<path d="M186.482 1240.46C189.106 1242.34 190.541 1244.92 190.739 1248.14C190.838 1250.07 189.799 1251.95 188.066 1252.89L183.859 1255.21L176.829 1242.49L181.037 1240.17C182.769 1239.23 184.898 1239.32 186.482 1240.46Z" fill="url(#paint12_linear_46_1814)"/>
<path d="M156.829 1243.73C166.73 1238.28 178.165 1240.07 182.422 1247.74C186.68 1255.41 182.125 1266.06 172.225 1271.55C162.324 1277 139.652 1276.95 137.325 1272.69C134.405 1267.44 146.978 1249.18 156.829 1243.73Z" fill="url(#paint13_radial_46_1814)" style="mix-blend-mode:color-dodge"/>
<g opacity="0.38" filter="url(#filter7_f_46_1814)">
<path d="M228.61 1192C205.096 1206.41 174.355 1199.08 159.9 1175.57C145.495 1152.05 152.821 1121.26 176.335 1106.86C199.849 1092.4 230.64 1099.78 245.045 1123.29C259.5 1146.81 252.124 1177.6 228.61 1192Z" fill="#FFDD00" style="mix-blend-mode:color-dodge"/>
</g>
<path d="M174.851 1170.76C172.128 1168.98 170.594 1166.51 170.247 1163.29C170.049 1161.36 170.99 1159.43 172.673 1158.44L176.781 1155.91L184.355 1168.29L180.247 1170.81C178.563 1171.85 176.435 1171.85 174.801 1170.81L174.851 1170.76Z" fill="#030303"/>
<path d="M204.356 1166.16C194.752 1172.05 183.218 1170.76 178.614 1163.29C174.01 1155.81 178.119 1144.97 187.723 1139.08C197.326 1133.19 219.998 1132.25 222.523 1136.36C225.642 1141.46 213.959 1160.27 204.306 1166.16H204.356Z" fill="url(#paint14_radial_46_1814)" style="mix-blend-mode:color-dodge"/>
<g opacity="0.38" filter="url(#filter8_f_46_1814)">
<path d="M197.72 1003.4C172.176 1013.84 143.019 1001.62 132.574 976.073C122.129 950.53 134.356 921.373 159.9 910.928C185.443 900.482 214.6 912.71 225.045 938.253C235.49 963.796 223.263 992.953 197.72 1003.4Z" fill="#FFDD00" style="mix-blend-mode:color-dodge"/>
</g>
<path d="M148.167 973.744C145.791 971.566 144.653 968.843 144.851 965.626C144.95 963.695 146.237 961.962 148.019 961.22L152.474 959.388L157.969 972.853L153.514 974.684C151.682 975.427 149.603 975.081 148.167 973.793V973.744Z" fill="url(#paint15_linear_46_1814)"/>
<path d="M177.969 973.993C167.524 978.25 156.336 975.131 153.019 967.013C149.703 958.894 155.495 948.845 165.94 944.588C176.385 940.331 198.908 943.053 200.74 947.509C203.017 953.053 188.414 969.686 177.969 973.993Z" fill="url(#paint16_radial_46_1814)" style="mix-blend-mode:color-dodge"/>
<g opacity="0.38" filter="url(#filter9_f_46_1814)">
<path d="M205.938 840.137C181.038 828.207 170.544 798.407 182.425 773.507C194.355 748.607 224.155 738.112 249.055 749.993C273.955 761.923 284.45 791.724 272.569 816.623C260.639 841.523 230.838 852.018 205.938 840.137Z" fill="#FFDD00" style="mix-blend-mode:color-dodge"/>
</g>
<path d="M194.554 783.507C194.554 780.239 195.841 777.616 198.365 775.586C199.9 774.349 201.979 774.151 203.761 774.992L208.118 777.071L201.831 790.189L197.474 788.11C195.692 787.269 194.554 785.487 194.554 783.507Z" fill="url(#paint17_linear_46_1814)"/>
<path d="M214.455 805.733C204.257 800.882 199.109 790.486 202.871 782.566C206.683 774.646 217.97 772.171 228.167 777.071C238.365 781.923 251.433 800.436 249.354 804.842C246.78 810.238 224.652 810.634 214.455 805.733Z" fill="url(#paint18_radial_46_1814)" style="mix-blend-mode:color-dodge"/>
<g opacity="0.38" filter="url(#filter10_f_46_1814)">
<path d="M282.567 594.701C256.974 604.998 227.866 592.523 217.619 566.93C207.323 541.337 219.797 512.23 245.39 501.983C270.983 491.736 300.091 504.161 310.338 529.754C320.634 555.347 308.16 584.454 282.567 594.701Z" fill="#FFDD00" style="mix-blend-mode:color-dodge"/>
</g>
<path d="M233.214 564.751C230.837 562.572 229.748 559.85 229.946 556.583C230.045 554.602 231.332 552.919 233.164 552.177L237.619 550.395L243.015 563.859L238.56 565.642C236.728 566.384 234.649 566.038 233.214 564.701V564.751Z" fill="url(#paint19_linear_46_1814)"/>
<path d="M263.015 565.147C252.521 569.354 241.382 566.137 238.115 558.018C234.848 549.9 240.689 539.851 251.184 535.693C261.679 531.485 284.153 534.356 285.935 538.861C288.163 544.455 273.46 560.988 263.015 565.196V565.147Z" fill="url(#paint20_radial_46_1814)" style="mix-blend-mode:color-dodge"/>
<g opacity="0.38" filter="url(#filter11_f_46_1814)">
<path d="M262.124 387.98C238.61 402.386 207.819 395.059 193.414 371.546C178.959 348.032 186.335 317.241 209.849 302.836C233.362 288.431 264.153 295.757 278.558 319.271C293.013 342.784 285.637 373.575 262.124 387.98Z" fill="#FFDD00" style="mix-blend-mode:color-dodge"/>
</g>
<path d="M208.364 366.741C205.641 364.959 204.107 362.484 203.76 359.266C203.562 357.336 204.503 355.455 206.186 354.415L210.295 351.89L217.918 364.266L213.809 366.791C212.126 367.83 209.998 367.83 208.364 366.791V366.741Z" fill="url(#paint21_linear_46_1814)"/>
<path d="M237.869 362.138C228.265 368.028 216.731 366.741 212.127 359.266C207.524 351.792 211.632 340.95 221.236 335.01C230.839 329.119 253.512 328.179 256.036 332.287C259.155 337.386 247.472 356.197 237.819 362.088L237.869 362.138Z" fill="url(#paint22_radial_46_1814)" style="mix-blend-mode:color-dodge"/>
<g opacity="0.38" filter="url(#filter12_f_46_1814)">
<path d="M216.036 205.415C192.522 219.82 161.732 212.493 147.326 188.98C132.872 165.466 140.247 134.675 163.761 120.27C187.275 105.865 218.066 113.191 232.471 136.705C246.876 160.219 239.55 191.009 216.036 205.415Z" fill="#FFDD00" style="mix-blend-mode:color-dodge"/>
</g>
<path d="M162.325 184.176C159.602 182.394 158.068 179.919 157.721 176.701C157.523 174.77 158.464 172.84 160.147 171.85L164.256 169.325L171.879 181.701L167.77 184.225C166.087 185.265 163.959 185.265 162.325 184.225V184.176Z" fill="url(#paint23_linear_46_1814)"/>
<path d="M191.779 179.572C182.176 185.463 170.641 184.176 166.038 176.701C161.434 169.226 165.543 158.385 175.146 152.494C184.75 146.603 207.422 145.663 209.947 149.772C213.065 154.87 201.383 173.681 191.73 179.572H191.779Z" fill="url(#paint24_radial_46_1814)" style="mix-blend-mode:color-dodge"/>
<defs>
<filter id="filter0_f_46_1814" x="94.7339" y="551.219" width="211.911" height="211.889" filterUnits="userSpaceOnUse" color-interpolation-filters="sRGB">
<feFlood flood-opacity="0" result="BackgroundImageFix"/>
<feBlend mode="normal" in="SourceGraphic" in2="BackgroundImageFix" result="shape"/>
<feGaussianBlur stdDeviation="28" result="effect1_foregroundBlur_46_1814"/>
</filter>
<filter id="filter1_f_46_1814" x="82.1865" y="347.89" width="211.909" height="211.91" filterUnits="userSpaceOnUse" color-interpolation-filters="sRGB">
<feFlood flood-opacity="0" result="BackgroundImageFix"/>
<feBlend mode="normal" in="SourceGraphic" in2="BackgroundImageFix" result="shape"/>
<feGaussianBlur stdDeviation="28" result="effect1_foregroundBlur_46_1814"/>
</filter>
<filter id="filter2_f_46_1814" x="40.9504" y="150.817" width="211.909" height="211.91" filterUnits="userSpaceOnUse" color-interpolation-filters="sRGB">
<feFlood flood-opacity="0" result="BackgroundImageFix"/>
<feBlend mode="normal" in="SourceGraphic" in2="BackgroundImageFix" result="shape"/>
<feGaussianBlur stdDeviation="28" result="effect1_foregroundBlur_46_1814"/>
</filter>
<filter id="filter3_f_46_1814" x="0" y="-0.000488281" width="211.909" height="211.91" filterUnits="userSpaceOnUse" color-interpolation-filters="sRGB">
<feFlood flood-opacity="0" result="BackgroundImageFix"/>
<feBlend mode="normal" in="SourceGraphic" in2="BackgroundImageFix" result="shape"/>
<feGaussianBlur stdDeviation="28" result="effect1_foregroundBlur_46_1814"/>
</filter>
<filter id="filter4_f_46_1814" x="16.5448" y="754.256" width="211.909" height="211.91" filterUnits="userSpaceOnUse" color-interpolation-filters="sRGB">
<feFlood flood-opacity="0" result="BackgroundImageFix"/>
<feBlend mode="normal" in="SourceGraphic" in2="BackgroundImageFix" result="shape"/>
<feGaussianBlur stdDeviation="28" result="effect1_foregroundBlur_46_1814"/>
</filter>
<filter id="filter5_f_46_1814" x="12.8541" y="970.803" width="211.966" height="211.966" filterUnits="userSpaceOnUse" color-interpolation-filters="sRGB">
<feFlood flood-opacity="0" result="BackgroundImageFix"/>
<feBlend mode="normal" in="SourceGraphic" in2="BackgroundImageFix" result="shape"/>
<feGaussianBlur stdDeviation="28" result="effect1_foregroundBlur_46_1814"/>
</filter>
<filter id="filter6_f_46_1814" x="51.9532" y="1154.55" width="211.98" height="211.98" filterUnits="userSpaceOnUse" color-interpolation-filters="sRGB">
<feFlood flood-opacity="0" result="BackgroundImageFix"/>
<feBlend mode="normal" in="SourceGraphic" in2="BackgroundImageFix" result="shape"/>
<feGaussianBlur stdDeviation="28" result="effect1_foregroundBlur_46_1814"/>
</filter>
<filter id="filter7_f_46_1814" x="96.5227" y="1043.46" width="211.922" height="211.921" filterUnits="userSpaceOnUse" color-interpolation-filters="sRGB">
<feFlood flood-opacity="0" result="BackgroundImageFix"/>
<feBlend mode="normal" in="SourceGraphic" in2="BackgroundImageFix" result="shape"/>
<feGaussianBlur stdDeviation="28" result="effect1_foregroundBlur_46_1814"/>
</filter>
<filter id="filter8_f_46_1814" x="72.8419" y="851.195" width="211.936" height="211.936" filterUnits="userSpaceOnUse" color-interpolation-filters="sRGB">
<feFlood flood-opacity="0" result="BackgroundImageFix"/>
<feBlend mode="normal" in="SourceGraphic" in2="BackgroundImageFix" result="shape"/>
<feGaussianBlur stdDeviation="28" result="effect1_foregroundBlur_46_1814"/>
</filter>
<filter id="filter9_f_46_1814" x="121.533" y="689.101" width="211.928" height="211.928" filterUnits="userSpaceOnUse" color-interpolation-filters="sRGB">
<feFlood flood-opacity="0" result="BackgroundImageFix"/>
<feBlend mode="normal" in="SourceGraphic" in2="BackgroundImageFix" result="shape"/>
<feGaussianBlur stdDeviation="28" result="effect1_foregroundBlur_46_1814"/>
</filter>
<filter id="filter10_f_46_1814" x="158.007" y="442.391" width="211.943" height="211.923" filterUnits="userSpaceOnUse" color-interpolation-filters="sRGB">
<feFlood flood-opacity="0" result="BackgroundImageFix"/>
<feBlend mode="normal" in="SourceGraphic" in2="BackgroundImageFix" result="shape"/>
<feGaussianBlur stdDeviation="28" result="effect1_foregroundBlur_46_1814"/>
</filter>
<filter id="filter11_f_46_1814" x="130.014" y="239.458" width="211.944" height="211.899" filterUnits="userSpaceOnUse" color-interpolation-filters="sRGB">
<feFlood flood-opacity="0" result="BackgroundImageFix"/>
<feBlend mode="normal" in="SourceGraphic" in2="BackgroundImageFix" result="shape"/>
<feGaussianBlur stdDeviation="28" result="effect1_foregroundBlur_46_1814"/>
</filter>
<filter id="filter12_f_46_1814" x="83.9269" y="56.8926" width="211.922" height="211.899" filterUnits="userSpaceOnUse" color-interpolation-filters="sRGB">
<feFlood flood-opacity="0" result="BackgroundImageFix"/>
<feBlend mode="normal" in="SourceGraphic" in2="BackgroundImageFix" result="shape"/>
<feGaussianBlur stdDeviation="28" result="effect1_foregroundBlur_46_1814"/>
</filter>
<linearGradient id="paint0_linear_46_1814" x1="227.596" y1="673.295" x2="231.69" y2="659.329" gradientUnits="userSpaceOnUse">
<stop offset="0.03" stop-color="#030303"/>
<stop offset="0.21"/>
<stop offset="0.41" stop-color="#121212"/>
<stop offset="0.6" stop-color="#292929"/>
<stop offset="0.86"/>
<stop offset="0.99" stop-color="#0F0F0F"/>
</linearGradient>
<radialGradient id="paint1_radial_46_1814" cx="0" cy="0" r="1" gradientUnits="userSpaceOnUse" gradientTransform="translate(191.053 651.202) rotate(41.6765) scale(37.8571 46.6261)">
<stop stop-color="#FFDD00"/>
<stop offset="0.526042" stop-color="#E3C500"/>
<stop offset="1" stop-color="#262100"/>
</radialGradient>
<linearGradient id="paint2_linear_46_1814" x1="217.498" y1="465.479" x2="219.266" y2="451.033" gradientUnits="userSpaceOnUse">
<stop offset="0.03" stop-color="#030303"/>
<stop offset="0.21"/>
<stop offset="0.41" stop-color="#121212"/>
<stop offset="0.6" stop-color="#292929"/>
<stop offset="0.86"/>
<stop offset="0.99" stop-color="#0F0F0F"/>
</linearGradient>
<radialGradient id="paint3_radial_46_1814" cx="0" cy="0" r="1" gradientUnits="userSpaceOnUse" gradientTransform="translate(178.231 447.044) rotate(40.3327) scale(37.976 46.4654)">
<stop stop-color="#FFDD00"/>
<stop offset="0.526042" stop-color="#E3C500"/>
<stop offset="1" stop-color="#262100"/>
</radialGradient>
<linearGradient id="paint4_linear_46_1814" x1="176.24" y1="268.417" x2="178.009" y2="253.971" gradientUnits="userSpaceOnUse">
<stop offset="0.03" stop-color="#030303"/>
<stop offset="0.21"/>
<stop offset="0.41" stop-color="#121212"/>
<stop offset="0.6" stop-color="#292929"/>
<stop offset="0.86"/>
<stop offset="0.99" stop-color="#0F0F0F"/>
</linearGradient>
<radialGradient id="paint5_radial_46_1814" cx="0" cy="0" r="1" gradientUnits="userSpaceOnUse" gradientTransform="translate(136.995 249.972) rotate(40.3327) scale(37.976 46.4654)">
<stop stop-color="#FFDD00"/>
<stop offset="0.526042" stop-color="#E3C500"/>
<stop offset="1" stop-color="#262100"/>
</radialGradient>
<linearGradient id="paint6_linear_46_1814" x1="135.604" y1="117.217" x2="137.372" y2="102.771" gradientUnits="userSpaceOnUse">
<stop offset="0.03" stop-color="#030303"/>
<stop offset="0.21"/>
<stop offset="0.41" stop-color="#121212"/>
<stop offset="0.6" stop-color="#292929"/>
<stop offset="0.86"/>
<stop offset="0.99" stop-color="#0F0F0F"/>
</linearGradient>
<radialGradient id="paint7_radial_46_1814" cx="0" cy="0" r="1" gradientUnits="userSpaceOnUse" gradientTransform="translate(96.3531 98.7417) rotate(40.3326) scale(37.9759 46.4653)">
<stop stop-color="#FFDD00"/>
<stop offset="0.526042" stop-color="#E3C500"/>
<stop offset="1" stop-color="#262100"/>
</radialGradient>
<linearGradient id="paint8_linear_46_1814" x1="151.837" y1="871.828" x2="153.6" y2="857.431" gradientUnits="userSpaceOnUse">
<stop offset="0.03" stop-color="#030303"/>
<stop offset="0.21"/>
<stop offset="0.41" stop-color="#121212"/>
<stop offset="0.6" stop-color="#292929"/>
<stop offset="0.86"/>
<stop offset="0.99" stop-color="#0F0F0F"/>
</linearGradient>
<radialGradient id="paint9_radial_46_1814" cx="0" cy="0" r="1" gradientUnits="userSpaceOnUse" gradientTransform="translate(112.589 853.411) rotate(40.3328) scale(37.976 46.4655)">
<stop stop-color="#FFDD00"/>
<stop offset="0.526042" stop-color="#E3C500"/>
<stop offset="1" stop-color="#262100"/>
</radialGradient>
<linearGradient id="paint10_linear_46_1814" x1="144.939" y1="1066.77" x2="150.591" y2="1079.53" gradientUnits="userSpaceOnUse">
<stop offset="0.03" stop-color="#030303"/>
<stop offset="0.21"/>
<stop offset="0.41" stop-color="#121212"/>
<stop offset="0.6" stop-color="#292929"/>
<stop offset="0.86"/>
<stop offset="0.99" stop-color="#0F0F0F"/>
</linearGradient>
<radialGradient id="paint11_radial_46_1814" cx="0" cy="0" r="1" gradientUnits="userSpaceOnUse" gradientTransform="translate(109.245 1067.66) rotate(40.6542) scale(37.9032 46.459)">
<stop stop-color="#FFDD00"/>
<stop offset="0.526042" stop-color="#E3C500"/>
<stop offset="1" stop-color="#262100"/>
</radialGradient>
<linearGradient id="paint12_linear_46_1814" x1="188.496" y1="1252.66" x2="181.454" y2="1239.92" gradientUnits="userSpaceOnUse">
<stop offset="0.03" stop-color="#030303"/>
<stop offset="0.21"/>
<stop offset="0.41" stop-color="#121212"/>
<stop offset="0.6" stop-color="#292929"/>
<stop offset="0.86"/>
<stop offset="0.99" stop-color="#0F0F0F"/>
</linearGradient>
<radialGradient id="paint13_radial_46_1814" cx="0" cy="0" r="1" gradientUnits="userSpaceOnUse" gradientTransform="translate(149.715 1248.96) rotate(45.5228) scale(37.9988 47.1094)">
<stop stop-color="#FFDD00"/>
<stop offset="0.526042" stop-color="#E3C500"/>
<stop offset="1" stop-color="#262100"/>
</radialGradient>
<radialGradient id="paint14_radial_46_1814" cx="0" cy="0" r="1" gradientUnits="userSpaceOnUse" gradientTransform="translate(189.324 1142.42) rotate(46.6783) scale(38.1368 47.2072)">
<stop stop-color="#FFDD00"/>
<stop offset="0.526042" stop-color="#E3C500"/>
<stop offset="1" stop-color="#262100"/>
</radialGradient>
<linearGradient id="paint15_linear_46_1814" x1="147.624" y1="961.513" x2="153.111" y2="974.94" gradientUnits="userSpaceOnUse">
<stop offset="0.03" stop-color="#030303"/>
<stop offset="0.21"/>
<stop offset="0.41" stop-color="#121212"/>
<stop offset="0.6" stop-color="#292929"/>
<stop offset="0.86"/>
<stop offset="0.99" stop-color="#0F0F0F"/>
</linearGradient>
<radialGradient id="paint16_radial_46_1814" cx="0" cy="0" r="1" gradientUnits="userSpaceOnUse" gradientTransform="translate(165.386 950.424) rotate(43.0037) scale(37.7724 46.7229)">
<stop stop-color="#FFDD00"/>
<stop offset="0.526042" stop-color="#E3C500"/>
<stop offset="1" stop-color="#262100"/>
</radialGradient>
<linearGradient id="paint17_linear_46_1814" x1="203.583" y1="774.582" x2="197.299" y2="787.71" gradientUnits="userSpaceOnUse">
<stop offset="0.03" stop-color="#030303"/>
<stop offset="0.21"/>
<stop offset="0.41" stop-color="#121212"/>
<stop offset="0.6" stop-color="#292929"/>
<stop offset="0.86"/>
<stop offset="0.99" stop-color="#0F0F0F"/>
</linearGradient>
<radialGradient id="paint18_radial_46_1814" cx="0" cy="0" r="1" gradientUnits="userSpaceOnUse" gradientTransform="translate(214.681 782.798) rotate(44.5563) scale(38.0059 47.1205)">
<stop stop-color="#FFDD00"/>
<stop offset="0.526042" stop-color="#E3C500"/>
<stop offset="1" stop-color="#262100"/>
</radialGradient>
<linearGradient id="paint19_linear_46_1814" x1="232.693" y1="552.095" x2="238.11" y2="565.603" gradientUnits="userSpaceOnUse">
<stop offset="0.03" stop-color="#030303"/>
<stop offset="0.21"/>
<stop offset="0.41" stop-color="#121212"/>
<stop offset="0.6" stop-color="#292929"/>
<stop offset="0.86"/>
<stop offset="0.99" stop-color="#0F0F0F"/>
</linearGradient>
<radialGradient id="paint20_radial_46_1814" cx="0" cy="0" r="1" gradientUnits="userSpaceOnUse" gradientTransform="translate(250.526 541.588) rotate(42.8973) scale(37.7533 46.6868)">
<stop stop-color="#FFDD00"/>
<stop offset="0.526042" stop-color="#E3C500"/>
<stop offset="1" stop-color="#262100"/>
</radialGradient>
<linearGradient id="paint21_linear_46_1814" x1="205.603" y1="354.423" x2="213.214" y2="366.828" gradientUnits="userSpaceOnUse">
<stop offset="0.03" stop-color="#030303"/>
<stop offset="0.21"/>
<stop offset="0.41" stop-color="#121212"/>
<stop offset="0.6" stop-color="#292929"/>
<stop offset="0.86"/>
<stop offset="0.99" stop-color="#0F0F0F"/>
</linearGradient>
<radialGradient id="paint22_radial_46_1814" cx="0" cy="0" r="1" gradientUnits="userSpaceOnUse" gradientTransform="translate(222.838 338.364) rotate(46.7177) scale(38.1645 47.2378)">
<stop stop-color="#FFDD00"/>
<stop offset="0.526042" stop-color="#E3C500"/>
<stop offset="1" stop-color="#262100"/>
</radialGradient>
<linearGradient id="paint23_linear_46_1814" x1="159.538" y1="171.807" x2="167.149" y2="184.212" gradientUnits="userSpaceOnUse">
<stop offset="0.03" stop-color="#030303"/>
<stop offset="0.21"/>
<stop offset="0.41" stop-color="#121212"/>
<stop offset="0.6" stop-color="#292929"/>
<stop offset="0.86"/>
<stop offset="0.99" stop-color="#0F0F0F"/>
</linearGradient>
<radialGradient id="paint24_radial_46_1814" cx="0" cy="0" r="1" gradientUnits="userSpaceOnUse" gradientTransform="translate(176.748 155.836) rotate(46.6783) scale(38.1368 47.2072)">
<stop stop-color="#FFDD00"/>
<stop offset="0.526042" stop-color="#E3C500"/>
<stop offset="1" stop-color="#262100"/>
</radialGradient>
</defs>
</svg>
