<svg width="224" height="77" viewBox="0 0 224 77" fill="none" xmlns="http://www.w3.org/2000/svg">
<path d="M22.4434 51.9668C22.8213 62.6606 31.5188 71.9542 44.2151 76.8603C42.4658 76.9468 40.6571 76.9917 38.8098 76.9917C15.9396 76.9986 0 70.0665 0 63.8396C0 59.2447 8.69049 54.2591 22.4434 51.9668Z" fill="#35CB33"/>
<path d="M68.3068 74.1181C66.9913 74.6298 65.5849 75.1047 64.0875 75.5426C63.7131 75.6532 63.3388 75.757 62.9504 75.8641C62.5621 75.9713 62.2507 76.0578 61.8764 76.1442L61.5265 76.241C60.8268 76.4116 60.1061 76.5775 59.3644 76.7389C57.4946 76.5666 55.6355 76.2965 53.7946 75.9298C37.8656 72.7801 26.1978 63.0025 26.0684 51.4443C26.0684 51.3786 26.0684 51.3129 26.0684 51.2472C26.0684 50.7044 26.0963 50.165 26.1453 49.6361C30.3525 49.1344 34.5866 48.8862 38.8242 48.8927C42.5354 48.8913 46.2442 49.0794 49.9357 49.4563C50.0966 50.0821 50.2856 50.7044 50.478 51.3198C53.2912 60.029 58.8975 67.5961 66.449 72.8769C67.0473 73.3091 67.6735 73.724 68.3068 74.1181Z" fill="rgb(36, 36, 36)"/>
<path d="M72.6228 76.4797C70.3233 76.7926 68.0062 76.9624 65.6851 76.9879C65.4087 76.9879 65.1358 76.9879 64.8594 76.9879C62.9877 76.9879 61.1509 76.898 59.3527 76.7286C57.4829 76.5563 55.6237 76.2862 53.7829 75.9195C37.8539 72.7698 26.1861 62.9922 26.0566 51.434C26.0566 51.3683 26.0566 51.3026 26.0566 51.2369C26.0566 50.6941 26.0846 50.1547 26.1336 49.6258C26.1889 48.9998 26.2812 48.3775 26.41 47.7622C28.2782 38.5689 37.5075 30.8934 50.0289 27.4429C48.1885 34.0159 47.9952 40.9329 49.4657 47.5963C49.5986 48.222 49.7491 48.8409 49.924 49.4564C50.0989 50.0718 50.2738 50.7045 50.4663 51.3199C53.2795 60.0291 58.8857 67.5962 66.4373 72.877C67.0495 73.3092 67.6758 73.7241 68.309 74.1182C68.9423 74.5124 69.628 74.9203 70.3067 75.2937C71.0601 75.7132 71.8321 76.1086 72.6228 76.4797Z" fill="#35CB33"/>
<path d="M143.826 6.5637C144.668 6.54422 145.505 6.69383 146.287 7.00345C147.069 7.31308 147.779 7.77628 148.374 8.36502C148.974 8.93577 149.448 9.62297 149.766 10.3834C150.083 11.1438 150.239 11.961 150.222 12.7836C150.239 13.6068 150.084 14.4246 149.766 15.1856C149.448 15.9466 148.974 16.6344 148.374 17.2057C147.778 17.7938 147.068 18.2565 146.287 18.5661C145.505 18.8757 144.668 19.0257 143.826 19.007H140.53V25.0955H136.836V6.5637H143.826ZM143.826 15.5911C144.192 15.6009 144.555 15.5339 144.892 15.3944C145.229 15.2549 145.532 15.0462 145.782 14.782C146.039 14.5166 146.24 14.2032 146.374 13.8601C146.507 13.517 146.57 13.151 146.559 12.7836C146.572 12.4139 146.51 12.0454 146.376 11.6997C146.243 11.3541 146.041 11.0384 145.782 10.7714C145.53 10.511 145.226 10.3056 144.889 10.1687C144.552 10.0317 144.19 9.96611 143.826 9.97618H140.53V15.5911H143.826Z" fill="rgb(36, 36, 36)"/>
<path d="M162.93 25.0954L159.151 18.6611H156.353V25.0954H152.641V6.56351H160.142C160.96 6.56078 161.771 6.71752 162.527 7.02476C163.284 7.33199 163.972 7.78369 164.552 8.35402C165.132 8.92434 165.593 9.6021 165.908 10.3485C166.222 11.0949 166.385 11.8953 166.387 12.7039C166.389 13.8424 166.043 14.955 165.393 15.8951C164.746 16.8611 163.837 17.627 162.769 18.1044L166.922 25.0954H162.93ZM156.339 9.976V15.4595H160.142C160.482 15.4612 160.819 15.3897 161.129 15.25C161.439 15.1103 161.714 14.9057 161.936 14.6504C162.433 14.1228 162.702 13.4244 162.685 12.7039C162.701 11.9871 162.431 11.2929 161.933 10.7712C161.709 10.52 161.433 10.319 161.124 10.1818C160.815 10.0447 160.48 9.97447 160.142 9.976H156.339Z" fill="rgb(36, 36, 36)"/>
<path d="M184.655 22.6717C183.293 24.0281 181.553 24.9527 179.657 25.3275C177.761 25.7023 175.795 25.5104 174.01 24.7762C172.225 24.042 170.702 22.7988 169.635 21.2053C168.568 19.6117 168.005 17.7402 168.019 15.8294C167.994 14.5585 168.231 13.2958 168.716 12.1186C169.202 10.9415 169.925 9.87469 170.843 8.98371C172.686 7.19561 175.166 6.19385 177.749 6.19385C180.332 6.19385 182.812 7.19561 184.655 8.98371C185.578 9.87173 186.306 10.9376 186.795 12.1151C187.283 13.2927 187.522 14.5569 187.496 15.8294C187.523 17.1015 187.284 18.3653 186.795 19.5423C186.307 20.7194 185.578 21.7846 184.655 22.6717ZM173.428 20.1823C174.591 21.2784 176.135 21.89 177.742 21.89C179.349 21.89 180.894 21.2784 182.056 20.1823C182.634 19.614 183.087 18.9343 183.388 18.1855C183.689 17.4367 183.831 16.6347 183.805 15.8294C183.83 15.0216 183.688 14.2172 183.388 13.4656C183.087 12.7141 182.634 12.0313 182.056 11.4592C180.897 10.3568 179.351 9.74094 177.742 9.74094C176.133 9.74094 174.587 10.3568 173.428 11.4592C172.85 12.0312 172.397 12.7139 172.096 13.4655C171.795 14.2171 171.653 15.0216 171.679 15.8294C171.653 16.6347 171.795 17.4367 172.096 18.1855C172.397 18.9343 172.85 19.614 173.428 20.1823Z" fill="rgb(36, 36, 36)"/>
<path d="M201.291 10.0589H193.79V14.4706H201.077V17.9626H193.79V25.0953H190.092V6.56348H201.287L201.291 10.0589Z" fill="rgb(36, 36, 36)"/>
<path d="M203.996 6.56348H207.694V25.0953H203.996V6.56348Z" fill="rgb(36, 36, 36)"/>
<path d="M223.581 6.56348V10.0589H218.515V25.0953H214.813V10.0589H209.775V6.56348H223.581Z" fill="rgb(36, 36, 36)"/>
<path d="M152.616 44.6821C151.255 46.0384 149.515 46.963 147.619 47.3379C145.723 47.7127 143.757 47.5208 141.972 46.7866C140.186 46.0523 138.663 44.8091 137.596 43.2156C136.529 41.6221 135.967 39.7506 135.981 37.8398C135.981 35.2879 137.007 32.8405 138.832 31.036C140.658 29.2315 143.135 28.2178 145.717 28.2178C148.3 28.2178 150.776 29.2315 152.602 31.036C154.428 32.8405 155.454 35.2879 155.454 37.8398C155.481 39.1116 155.243 40.3753 154.755 41.5524C154.267 42.7295 153.539 43.7948 152.616 44.6821ZM141.39 42.1962C142.243 43.0504 143.336 43.6314 144.528 43.8639C145.72 44.0964 146.954 43.9697 148.072 43.5001C149.19 43.0305 150.139 42.2397 150.797 41.2304C151.454 40.2211 151.79 39.0398 151.759 37.8398C151.785 37.0325 151.643 36.2285 151.342 35.4774C151.041 34.7264 150.588 34.0442 150.01 33.4731C148.852 32.3682 147.306 31.7507 145.696 31.7507C144.087 31.7507 142.54 32.3682 141.383 33.4731C140.804 34.0441 140.351 34.7262 140.05 35.4773C139.749 36.2284 139.607 37.0324 139.633 37.8398C139.608 38.6462 139.751 39.4491 140.053 40.1986C140.355 40.9481 140.81 41.628 141.39 42.1962Z" fill="rgb(36, 36, 36)"/>
<path d="M168.9 28.5737H172.598V47.1056H169.799L161.752 35.7756V47.1056H158.051V28.5737H160.85L168.896 39.8795L168.9 28.5737Z" fill="rgb(36, 36, 36)"/>
<path d="M140.748 69.1158L135.5 50.584H139.383L142.973 64.3238L146.884 50.584H150.033L153.969 64.3238L157.559 50.584H161.445L156.198 69.1158H151.999L148.462 56.8869L144.964 69.1158H140.748Z" fill="rgb(36, 36, 36)"/>
<path d="M167.296 65.6409H175.199V69.1329H163.598V50.6011H175.063V54.0965H167.296V58.0346H174.394V61.4747H167.296V65.6409Z" fill="rgb(36, 36, 36)"/>
<path d="M181.493 65.6409H189.397V69.1329H177.799V50.6011H189.274V54.0965H181.493V58.0346H188.592V61.4747H181.493V65.6409Z" fill="rgb(36, 36, 36)"/>
<path d="M199.441 50.5834C200.645 50.5554 201.842 50.7794 202.953 51.2406C204.063 51.7018 205.063 52.3898 205.885 53.2594C207.549 55.0613 208.471 57.4122 208.471 59.851C208.471 62.2899 207.549 64.6408 205.885 66.4426C205.063 67.3119 204.063 67.9993 202.952 68.4599C201.842 68.9205 200.645 69.1438 199.441 69.1152H191.996V50.5834H199.441ZM199.441 65.6232C200.18 65.6497 200.916 65.5203 201.6 65.2437C202.284 64.9671 202.9 64.5496 203.408 64.019C204.427 62.9506 204.934 61.5642 204.934 59.8493C204.934 58.1344 204.427 56.7376 203.408 55.6796C202.9 55.1495 202.284 54.7325 201.599 54.4565C200.915 54.1805 200.18 54.0517 199.441 54.0788H195.691V65.6405L199.441 65.6232Z" fill="rgb(36, 36, 36)"/>
<path d="M90.9137 0.295153C83.4962 0.302854 76.2359 2.40801 69.99 6.36202C63.7441 10.316 58.7736 15.9538 55.6655 22.6094C55.3681 23.2456 55.0882 23.8887 54.8258 24.5456C54.5634 25.2025 54.3255 25.8387 54.1016 26.4956C51.7577 33.4494 51.4737 40.9204 53.283 48.0285C53.4439 48.6762 53.6247 49.3146 53.8252 49.9439C54.0212 50.587 54.2416 51.2162 54.476 51.8489C57.4733 59.874 63.0871 66.6856 70.433 71.2106C71.0418 71.5874 71.6715 71.9539 72.3083 72.2962C72.945 72.6385 73.6027 72.9877 74.264 73.2816C75.8428 74.03 77.4724 74.6689 79.141 75.1935C80.2291 75.5393 81.3381 75.8366 82.4647 76.0786C83.5912 76.3207 84.7842 76.5385 85.9632 76.6871C87.6026 76.8958 89.2538 76.9998 90.9067 76.9983C96.0341 77.0469 101.12 76.0909 105.872 74.1855C110.623 72.2802 114.945 69.4632 118.588 65.8975C122.232 62.3318 125.124 58.088 127.098 53.4112C129.071 48.7344 130.088 43.7175 130.088 38.6502C130.089 33.583 129.073 28.5658 127.1 23.8887C125.127 19.2116 122.236 14.9673 118.593 11.4009C114.951 7.83451 110.629 5.01682 105.878 3.11062C101.127 1.20442 96.0411 0.247501 90.9137 0.295153ZM101.721 53.3045C107.487 53.3737 113.046 55.863 113.046 55.863C113.046 55.863 106.906 57.5641 101.231 56.8588C97.6146 56.3805 94.0568 55.5395 90.6129 54.3487C91.7892 55.2899 92.8695 56.3425 93.8385 57.4915C94.8016 58.7353 95.5293 60.1409 95.9867 61.6404C94.6664 60.7183 93.5172 59.5779 92.5896 58.2694C91.7972 57.0325 91.1349 55.7187 90.6129 54.3487C90.8577 55.4101 90.9102 58.6359 90.9102 58.6359H90.2525C90.2245 57.4154 90.6024 54.3348 90.6024 54.3314C90.0797 55.7007 89.4162 57.0133 88.6222 58.2486C87.6964 59.5575 86.5482 60.698 85.2285 61.6196C85.6859 60.1201 86.4136 58.7146 87.3767 57.4707C88.3457 56.3217 89.426 55.2691 90.6024 54.3279C87.1572 55.519 83.5983 56.36 79.9807 56.838C74.306 57.5295 68.1659 55.8423 68.1659 55.8423C68.1659 55.8423 73.7252 53.3529 79.4909 53.2838C83.22 53.2727 86.9413 53.6201 90.6024 54.321C85.7023 51.8963 81.0639 48.9863 76.7585 45.6359C70.0517 40.3253 65.486 32.0067 65.486 32.0067C65.486 32.0067 74.0191 35.3535 80.1171 41.4386C84.0315 45.4012 87.5467 49.7307 90.6129 54.366C88.7 47.2956 87.4942 40.0568 87.0128 32.7535C86.3621 21.3578 90.6129 9.72357 90.6129 9.72357C90.6129 9.72357 94.8601 21.3578 94.2164 32.7363C93.7339 40.0396 92.5269 47.2784 90.6129 54.3487C93.68 49.7194 97.1951 45.3958 101.109 41.4386C107.196 35.3535 115.726 32.0344 115.726 32.0344C115.726 32.0344 111.178 40.353 104.453 45.6636C100.149 49.0138 95.5117 51.9237 90.6129 54.3487C94.2725 53.6456 97.9927 53.2959 101.721 53.3045Z" fill="#35CB33"/>
</svg>
