<svg width="29" height="29" viewBox="0 0 29 29" fill="none" xmlns="http://www.w3.org/2000/svg">
<path d="M18.204 10.4994C18.0616 10.4994 17.9224 10.5417 17.804 10.6209C17.6856 10.7001 17.5933 10.8127 17.5388 10.9445C17.4843 11.0762 17.4701 11.2212 17.4978 11.3611C17.5256 11.5009 17.5942 11.6294 17.6949 11.7303C17.7956 11.8311 17.9239 11.8998 18.0635 11.9276C18.2032 11.9554 18.348 11.9411 18.4795 11.8866C18.6111 11.832 18.7235 11.7396 18.8027 11.621C18.8818 11.5024 18.924 11.363 18.924 11.2204C18.924 11.0292 18.8481 10.8458 18.7131 10.7106C18.5781 10.5753 18.395 10.4994 18.204 10.4994ZM20.964 11.9535C20.9523 11.4549 20.8591 10.9617 20.688 10.4934C20.5354 10.0927 20.298 9.72985 19.992 9.42985C19.6949 9.12187 19.3317 8.88558 18.93 8.73887C18.4636 8.56231 17.9705 8.4668 17.472 8.45646C16.836 8.42041 16.632 8.42041 15 8.42041C13.368 8.42041 13.164 8.42041 12.528 8.45646C12.0295 8.4668 11.5364 8.56231 11.07 8.73887C10.669 8.88707 10.3062 9.12315 10.008 9.42985C9.70046 9.72738 9.46451 10.0911 9.318 10.4934C9.1417 10.9604 9.04633 11.4542 9.036 11.9535C9 12.5904 9 12.7947 9 14.429C9 16.0633 9 16.2676 9.036 16.9045C9.04633 17.4038 9.1417 17.8975 9.318 18.3646C9.46451 18.7669 9.70046 19.1306 10.008 19.4281C10.3062 19.7348 10.669 19.9709 11.07 20.1191C11.5364 20.2957 12.0295 20.3912 12.528 20.4015C13.164 20.4376 13.368 20.4376 15 20.4376C16.632 20.4376 16.836 20.4376 17.472 20.4015C17.9705 20.3912 18.4636 20.2957 18.93 20.1191C19.3317 19.9724 19.6949 19.7361 19.992 19.4281C20.2993 19.1293 20.537 18.7661 20.688 18.3646C20.8591 17.8963 20.9523 17.4031 20.964 16.9045C20.964 16.2676 21 16.0633 21 14.429C21 12.7947 21 12.5904 20.964 11.9535ZM19.884 16.8324C19.8796 17.2138 19.8107 17.5917 19.68 17.95C19.5842 18.2115 19.4303 18.4478 19.23 18.641C19.0354 18.8396 18.7999 18.9934 18.54 19.0917C18.1822 19.2225 17.8049 19.2916 17.424 19.2959C16.824 19.326 16.602 19.332 15.024 19.332C13.446 19.332 13.224 19.332 12.624 19.2959C12.2285 19.3034 11.8348 19.2424 11.46 19.1157C11.2115 19.0124 10.9868 18.859 10.8 18.665C10.6009 18.472 10.4489 18.2355 10.356 17.9741C10.2095 17.6106 10.1283 17.2242 10.116 16.8324C10.116 16.2316 10.08 16.0093 10.08 14.429C10.08 12.8487 10.08 12.6264 10.116 12.0256C10.1187 11.6356 10.1898 11.2492 10.326 10.8839C10.4316 10.6303 10.5938 10.4042 10.8 10.223C10.9823 10.0164 11.2076 9.85231 11.46 9.7423C11.8257 9.61014 12.2112 9.54106 12.6 9.53801C13.2 9.53801 13.422 9.50196 15 9.50196C16.578 9.50196 16.8 9.50196 17.4 9.53801C17.7809 9.54238 18.1582 9.61146 18.516 9.7423C18.7887 9.84363 19.0334 10.0084 19.23 10.223C19.4266 10.4076 19.5803 10.6332 19.68 10.8839C19.8134 11.2498 19.8824 11.6361 19.884 12.0256C19.914 12.6264 19.92 12.8487 19.92 14.429C19.92 16.0093 19.914 16.2316 19.884 16.8324ZM15 11.3466C14.3915 11.3478 13.797 11.5296 13.2916 11.869C12.7862 12.2084 12.3926 12.6902 12.1606 13.2536C11.9285 13.8169 11.8684 14.4365 11.9879 15.034C12.1073 15.6315 12.4009 16.1802 12.8316 16.6107C13.2623 17.0412 13.8108 17.3342 14.4077 17.4526C15.0046 17.5711 15.6232 17.5097 16.1853 17.2762C16.7474 17.0427 17.2277 16.6476 17.5657 16.1409C17.9036 15.6341 18.084 15.0384 18.084 14.429C18.0848 14.0235 18.0055 13.6218 17.8507 13.2471C17.696 12.8724 17.4687 12.532 17.1821 12.2455C16.8955 11.959 16.5552 11.7321 16.1807 11.5779C15.8062 11.4236 15.4049 11.345 15 11.3466ZM15 16.4299C14.6048 16.4299 14.2185 16.3125 13.89 16.0926C13.5614 15.8728 13.3053 15.5603 13.1541 15.1947C13.0029 14.8291 12.9633 14.4268 13.0404 14.0386C13.1175 13.6505 13.3078 13.294 13.5872 13.0142C13.8666 12.7343 14.2226 12.5438 14.6102 12.4666C14.9978 12.3894 15.3995 12.429 15.7646 12.5804C16.1297 12.7319 16.4417 12.9883 16.6613 13.3174C16.8808 13.6464 16.998 14.0333 16.998 14.429C16.998 14.6918 16.9463 14.9519 16.8459 15.1947C16.7455 15.4374 16.5983 15.658 16.4128 15.8438C16.2273 16.0296 16.007 16.177 15.7646 16.2775C15.5222 16.3781 15.2624 16.4299 15 16.4299Z" fill="#F8F8F8"/>
<circle cx="14.5" cy="14.5" r="14.25" stroke="#E0E0E0" stroke-width="0.5"/>
</svg>
