<svg width="366" height="139" viewBox="0 0 366 139" fill="none" xmlns="http://www.w3.org/2000/svg">
<path d="M13.136 32.288C11.744 32.288 10.504 31.944 9.416 31.256C8.328 30.568 7.472 29.576 6.848 28.28C6.24 26.968 5.936 25.408 5.936 23.6C5.936 21.792 6.24 20.24 6.848 18.944C7.472 17.632 8.328 16.632 9.416 15.944C10.504 15.256 11.744 14.912 13.136 14.912C14.528 14.912 15.768 15.256 16.856 15.944C17.944 16.632 18.792 17.632 19.4 18.944C20.024 20.24 20.336 21.792 20.336 23.6C20.336 25.408 20.024 26.968 19.4 28.28C18.792 29.576 17.944 30.568 16.856 31.256C15.768 31.944 14.528 32.288 13.136 32.288ZM13.136 29C14.16 29 14.96 28.56 15.536 27.68C16.128 26.8 16.424 25.44 16.424 23.6C16.424 21.76 16.128 20.4 15.536 19.52C14.96 18.64 14.16 18.2 13.136 18.2C12.128 18.2 11.328 18.64 10.736 19.52C10.16 20.4 9.872 21.76 9.872 23.6C9.872 25.44 10.16 26.8 10.736 27.68C11.328 28.56 12.128 29 13.136 29ZM29.8387 22.04C31.3107 22.28 32.4387 22.832 33.2227 23.696C34.0067 24.544 34.3987 25.6 34.3987 26.864C34.3987 27.84 34.1427 28.744 33.6307 29.576C33.1187 30.392 32.3347 31.048 31.2787 31.544C30.2387 32.04 28.9587 32.288 27.4387 32.288C26.2547 32.288 25.0867 32.136 23.9347 31.832C22.7987 31.512 21.8307 31.064 21.0307 30.488L22.5427 27.512C23.1827 27.992 23.9187 28.368 24.7507 28.64C25.5987 28.896 26.4627 29.024 27.3427 29.024C28.3187 29.024 29.0867 28.84 29.6467 28.472C30.2067 28.088 30.4867 27.552 30.4867 26.864C30.4867 25.488 29.4387 24.8 27.3427 24.8H25.5667V22.232L29.0227 18.32H21.8707V15.2H33.6307V17.72L29.8387 22.04Z" fill="#35CB33"/>
<g filter="url(#filter0_f_20_229)">
<mask id="path-2-inside-1_20_229" fill="white">
<path fill-rule="evenodd" clip-rule="evenodd" d="M4.5 59C32.3904 59 55 36.3904 55 8.5C55 6.64151 54.8996 4.80647 54.7039 3H363V136H3V58.9781C3.49822 58.9927 3.99826 59 4.5 59Z"/>
</mask>
<path d="M54.7039 3V2H53.5898L53.7098 3.10768L54.7039 3ZM363 3H364V2H363V3ZM363 136V137H364V136H363ZM3 136H2V137H3V136ZM3 58.9781L3.02916 57.9786L2 57.9486V58.9781H3ZM54 8.5C54 35.8381 31.8381 58 4.5 58V60C32.9427 60 56 36.9427 56 8.5H54ZM53.7098 3.10768C53.9016 4.87845 54 6.67755 54 8.5H56C56 6.60547 55.8977 4.73448 55.6981 2.89232L53.7098 3.10768ZM54.7039 4H363V2H54.7039V4ZM362 3V136H364V3H362ZM363 135H3V137H363V135ZM4 136V58.9781H2V136H4ZM4.5 58C4.00798 58 3.51767 57.9928 3.02916 57.9786L2.97084 59.9777C3.47878 59.9925 3.98854 60 4.5 60V58Z" fill="#35CB33" mask="url(#path-2-inside-1_20_229)"/>
</g>
<mask id="path-4-inside-2_20_229" fill="white">
<path fill-rule="evenodd" clip-rule="evenodd" d="M4.5 59C32.3904 59 55 36.3904 55 8.5C55 6.64151 54.8996 4.80647 54.7039 3H363V136H3V58.9781C3.49822 58.9927 3.99826 59 4.5 59Z"/>
</mask>
<path d="M54.7039 3V2H53.5898L53.7098 3.10768L54.7039 3ZM363 3H364V2H363V3ZM363 136V137H364V136H363ZM3 136H2V137H3V136ZM3 58.9781L3.02916 57.9786L2 57.9486V58.9781H3ZM54 8.5C54 35.8381 31.8381 58 4.5 58V60C32.9427 60 56 36.9427 56 8.5H54ZM53.7098 3.10768C53.9016 4.87845 54 6.67755 54 8.5H56C56 6.60547 55.8977 4.73448 55.6981 2.89232L53.7098 3.10768ZM54.7039 4H363V2H54.7039V4ZM362 3V136H364V3H362ZM363 135H3V137H363V135ZM4 136V58.9781H2V136H4ZM4.5 58C4.00798 58 3.51767 57.9928 3.02916 57.9786L2.97084 59.9777C3.47878 59.9925 3.98854 60 4.5 60V58Z" fill="#35CB33" mask="url(#path-4-inside-2_20_229)"/>
<defs>
<filter id="filter0_f_20_229" x="0" y="0" width="366" height="139" filterUnits="userSpaceOnUse" color-interpolation-filters="sRGB">
<feFlood flood-opacity="0" result="BackgroundImageFix"/>
<feBlend mode="normal" in="SourceGraphic" in2="BackgroundImageFix" result="shape"/>
<feGaussianBlur stdDeviation="1.5" result="effect1_foregroundBlur_20_229"/>
</filter>
</defs>
</svg>
