<svg width="366" height="139" viewBox="0 0 366 139" fill="none" xmlns="http://www.w3.org/2000/svg">
<path d="M13.136 32.288C11.744 32.288 10.504 31.944 9.416 31.256C8.328 30.568 7.472 29.576 6.848 28.28C6.24 26.968 5.936 25.408 5.936 23.6C5.936 21.792 6.24 20.24 6.848 18.944C7.472 17.632 8.328 16.632 9.416 15.944C10.504 15.256 11.744 14.912 13.136 14.912C14.528 14.912 15.768 15.256 16.856 15.944C17.944 16.632 18.792 17.632 19.4 18.944C20.024 20.24 20.336 21.792 20.336 23.6C20.336 25.408 20.024 26.968 19.4 28.28C18.792 29.576 17.944 30.568 16.856 31.256C15.768 31.944 14.528 32.288 13.136 32.288ZM13.136 29C14.16 29 14.96 28.56 15.536 27.68C16.128 26.8 16.424 25.44 16.424 23.6C16.424 21.76 16.128 20.4 15.536 19.52C14.96 18.64 14.16 18.2 13.136 18.2C12.128 18.2 11.328 18.64 10.736 19.52C10.16 20.4 9.872 21.76 9.872 23.6C9.872 25.44 10.16 26.8 10.736 27.68C11.328 28.56 12.128 29 13.136 29ZM34.6364 28.832V32H21.9404V29.48L28.4204 23.36C29.1084 22.704 29.5724 22.144 29.8124 21.68C30.0524 21.2 30.1724 20.728 30.1724 20.264C30.1724 19.592 29.9404 19.08 29.4764 18.728C29.0284 18.36 28.3644 18.176 27.4844 18.176C26.7484 18.176 26.0844 18.32 25.4924 18.608C24.9004 18.88 24.4044 19.296 24.0044 19.856L21.1724 18.032C21.8284 17.056 22.7324 16.296 23.8844 15.752C25.0364 15.192 26.3564 14.912 27.8444 14.912C29.0924 14.912 30.1804 15.12 31.1084 15.536C32.0524 15.936 32.7804 16.512 33.2924 17.264C33.8204 18 34.0844 18.872 34.0844 19.88C34.0844 20.792 33.8924 21.648 33.5084 22.448C33.1244 23.248 32.3804 24.16 31.2764 25.184L27.4124 28.832H34.6364Z" fill="#35CB33"/>
<g filter="url(#filter0_f_20_220)">
<mask id="path-2-inside-1_20_220" fill="white">
<path fill-rule="evenodd" clip-rule="evenodd" d="M4.5 59C32.3904 59 55 36.3904 55 8.5C55 6.64151 54.8996 4.80647 54.7039 3H363V136H3V58.9781C3.49822 58.9927 3.99826 59 4.5 59Z"/>
</mask>
<path d="M54.7039 3V2H53.5898L53.7098 3.10768L54.7039 3ZM363 3H364V2H363V3ZM363 136V137H364V136H363ZM3 136H2V137H3V136ZM3 58.9781L3.02916 57.9786L2 57.9486V58.9781H3ZM54 8.5C54 35.8381 31.8381 58 4.5 58V60C32.9427 60 56 36.9427 56 8.5H54ZM53.7098 3.10768C53.9016 4.87845 54 6.67755 54 8.5H56C56 6.60547 55.8977 4.73448 55.6981 2.89232L53.7098 3.10768ZM54.7039 4H363V2H54.7039V4ZM362 3V136H364V3H362ZM363 135H3V137H363V135ZM4 136V58.9781H2V136H4ZM4.5 58C4.00798 58 3.51767 57.9928 3.02916 57.9786L2.97084 59.9777C3.47878 59.9925 3.98854 60 4.5 60V58Z" fill="#35CB33" mask="url(#path-2-inside-1_20_220)"/>
</g>
<mask id="path-4-inside-2_20_220" fill="white">
<path fill-rule="evenodd" clip-rule="evenodd" d="M4.5 59C32.3904 59 55 36.3904 55 8.5C55 6.64151 54.8996 4.80647 54.7039 3H363V136H3V58.9781C3.49822 58.9927 3.99826 59 4.5 59Z"/>
</mask>
<path d="M54.7039 3V2H53.5898L53.7098 3.10768L54.7039 3ZM363 3H364V2H363V3ZM363 136V137H364V136H363ZM3 136H2V137H3V136ZM3 58.9781L3.02916 57.9786L2 57.9486V58.9781H3ZM54 8.5C54 35.8381 31.8381 58 4.5 58V60C32.9427 60 56 36.9427 56 8.5H54ZM53.7098 3.10768C53.9016 4.87845 54 6.67755 54 8.5H56C56 6.60547 55.8977 4.73448 55.6981 2.89232L53.7098 3.10768ZM54.7039 4H363V2H54.7039V4ZM362 3V136H364V3H362ZM363 135H3V137H363V135ZM4 136V58.9781H2V136H4ZM4.5 58C4.00798 58 3.51767 57.9928 3.02916 57.9786L2.97084 59.9777C3.47878 59.9925 3.98854 60 4.5 60V58Z" fill="#35CB33" mask="url(#path-4-inside-2_20_220)"/>
<defs>
<filter id="filter0_f_20_220" x="0" y="0" width="366" height="139" filterUnits="userSpaceOnUse" color-interpolation-filters="sRGB">
<feFlood flood-opacity="0" result="BackgroundImageFix"/>
<feBlend mode="normal" in="SourceGraphic" in2="BackgroundImageFix" result="shape"/>
<feGaussianBlur stdDeviation="1.5" result="effect1_foregroundBlur_20_220"/>
</filter>
</defs>
</svg>
