<svg width="197" height="116" viewBox="0 0 197 116" fill="none" xmlns="http://www.w3.org/2000/svg">
<path d="M33.8342 77.8989C34.4038 94.0202 47.5155 108.031 66.6557 115.427C64.0186 115.557 61.2918 115.625 58.507 115.625C24.0294 115.635 0 105.185 0 95.7976C0 88.8706 13.1012 81.3546 33.8342 77.8989Z" fill="#35CB33"/>
<path d="M102.975 111.293C100.992 112.065 98.8713 112.781 96.6139 113.441C96.0495 113.608 95.4852 113.764 94.8998 113.926C94.3143 114.087 93.8449 114.217 93.2806 114.348L92.7532 114.494C91.6983 114.751 90.6118 115.001 89.4937 115.244C86.675 114.985 83.8722 114.577 81.0971 114.025C57.0835 109.276 39.494 94.5362 39.2988 77.1119C39.2988 77.0128 39.2988 76.9138 39.2988 76.8148C39.2988 75.9965 39.341 75.1834 39.4149 74.3859C45.7572 73.6296 52.1403 73.2554 58.5287 73.2653C64.1234 73.2631 69.7145 73.5467 75.2796 74.1149C75.5222 75.0583 75.807 75.9965 76.0971 76.9242C80.3381 90.0536 88.7898 101.461 100.174 109.422C101.076 110.074 102.02 110.699 102.975 111.293Z" fill="#F2F2F2"/>
<path d="M109.481 114.853C106.015 115.325 102.522 115.581 99.0225 115.619C98.6058 115.619 98.1944 115.619 97.7777 115.619C94.956 115.619 92.187 115.484 89.4761 115.228C86.6574 114.968 83.8546 114.561 81.0795 114.009C57.066 109.26 39.4764 94.5202 39.2812 77.0958C39.2812 76.9968 39.2812 76.8978 39.2812 76.7987C39.2812 75.9804 39.3234 75.1673 39.3973 74.3698C39.4807 73.4262 39.6198 72.4881 39.8139 71.5605C42.6304 57.7012 56.5438 46.1302 75.4203 40.9284C72.6458 50.8374 72.3544 61.265 74.5711 71.3103C74.7715 72.2537 74.9983 73.1867 75.262 74.1144C75.5258 75.0422 75.7895 75.9961 76.0796 76.9238C80.3206 90.0532 88.7722 101.461 100.156 109.422C101.079 110.073 102.023 110.699 102.978 111.293C103.933 111.887 104.967 112.502 105.99 113.065C107.125 113.698 108.289 114.294 109.481 114.853Z" fill="#35CB33"/>
<path d="M137.055 0.00255682C125.873 0.0141655 114.928 3.18775 105.512 9.14855C96.0964 15.1094 88.6033 23.6084 83.9176 33.6421C83.4693 34.6011 83.0474 35.5706 82.6518 36.5609C82.2562 37.5512 81.8976 38.5102 81.56 39.5006C78.0266 49.9837 77.5983 61.2465 80.3259 71.9621C80.5685 72.9385 80.841 73.901 81.1434 74.8497C81.4387 75.8191 81.771 76.7677 82.1244 77.7216C86.6429 89.8197 95.1059 100.088 106.18 106.91C107.098 107.478 108.047 108.03 109.007 108.546C109.967 109.062 110.959 109.589 111.955 110.032C114.336 111.16 116.792 112.123 119.308 112.914C120.948 113.436 122.62 113.884 124.318 114.249C126.017 114.613 127.815 114.942 129.592 115.166C132.064 115.481 134.553 115.637 137.045 115.635C144.775 115.708 152.442 114.267 159.605 111.395C166.768 108.522 173.283 104.276 178.776 98.9003C184.268 93.5248 188.628 87.1271 191.604 80.0767C194.58 73.0264 196.112 65.4632 196.113 57.8241C196.113 50.185 194.582 42.6215 191.608 35.5706C188.633 28.5197 184.275 22.1212 178.783 16.7448C173.292 11.3684 166.777 7.12062 159.615 4.24696C152.453 1.37331 144.785 -0.0692802 137.055 0.00255682ZM153.348 79.9159C162.04 80.0202 170.42 83.7729 170.42 83.7729C170.42 83.7729 161.164 86.3373 152.609 85.274C147.157 84.5531 141.794 83.2852 136.602 81.49C138.375 82.9089 140.004 84.4957 141.465 86.2279C142.917 88.103 144.014 90.2219 144.703 92.4825C142.713 91.0924 140.98 89.3732 139.582 87.4006C138.387 85.5359 137.389 83.5554 136.602 81.49C136.971 83.0901 137.05 87.9531 137.05 87.9531H136.059C136.016 86.1132 136.586 81.4691 136.586 81.4639C135.798 83.5282 134.798 85.5071 133.601 87.3693C132.205 89.3425 130.474 91.0619 128.485 92.4512C129.174 90.1906 130.271 88.0717 131.723 86.1966C133.184 84.4645 134.813 82.8776 136.586 81.4587C131.392 83.2542 126.027 84.5221 120.574 85.2428C112.019 86.2852 102.762 83.7417 102.762 83.7417C102.762 83.7417 111.143 79.9889 119.835 79.8846C125.457 79.8679 131.067 80.3916 136.586 81.4483C129.199 77.7929 122.207 73.4061 115.716 68.3553C105.605 60.3493 98.7224 47.8088 98.7224 47.8088C98.7224 47.8088 111.586 52.8542 120.779 62.0277C126.68 68.0014 131.98 74.5283 136.602 81.5161C133.718 70.8573 131.9 59.9445 131.175 48.9346C130.194 31.7552 136.602 14.2162 136.602 14.2162C136.602 14.2162 143.005 31.7552 142.034 48.9086C141.307 59.9186 139.487 70.8314 136.602 81.49C141.226 74.5113 146.525 67.9932 152.425 62.0277C161.602 52.8542 174.46 47.8505 174.46 47.8505C174.46 47.8505 167.604 60.391 157.467 68.397C150.978 73.4475 143.987 77.8343 136.602 81.49C142.119 80.4301 147.727 79.903 153.348 79.9159Z" fill="#35CB33"/>
</svg>
