<svg width="29" height="29" viewBox="0 0 29 29" fill="none" xmlns="http://www.w3.org/2000/svg">
<path d="M21.8532 9.33075C21.8533 9.21736 21.826 9.10598 21.7742 9.00795C21.7223 8.90992 21.6477 8.82874 21.558 8.77268C21.4683 8.71662 21.3667 8.68767 21.2635 8.6888C21.1603 8.68993 21.0593 8.72108 20.9706 8.77909C20.6286 9.00273 20.2605 9.17399 19.8763 9.28814C19.3277 8.77089 18.628 8.48785 17.9051 8.49074C17.1121 8.49175 16.3504 8.83134 15.781 9.43783C15.2116 10.0443 14.8789 10.8702 14.8533 11.7411C13.2899 11.4672 11.8729 10.5706 10.8726 9.22229C10.8124 9.14195 10.7354 9.0787 10.6482 9.0379C10.561 8.99709 10.4662 8.97992 10.3717 8.98783C10.2773 8.99638 10.1861 9.03007 10.1062 9.08599C10.0263 9.14191 9.95997 9.21838 9.91298 9.30879C9.672 9.77086 9.5336 10.2889 9.50901 10.8207C9.48443 11.3526 9.57435 11.8833 9.77149 12.3698L9.77035 12.3711C9.68175 12.4311 9.60863 12.515 9.55798 12.6149C9.50734 12.7147 9.48086 12.8272 9.48108 12.9416C9.48001 13.0359 9.48516 13.1302 9.49649 13.2237C9.55616 14.0314 9.88195 14.7874 10.4128 15.35C10.3768 15.4254 10.3548 15.5079 10.3481 15.5927C10.3415 15.6775 10.3503 15.763 10.374 15.844C10.6054 16.6362 11.0975 17.3051 11.7541 17.7196C11.0871 18.003 10.3668 18.1019 9.65681 18.0074C9.5254 17.9892 9.39228 18.0207 9.2793 18.0967C9.16632 18.1726 9.08019 18.2885 9.03502 18.4253C8.98985 18.5621 8.98833 18.7117 9.03072 18.8495C9.07311 18.9874 9.15688 19.1053 9.26829 19.184C10.4894 20.0481 11.9112 20.5076 13.3636 20.5074C15.0107 20.5277 16.6178 19.9494 17.9348 18.8624C19.2518 17.7754 20.205 16.2406 20.646 14.4968C20.8522 13.7372 20.9575 12.9488 20.9586 12.1561C20.9586 12.1141 20.9586 12.0708 20.9581 12.0276C21.2631 11.6661 21.4994 11.2414 21.6531 10.7783C21.8068 10.3152 21.8749 9.8231 21.8532 9.33075ZM19.9214 11.3925C19.8249 11.5179 19.776 11.6794 19.785 11.8433C19.7907 11.9492 19.7902 12.0558 19.7902 12.1561C19.789 12.826 19.6996 13.4921 19.5249 14.1339C19.1647 15.6176 18.3617 16.9256 17.2446 17.8484C16.1276 18.7712 14.7609 19.2555 13.3636 19.2235C12.8617 19.2237 12.3615 19.1589 11.8734 19.0304C12.4958 18.81 13.0778 18.4702 13.5924 18.0268C13.6872 17.9448 13.7565 17.8326 13.791 17.7056C13.8254 17.5786 13.8232 17.4429 13.7847 17.3173C13.7462 17.1917 13.6733 17.0823 13.5759 17.004C13.4786 16.9258 13.3615 16.8825 13.2409 16.8802C12.7553 16.872 12.2916 16.6569 11.9475 16.2803C12.0348 16.2621 12.1215 16.2396 12.2077 16.2126C12.3339 16.1732 12.4443 16.0882 12.5212 15.9713C12.5981 15.8545 12.637 15.7127 12.6316 15.5686C12.6262 15.4246 12.5768 15.2867 12.4914 15.1772C12.4061 15.0678 12.2896 14.9931 12.1609 14.9651C11.879 14.904 11.6138 14.7722 11.3858 14.5801C11.1578 14.388 10.9732 14.1407 10.8464 13.8574C10.952 13.8733 11.0582 13.8831 11.1647 13.8869C11.2913 13.889 11.4151 13.8468 11.5184 13.7665C11.6217 13.6861 11.6991 13.5718 11.7393 13.4399C11.7778 13.3069 11.7758 13.1637 11.7336 13.032C11.6914 12.9003 11.6113 12.7874 11.5054 12.7102C11.2484 12.5221 11.0379 12.2669 10.8927 11.9675C10.7475 11.6681 10.6722 11.3338 10.6735 10.9945C10.6735 10.9519 10.6746 10.9092 10.6769 10.8672C11.9864 12.209 13.6847 13 15.4729 13.1008C15.5632 13.1047 15.653 13.086 15.7358 13.0462C15.8185 13.0063 15.8919 12.9463 15.9504 12.8707C16.0084 12.7944 16.0494 12.7044 16.0703 12.6076C16.0912 12.5109 16.0914 12.4102 16.0708 12.3134C16.0374 12.1603 16.0203 12.0033 16.02 11.8458C16.0205 11.2966 16.2193 10.7702 16.5727 10.3819C16.9261 9.99355 17.4053 9.77515 17.9051 9.77457C18.1622 9.77382 18.4167 9.83164 18.6525 9.94439C18.8883 10.0571 19.1002 10.2224 19.275 10.4297C19.3423 10.5093 19.4271 10.5687 19.5213 10.6022C19.6155 10.6356 19.7159 10.6421 19.813 10.6209C20.053 10.5696 20.2895 10.5005 20.521 10.414C20.3631 10.769 20.1613 11.0983 19.9214 11.3925Z" fill="#F8F8F8"/>
<circle cx="14.5" cy="14.5" r="14.25" stroke="#E0E0E0" stroke-width="0.5"/>
</svg>
